<svg xmlns="http://www.w3.org/2000/svg" width="46" height="46" viewBox="0 0 46 46">
    <g id="Group_2227" data-name="Group 2227" transform="translate(-285.5 -420.25)">
        <path id="Path_170" data-name="Path 170" d="M23,0A23,23,0,1,1,0,23,23,23,0,0,1,23,0Z" transform="translate(285.5 420.25)" fill="#d2ff96" opacity="0.3"/>
        <g id="vuesax_linear_card-add" data-name="vuesax/linear/card-add" transform="translate(125 -76.75)">
            <g id="card-add">
                <path id="Vector" d="M0,0H11.5" transform="translate(174 516.5)" fill="none" stroke="#34da4f" stroke-linecap="round" stroke-linejoin="round" stroke-width="1.5"/>
                <path id="Vector-2" data-name="Vector" d="M0,0H2" transform="translate(178 524.5)" fill="none" stroke="#34da4f" stroke-linecap="round" stroke-linejoin="round" stroke-width="1.5"/>
                <path id="Vector-3" data-name="Vector" d="M0,0H4" transform="translate(182.5 524.5)" fill="none" stroke="#34da4f" stroke-linecap="round" stroke-linejoin="round" stroke-width="1.5"/>
                <path id="Vector-4" data-name="Vector" d="M20,8.53v4.08c0,3.51-.89,4.39-4.44,4.39H4.44C.89,17,0,16.12,0,12.61V4.39C0,.88.89,0,4.44,0H11.5" transform="translate(174 511.5)" fill="none" stroke="#34da4f" stroke-linecap="round" stroke-linejoin="round" stroke-width="1.5"/>
                <path id="Vector-5" data-name="Vector" d="M0,0H5.5" transform="translate(188.5 514.25)" fill="none" stroke="#34da4f" stroke-linecap="round" stroke-width="1.5"/>
                <path id="Vector-6" data-name="Vector" d="M0,5.5V0" transform="translate(191.25 511.5)" fill="none" stroke="#34da4f" stroke-linecap="round" stroke-width="1.5"/>
                <path id="Vector-7" data-name="Vector" d="M0,0H24V24H0Z" transform="translate(172 508)" fill="none" opacity="0"/>
            </g>
        </g>
    </g>
</svg>