<svg id="Group_832" data-name="Group 832" xmlns="http://www.w3.org/2000/svg" xmlns:xlink="http://www.w3.org/1999/xlink" width="34.034" height="41.833" viewBox="0 0 34.034 41.833">
<defs>
<clipPath id="clip-path">
<path id="Path_149" data-name="Path 149" d="M29.035-.906a9.507,9.507,0,0,1,4.527-7.976A9.731,9.731,0,0,0,25.9-13.028c-3.226-.339-6.353,1.93-8,1.93-1.676,0-4.207-1.9-6.932-1.841A10.211,10.211,0,0,0,2.373-7.7C-1.342-1.265,1.429,8.188,4.988,13.388c1.781,2.546,3.862,5.39,6.585,5.289,2.665-.111,3.66-1.7,6.876-1.7,3.187,0,4.12,1.7,6.9,1.635,2.859-.046,4.661-2.557,6.379-5.128a21.058,21.058,0,0,0,2.917-5.941A9.187,9.187,0,0,1,29.035-.906ZM23.788-16.447a9.36,9.36,0,0,0,2.141-6.706,9.523,9.523,0,0,0-6.162,3.188,8.907,8.907,0,0,0-2.2,6.457A7.874,7.874,0,0,0,23.788-16.447Z" transform="translate(-0.609 23.153)" fill="none"/>
</clipPath>
<clipPath id="clip-path-2">
<path id="Path_148" data-name="Path 148" d="M-37,161.1H1052.938V-116H-37Z" transform="translate(37 116)" fill="none"/>
</clipPath>
</defs>
<g id="Group_831" data-name="Group 831" transform="translate(0 0)" clip-path="url(#clip-path)">
<g id="Group_830" data-name="Group 830" transform="translate(-69.477 -171.521)" clip-path="url(#clip-path-2)">
<path id="Path_147" data-name="Path 147" d="M-4.391-28.153H48.117V32.153H-4.391Z" transform="translate(64.631 190.437)"/>
</g>
</g>
</svg>