<svg xmlns="http://www.w3.org/2000/svg" width="9.156" height="9.156" viewBox="0 0 9.156 9.156">
    <g id="vuesax_linear_call-calling" data-name="vuesax/linear/call-calling" transform="translate(-172 -188)">
        <g id="call-calling" transform="translate(172 188)">
            <g id="call-calling-2" data-name="call-calling" transform="translate(0.763 0.763)">
                <path id="Vector" d="M7.619,6.23a.971.971,0,0,1-.1.416,1.574,1.574,0,0,1-.259.389,1.72,1.72,0,0,1-.626.45,1.916,1.916,0,0,1-.744.145,3.179,3.179,0,0,1-1.244-.279A6.7,6.7,0,0,1,3.338,6.6,10.969,10.969,0,0,1,2.087,5.528,10.84,10.84,0,0,1,1.022,4.281a6.8,6.8,0,0,1-.748-1.3A3.213,3.213,0,0,1,0,1.732,1.974,1.974,0,0,1,.137,1,1.756,1.756,0,0,1,.576.359,1.118,1.118,0,0,1,1.37,0a.717.717,0,0,1,.309.069.622.622,0,0,1,.256.214L2.819,1.53a1.306,1.306,0,0,1,.153.267.6.6,0,0,1,.053.233.518.518,0,0,1-.08.271,1.3,1.3,0,0,1-.214.271l-.29.3a.2.2,0,0,0-.061.153.346.346,0,0,0,.011.088c.011.031.023.053.031.076a3.166,3.166,0,0,0,.355.488c.172.2.355.4.553.6s.4.389.607.561a2.928,2.928,0,0,0,.492.351l.069.031a.263.263,0,0,0,.1.015.21.21,0,0,0,.156-.065l.29-.286a1.171,1.171,0,0,1,.275-.214.508.508,0,0,1,.271-.08.609.609,0,0,1,.233.05,1.476,1.476,0,0,1,.267.149l1.263.9a.579.579,0,0,1,.21.244A.783.783,0,0,1,7.619,6.23Z" fill="none" stroke="#7798ab" stroke-width="0.5"/>
                <path id="Vector-2" data-name="Vector" d="M1.335,1.335A1.513,1.513,0,0,0,.889.469,1.3,1.3,0,0,0,0,0" transform="translate(4.96 1.335)" fill="none" stroke="#7798ab" stroke-linecap="round" stroke-linejoin="round" stroke-width="0.5"/>
                <path id="Vector-3" data-name="Vector" d="M2.671,2.671A2.669,2.669,0,0,0,0,0" transform="translate(4.96)" fill="none" stroke="#7798ab" stroke-linecap="round" stroke-linejoin="round" stroke-width="0.5"/>
            </g>
            <path id="Vector-4" data-name="Vector" d="M0,0H9.156V9.156H0Z" fill="none" opacity="0"/>
        </g>
    </g>
</svg>