<svg id="Iconly_Light_Hide" data-name="Iconly/Light/Hide" xmlns="http://www.w3.org/2000/svg" width="14" height="14" viewBox="0 0 14 14">
<g id="Hide" transform="translate(1.604 2.479)">
<path id="Stroke_1" data-name="Stroke 1" d="M.54,3.147A1.822,1.822,0,0,1,0,1.847,1.843,1.843,0,0,1,3.147.54" transform="translate(3.55 2.755)" fill="none" stroke="#919191" stroke-linecap="round" stroke-linejoin="round" stroke-miterlimit="10" stroke-width="0.5"/>
<path id="Stroke_3" data-name="Stroke 3" d="M1.48,0A1.842,1.842,0,0,1,0,1.483" transform="translate(5.727 4.929)" fill="none" stroke="#919191" stroke-linecap="round" stroke-linejoin="round" stroke-miterlimit="10" stroke-width="0.5"/>
<path id="Stroke_5" data-name="Stroke 5" d="M2.278,7.372A7.834,7.834,0,0,1,0,4.26,7.928,7.928,0,0,1,2.295,1.13,4.978,4.978,0,0,1,5.4,0,4.99,4.99,0,0,1,8.509,1.142" transform="translate(0 0.341)" fill="none" stroke="#919191" stroke-linecap="round" stroke-linejoin="round" stroke-miterlimit="10" stroke-width="0.5"/>
<path id="Stroke_7" data-name="Stroke 7" d="M5.822,0A8.959,8.959,0,0,1,6.873,1.835c-1.147,2.658-3.175,4.26-5.4,4.26A4.656,4.656,0,0,1,0,5.854" transform="translate(3.919 2.766)" fill="none" stroke="#919191" stroke-linecap="round" stroke-linejoin="round" stroke-miterlimit="10" stroke-width="0.5"/>
<path id="Stroke_9" data-name="Stroke 9" d="M9.2,0,0,9.2" transform="translate(0.795)" fill="none" stroke="#919191" stroke-linecap="round" stroke-linejoin="round" stroke-miterlimit="10" stroke-width="0.5"/>
</g>
</svg>