<svg id="Yêu_thích" data-name="Yêu thích" xmlns="http://www.w3.org/2000/svg" width="19" height="19" viewBox="0 0 19 19">
    <circle id="Ellipse_55" data-name="Ellipse 55" cx="9.5" cy="9.5" r="9.5" fill="#ededed" opacity="0.5"/>
    <g id="Iconly_Light_Heart" data-name="Iconly/Light/Heart" transform="translate(4.11 5)">
        <g id="Heart" transform="translate(0 0)">
            <path id="Path_33961" d="M5.255,9.919a19.718,19.718,0,0,1-3.417-2.6A6.643,6.643,0,0,1,.212,4.775,3.514,3.514,0,0,1,2.31.16,3.451,3.451,0,0,1,5.388.667h0A3.456,3.456,0,0,1,8.466.16a3.517,3.517,0,0,1,2.1,4.615A6.643,6.643,0,0,1,8.943,7.314a19.718,19.718,0,0,1-3.417,2.6L5.393,10Z" transform="translate(0 0)" fill="#d50101"/>
        </g>
    </g>
</svg>