<svg xmlns="http://www.w3.org/2000/svg" width="42.766" height="39.986" viewBox="0 0 42.766 39.986">
    <g id="Group_2240" data-name="Group 2240" transform="translate(1.414 1.012)">
        <path id="Path_1065" data-name="Path 1065" d="M1427.039,1181.914l3.635-.4,9.077-14.553s-.081-4.039-2.181-2.908l-14.7,14.509" transform="translate(-1399.398 -1163.849)" fill="none" stroke="#34da4f" stroke-linecap="round" stroke-linejoin="round" stroke-width="2"/>
        <path id="Path_1066" data-name="Path 1066" d="M1377.575,1234.416l-7.627,7.523c-4.06,4.06,1.029,9.149,5.089,5.089l6.622-7.625" transform="translate(-1363.39 -1210.545)" fill="none" stroke="#34da4f" stroke-linecap="round" stroke-linejoin="round" stroke-width="2"/>
        <path id="Path_1067" data-name="Path 1067" d="M1353.478,1177.348l5.167,4.868a7.48,7.48,0,0,0,5.533,2.123,4.51,4.51,0,0,1,3.58,1.423l15.6,16.689c3.793,4.333,9.244-.674,5.26-5.26l-16.689-15.6a4.509,4.509,0,0,1-1.422-3.58,7.482,7.482,0,0,0-2.123-5.533l-4.868-5.167" transform="translate(-1353.478 -1166.138)" fill="none" stroke="#34da4f" stroke-linecap="round" stroke-linejoin="round" stroke-width="2"/>
        <line id="Line_58" data-name="Line 58" x2="7.531" y2="7.531" transform="translate(4.622 5.791)" fill="none" stroke="#34da4f" stroke-linecap="round" stroke-linejoin="round" stroke-width="2"/>
    </g>
</svg>
