<svg id="vuesax_linear_routing" data-name="vuesax/linear/routing" xmlns="http://www.w3.org/2000/svg" width="47.833" height="47.833" viewBox="0 0 47.833 47.833">
<g id="routing">
<path id="Vector" d="M.2,5.172c1.594-6.9,11.978-6.9,13.553,0,.937,4.046-1.634,7.474-3.866,9.606a4.259,4.259,0,0,1-5.84,0C1.832,12.646-.739,9.218.2,5.172Z" transform="translate(3.928 3.996)" fill="none" stroke="#34da4f" stroke-width="2"/>
<path id="Vector-2" data-name="Vector" d="M.2,5.172c1.594-6.9,12.038-6.9,13.632,0,.937,4.046-1.634,7.474-3.886,9.606a4.284,4.284,0,0,1-5.86,0C1.832,12.646-.739,9.218.2,5.172Z" transform="translate(29.837 27.913)" fill="none" stroke="#34da4f" stroke-width="2"/>
<path id="Vector-3" data-name="Vector" d="M9.322,0h5.341a3.992,3.992,0,0,1,2.631,7L1.37,20.927A3.979,3.979,0,0,0,3.981,27.9H9.322" transform="translate(14.594 9.965)" fill="none" stroke="#34da4f" stroke-linecap="round" stroke-linejoin="round" stroke-width="2"/>
<path id="Vector-4" data-name="Vector" d="M.636.5H.659" transform="translate(10.298 10.462)" fill="none" stroke="#34da4f" stroke-linecap="round" stroke-linejoin="round" stroke-width="2"/>
<path id="Vector-5" data-name="Vector" d="M.636.5H.659" transform="translate(36.208 34.378)" fill="none" stroke="#34da4f" stroke-linecap="round" stroke-linejoin="round" stroke-width="2"/>
<path id="Vector-6" data-name="Vector" d="M0,0H47.833V47.833H0Z" transform="translate(47.833 47.833) rotate(180)" fill="none" opacity="0"/>
</g>
</svg>