<svg id="note" xmlns="http://www.w3.org/2000/svg" width="48.656" height="48.656" viewBox="0 0 48.656 48.656">
<path id="Vector" d="M32.437,8.109V27.876c0,6.082-3.629,8.109-8.109,8.109H8.109C3.629,35.985,0,33.958,0,27.876V8.109C0,1.52,3.629,0,8.109,0A4.535,4.535,0,0,0,9.447,3.223a4.535,4.535,0,0,0,3.223,1.338h7.1A4.568,4.568,0,0,0,24.328,0C28.808,0,32.437,1.52,32.437,8.109Z" transform="translate(8.109 8.616)" fill="none" stroke="#34da4f" stroke-linecap="round" stroke-linejoin="round" stroke-width="2"/>
<path id="Vector-2" data-name="Vector" d="M16.219,4.561a4.568,4.568,0,0,1-4.561,4.561h-7.1A4.561,4.561,0,0,1,4.561,0h7.1a4.568,4.568,0,0,1,4.561,4.561Z" transform="translate(16.219 4.055)" fill="none" stroke="#34da4f" stroke-linecap="round" stroke-linejoin="round" stroke-width="2"/>
<path id="Vector-3" data-name="Vector" d="M0,0H8.109" transform="translate(16.219 26.355)" fill="none" stroke="#34da4f" stroke-linecap="round" stroke-linejoin="round" stroke-width="2"/>
<path id="Vector-4" data-name="Vector" d="M0,0H16.219" transform="translate(16.219 34.465)" fill="none" stroke="#34da4f" stroke-linecap="round" stroke-linejoin="round" stroke-width="2"/>
<path id="Vector-5" data-name="Vector" d="M0,0H48.656V48.656H0Z" fill="none" opacity="0"/>
</svg>