<svg id="vuesax_linear_smart-car" data-name="vuesax/linear/smart-car" xmlns="http://www.w3.org/2000/svg" width="47.833" height="47.833" viewBox="0 0 47.833 47.833">
<g id="smart-car" transform="translate(0 0)">
<g id="Group" transform="translate(3.951 15.187)">
<path id="Vector" d="M17.2,0H6.7c-3.707,0-4.544,1.854-5,4.146L0,12.217H23.916L22.222,4.146C21.724,1.854,20.907,0,17.2,0Z" transform="translate(3.045)" fill="none" stroke="#34da4f" stroke-linecap="round" stroke-linejoin="round" stroke-width="2"/>
<g id="Group-2" data-name="Group" transform="translate(0 12.197)">
<path id="Vector-2" data-name="Vector" d="M29.911,13.194a3.014,3.014,0,0,1-3.029,3.269h-2.81c-1.614,0-1.834-.7-2.133-1.535l-.3-.9c-.419-1.216-.7-2.053-2.85-2.053H11.137c-2.152,0-2.471.937-2.85,2.053l-.3.9c-.279.857-.5,1.535-2.133,1.535H3.045A3,3,0,0,1,.015,13.194L.852,4.086C1.072,1.834,1.49,0,5.416,0H24.49c3.926,0,4.345,1.834,4.564,4.086Z" fill="none" stroke="#34da4f" stroke-linecap="round" stroke-linejoin="round" stroke-width="2"/>
</g>
<path id="Vector-3" data-name="Vector" d="M1.495,0H0" transform="translate(1.53 7.733)" fill="none" stroke="#34da4f" stroke-linecap="round" stroke-linejoin="round" stroke-width="2"/>
<path id="Vector-4" data-name="Vector" d="M1.495,0H0" transform="translate(26.941 7.733)" fill="none" stroke="#34da4f" stroke-linecap="round" stroke-linejoin="round" stroke-width="2"/>
<path id="Vector-5" data-name="Vector" d="M0,0H4.484" transform="translate(6.014 18.196)" fill="none" stroke="#34da4f" stroke-linecap="round" stroke-linejoin="round" stroke-width="2"/>
<path id="Vector-6" data-name="Vector" d="M0,0H4.484" transform="translate(19.467 18.196)" fill="none" stroke="#34da4f" stroke-linecap="round" stroke-linejoin="round" stroke-width="2"/>
</g>
<path id="Vector-7" data-name="Vector" d="M4.664,6.956a4.906,4.906,0,0,0-.678-4.584A4.924,4.924,0,0,0,0,0" transform="translate(32.626 10.463)" fill="none" stroke="#34da4f" stroke-linecap="round" stroke-linejoin="round" stroke-width="2"/>
<path id="Vector-8" data-name="Vector" d="M10.324,15.406A12.222,12.222,0,0,0,8.431,5.521,12.24,12.24,0,0,0,0,0" transform="translate(33.164 3.986)" fill="none" stroke="#34da4f" stroke-linecap="round" stroke-linejoin="round" stroke-width="2"/>
<path id="Vector-9" data-name="Vector" d="M0,0H47.833V47.833H0Z" fill="none" opacity="0"/>
</g>
</svg>