<svg xmlns="http://www.w3.org/2000/svg" width="43.029" height="40.896" viewBox="0 0 43.029 40.896">
    <g id="Group_2243" data-name="Group 2243" transform="translate(1.589 0.853)">
        <g id="Group_2234" data-name="Group 2234">
            <g id="Group_2225" data-name="Group 2225">
                <path id="Path_1292" data-name="Path 1292" d="M-608.823,165.268a39.574,39.574,0,0,0,24.332-13.381c-.685.137-1.3.454-1.96.649a14.194,14.194,0,0,1-6.171.244,11.25,11.25,0,0,1-3.773-1.29c-.415-.227-.361-.4-.109-.7a12.152,12.152,0,0,1,3.264-2.669c.565-.33.68-.716.3-1.262-.3-.442-.666-.844-.989-1.273a6.4,6.4,0,0,1-1.185-4.767c1.767,1.715,1.925,2.965,3.9,3.626a.843.843,0,0,1,.591.6c.157.454.349.9.516,1.347.088.238.2.329.48.251a14.928,14.928,0,0,1,3.579-.606c.231-.007.358-.059.214-.311-.009-.015-.025-.027-.032-.043-.3-.635-.248-1.558-.942-1.851a8.394,8.394,0,0,0-2.172-.268,11.841,11.841,0,0,1-3.9-.83,3.778,3.778,0,0,1-2.229-4.35c.189-1.015.4-2.026.627-3.033.07-.312.085-.448-.3-.311-.485.172-.989.292-1.477.454a1.309,1.309,0,0,1-1.792-1.581c.234-1.023.553-2.026.818-3.042a.488.488,0,0,1,.67-.407c1.827.408,1.457.4,1.124,1.82a1.394,1.394,0,0,0-.12.712c1.122-.329,2.235-.657,3.349-.98.3-.088.109-.249.048-.362a2.377,2.377,0,0,1,.751-3.045,2.314,2.314,0,0,1,2.623-.121,2.218,2.218,0,0,1,1.171,2.4c-.073.467.063.547.462.491,1.321-.187,2.405.53,3.568.944.318.113.632.236.945.363.164.067.379.109.472.235.437.6-.1,1.066-.269,1.575-.114.351-.416.389-.753.249-.557-.232-1.144-.4-1.681-.673a6.139,6.139,0,0,0-3.988-.271c-.875.154-.873.184-1.026,1.128-.279,1.727-.55,3.455-.833,5.181-.035.217.045.286.243.314,1.5.214,3,.445,4.507.651a2.294,2.294,0,0,1,1.913,1.433c.468,1.093.884,2.209,1.306,3.321.091.241.2.426.477.418a2.95,2.95,0,0,1,1.14.262c.436.169.587.02.781-.313a39.262,39.262,0,0,0,4.3-10.358,41.168,41.168,0,0,0,1.176-7.932c.009-.2.027-.394.045-.591a.7.7,0,0,1,.068-.149,18.885,18.885,0,0,1,1.994,2.371A21.724,21.724,0,0,1-569.1,137.3a19.924,19.924,0,0,1,.3,7.945,22.671,22.671,0,0,1-8.267,13.961,31.084,31.084,0,0,1-11.624,6.067,37.982,37.982,0,0,1-8.439,1.375,38.034,38.034,0,0,1-11.377-1.22A1.992,1.992,0,0,1-608.823,165.268Z" transform="translate(608.823 -127.151)" fill="none" stroke="#34da4f" stroke-miterlimit="10" stroke-width="1"/>
                <path id="Path_1293" data-name="Path 1293" d="M5143.216,4678.846l2.949-.973,4.33-.7,2.953.245,2,.455-3.96,5.475-4.588.835s-3.387.809-7.7-1.814A26.638,26.638,0,0,1,5143.216,4678.846Z" transform="translate(-5127.266 -4658.39)" fill="none" stroke="#34da4f" stroke-width="1"/>
                <path id="Path_1295" data-name="Path 1295" d="M0,0S5.861,5.947,5.539,13.106C.586,2.615,0,0,0,0Z" transform="translate(35.184 4.539) rotate(13)" fill="none" stroke="#34da4f" stroke-width="1"/>
            </g>
        </g>
    </g>
</svg>
