[16:49] Manh Tran
<svg id="vuesax_linear_shopping-bag" data-name="vuesax/linear/shopping-bag" xmlns="http://www.w3.org/2000/svg" width="48.077" height="48.077" viewBox="0 0 48.077 48.077">
<g id="shopping-bag">
<path id="Vector" d="M9.855,0H24.278c6.811,0,7.492,3.185,7.953,7.071l1.8,15.024c.581,4.928-.942,8.954-7.953,8.954H8.072C1.041,31.05-.482,27.023.119,22.1l1.8-15.024C2.363,3.185,3.044,0,9.855,0Z" transform="translate(6.972 13.021)" fill="none" stroke="#34da4f" stroke-linecap="round" stroke-linejoin="round" stroke-width="2"/>
<path id="Vector-2" data-name="Vector" d="M0,12.019V5.008A4.731,4.731,0,0,1,5.008,0h6.01a4.731,4.731,0,0,1,5.008,5.008v7.011" transform="translate(16.026 4.006)" fill="none" stroke="#34da4f" stroke-linecap="round" stroke-linejoin="round" stroke-width="2"/>
<path id="Vector-3" data-name="Vector" d="M24.86,0H0" transform="translate(16.026 34.114)" fill="none" stroke="#34da4f" stroke-linecap="round" stroke-linejoin="round" stroke-width="2"/>
<path id="Vector-4" data-name="Vector" d="M0,0H48.077V48.077H0Z" fill="none" opacity="0"/>
</g>
</svg>

