<svg xmlns="http://www.w3.org/2000/svg" width="43.172" height="37.665" viewBox="0 0 43.172 37.665">
<path id="Path_1061" data-name="Path 1061" d="M226.2,415.2c-.447,0-.81.5-.81,1.11V420.4h-29.7a4.2,4.2,0,0,0,.641-2.239,4.9,4.9,0,0,0-9.768,0,4.2,4.2,0,0,0,.641,2.239h-1.75V406.484c0-.613-.362-1.11-.81-1.11s-.81.5-.81,1.11v35.445c0,.613.363,1.109.81,1.109s.81-.5.81-1.109v-10.26h39.932v10.26c0,.613.363,1.109.81,1.109s.81-.5.81-1.109V416.309C227.008,415.7,226.646,415.2,226.2,415.2Zm-38.014,2.96c0-1.057,1.4-2.239,3.264-2.239s3.264,1.182,3.264,2.239-1.4,2.239-3.264,2.239S188.185,419.215,188.185,418.159Zm-2.728,11.291v-6.832h39.932v6.832Z" transform="translate(-183.836 -405.374)" fill="#34da4f"/>
</svg>