<svg width="12" height="12" viewBox="0 0 12 12" fill="none" xmlns="http://www.w3.org/2000/svg">
<path d="M5.66646 1.13816C5.85067 0.953947 6.14933 0.953948 6.33354 1.13816L7.67904 2.48365C7.86325 2.66786 7.86325 2.96653 7.67904 3.15074L6.33354 4.49623C6.14933 4.68044 5.85067 4.68044 5.66646 4.49623L4.32096 3.15074C4.13675 2.96653 4.13675 2.66786 4.32096 2.48365L5.66646 1.13816Z" stroke="#292524"/>
<path d="M8.84926 4.32096C9.03347 4.13675 9.33214 4.13675 9.51635 4.32096L10.8618 5.66646C11.0461 5.85067 11.0461 6.14933 10.8618 6.33354L9.51635 7.67904C9.33214 7.86325 9.03347 7.86325 8.84926 7.67904L7.50377 6.33354C7.31956 6.14933 7.31956 5.85067 7.50377 5.66646L8.84926 4.32096Z" stroke="#292524"/>
<path d="M2.48365 4.32096C2.66786 4.13675 2.96653 4.13675 3.15074 4.32096L4.49623 5.66646C4.68044 5.85067 4.68044 6.14933 4.49623 6.33354L3.15074 7.67904C2.96653 7.86325 2.66786 7.86325 2.48365 7.67904L1.13816 6.33354C0.953948 6.14933 0.953948 5.85067 1.13816 5.66646L2.48365 4.32096Z" stroke="#292524"/>
<path d="M5.66646 7.50377C5.85067 7.31956 6.14933 7.31956 6.33354 7.50377L7.67904 8.84926C7.86325 9.03347 7.86325 9.33214 7.67904 9.51635L6.33354 10.8618C6.14933 11.0461 5.85067 11.0461 5.66646 10.8618L4.32096 9.51635C4.13675 9.33214 4.13675 9.03347 4.32096 8.84926L5.66646 7.50377Z" stroke="#292524"/>
</svg>
