<svg width="24" height="15" viewBox="0 0 24 15" fill="none" xmlns="http://www.w3.org/2000/svg">
<path d="M21.3333 0H2.66667C1.95942 0 1.28115 0.234126 0.781049 0.650874C0.280952 1.06762 0 1.63285 0 2.22222L0 12.2222C0 12.8116 0.280952 13.3768 0.781049 13.7936C1.28115 14.2103 1.95942 14.4444 2.66667 14.4444H21.3333C22.0406 14.4444 22.7189 14.2103 23.219 13.7936C23.719 13.3768 24 12.8116 24 12.2222V2.22222C24 1.63285 23.719 1.06762 23.219 0.650874C22.7189 0.234126 22.0406 0 21.3333 0V0Z" fill="#DA251D"/>
<path d="M13.1685 6.1315L11.9998 3.13428L10.8311 6.1315H7.0498L10.1091 7.98317L8.94047 10.9804L11.9998 9.12817L15.0591 10.9804L13.8905 7.98317L16.9498 6.1315H13.1685Z" fill="#FFFF00"/>
</svg>
