<svg width="18" height="16" viewBox="0 0 18 16" fill="none" xmlns="http://www.w3.org/2000/svg">
    <path d="M15.2608 8.48633L9.01083 14.6763L2.76083 8.48633C2.34859 8.08518 2.02387 7.60301 1.80712 7.0702C1.59037 6.53738 1.4863 5.96546 1.50144 5.39045C1.51659 4.81543 1.65063 4.24978 1.89513 3.72912C2.13962 3.20845 2.48928 2.74405 2.92207 2.36515C3.35486 1.98626 3.86142 1.70108 4.40984 1.52757C4.95826 1.35406 5.53667 1.29599 6.10864 1.357C6.68061 1.41802 7.23375 1.5968 7.73323 1.88209C8.23271 2.16738 8.6677 2.553 9.01083 3.01467C9.35544 2.55635 9.79094 2.1741 10.2901 1.89184C10.7892 1.60958 11.3412 1.43338 11.9116 1.37427C12.482 1.31516 13.0584 1.37442 13.6048 1.54833C14.1512 1.72224 14.6559 2.00706 15.0871 2.38497C15.5184 2.76288 15.867 3.22574 16.1112 3.74458C16.3553 4.26342 16.4898 4.82707 16.5061 5.40026C16.5224 5.97345 16.4202 6.54383 16.2059 7.07571C15.9917 7.60759 15.6699 8.08952 15.2608 8.49133"
          fill="#AFA8FF"/>
    <path d="M15.2608 8.48633L9.01083 14.6763L2.76083 8.48633C2.34858 8.08518 2.02387 7.60301 1.80712 7.0702C1.59037 6.53738 1.4863 5.96546 1.50144 5.39045C1.51659 4.81543 1.65063 4.24978 1.89513 3.72912C2.13962 3.20845 2.48928 2.74405 2.92207 2.36515C3.35486 1.98626 3.86142 1.70108 4.40984 1.52757C4.95826 1.35406 5.53667 1.29599 6.10864 1.357C6.68061 1.41802 7.23375 1.5968 7.73323 1.88209C8.23271 2.16738 8.6677 2.553 9.01083 3.01467C9.35544 2.55635 9.79094 2.1741 10.2901 1.89184C10.7892 1.60958 11.3412 1.43338 11.9116 1.37427C12.482 1.31516 13.0584 1.37442 13.6048 1.54833C14.1512 1.72224 14.6559 2.00706 15.0871 2.38497C15.5184 2.76288 15.867 3.22574 16.1112 3.74458C16.3553 4.26342 16.4898 4.82707 16.5061 5.40026C16.5224 5.97345 16.4202 6.54383 16.2059 7.07571C15.9917 7.60759 15.6699 8.08952 15.2608 8.49134"
          stroke="#AFA8FF" stroke-width="1.5" stroke-linecap="round" stroke-linejoin="round"/>
</svg>
