<svg width="24" height="25" viewBox="0 0 24 25" fill="none" xmlns="http://www.w3.org/2000/svg">
<path d="M19.5129 13.0834L12.0129 20.5114L4.51294 13.0834C4.01824 12.602 3.62858 12.0234 3.36848 11.384C3.10839 10.7447 2.9835 10.0584 3.00167 9.36834C3.01985 8.67832 3.1807 7.99954 3.47409 7.37474C3.76749 6.74994 4.18707 6.19266 4.70642 5.73799C5.22577 5.28331 5.83364 4.9411 6.49175 4.73289C7.14985 4.52468 7.84394 4.45499 8.5303 4.52821C9.21667 4.60143 9.88043 4.81596 10.4798 5.15831C11.0792 5.50066 11.6012 5.96341 12.0129 6.51741C12.4265 5.96743 12.9491 5.50873 13.548 5.17001C14.147 4.8313 14.8094 4.61986 15.4939 4.54893C16.1783 4.478 16.87 4.54911 17.5257 4.7578C18.1814 4.96649 18.787 5.30828 19.3045 5.76177C19.822 6.21526 20.2404 6.77069 20.5334 7.3933C20.8263 8.01591 20.9877 8.69229 21.0072 9.38012C21.0268 10.0679 20.9042 10.7524 20.6471 11.3907C20.3899 12.0289 20.0038 12.6072 19.5129 13.0894" stroke="#292524" stroke-width="2" stroke-linecap="round" stroke-linejoin="round"/>
</svg>
