<svg width="21" height="20" viewBox="0 0 21 20" fill="none" xmlns="http://www.w3.org/2000/svg">
<path d="M2.742 5.24246L9.64308 1.38771C10.2488 1.04939 10.9865 1.04913 11.5925 1.38702L18.5068 5.24276C19.1885 5.62287 19.5867 6.36477 19.5269 7.14292L18.7671 17.0197C18.687 18.0617 17.8181 18.8663 16.773 18.8663H4.47714C3.43207 18.8663 2.56319 18.0617 2.48303 17.0197L1.7232 7.14192C1.66338 6.36428 2.06108 5.6228 2.742 5.24246Z" stroke="#1E1E1E" stroke-width="1.5"/>
<path d="M13.2221 12.4519C13.2221 13.8862 12.0594 15.049 10.6251 15.049C9.19078 15.049 8.02805 13.8862 8.02805 12.4519C8.02805 11.0176 9.19078 9.85486 10.6251 9.85486C12.0594 9.85486 13.2221 11.0176 13.2221 12.4519Z" stroke="#1E1E1E" stroke-width="1.5"/>
</svg>
