<svg width="22" height="22" viewBox="0 0 22 22" fill="none" xmlns="http://www.w3.org/2000/svg">
<path d="M1.09985 8.24369C1.09985 7.84967 1.3004 7.48001 1.63806 7.25167L9.95806 1.62515C10.4022 1.32482 10.9975 1.32482 11.4416 1.62515L19.7616 7.25167C20.0993 7.48001 20.2999 7.84967 20.2999 8.24369V18.774C20.2999 19.7824 19.4402 20.5999 18.3799 20.5999H3.01985C1.95947 20.5999 1.09985 19.7824 1.09985 18.774V8.24369Z" stroke="#8F85FF" stroke-width="1.5"/>
<path d="M13.0999 12.1999C13.0999 13.5254 12.0253 14.5999 10.6999 14.5999C9.37437 14.5999 8.29985 13.5254 8.29985 12.1999C8.29985 10.8744 9.37437 9.7999 10.6999 9.7999C12.0253 9.7999 13.0999 10.8744 13.0999 12.1999Z" stroke="#8F85FF" stroke-width="1.5"/>
</svg>
