<svg width="22" height="22" viewBox="0 0 22 22" fill="none" xmlns="http://www.w3.org/2000/svg">
<path d="M11.2743 20.6538V6.69012M9.64931 5.85244C9.82218 5.89123 10.0043 5.84368 10.1288 5.71922C10.2533 5.59476 10.3007 5.41253 10.262 5.23973C10.1069 4.60595 9.53533 2.4837 8.94846 1.89684C8.2173 1.16568 7.0273 1.16263 6.29976 1.89017C5.57226 2.61767 5.57521 3.80767 6.30642 4.53888C6.90289 5.13535 9.01554 5.6973 9.64931 5.85244ZM11.4239 5.23968C11.3851 5.41255 11.4326 5.59471 11.5571 5.71917C11.6816 5.84363 11.8638 5.89111 12.0366 5.85239C12.6704 5.69723 14.7926 5.12569 15.3795 4.53883C16.1106 3.80767 16.1137 2.61767 15.3861 1.89012C14.6587 1.16263 13.4687 1.16557 12.7374 1.89679C12.141 2.49326 11.579 4.60591 11.4239 5.23968ZM2.19794 11.5774H20.0016C20.3872 11.5774 20.6998 11.2648 20.6998 10.8792V7.38831C20.6998 7.00271 20.3872 6.69012 20.0016 6.69012H2.19794C1.81234 6.69012 1.49976 7.00271 1.49976 7.38831V10.8792C1.49976 11.2648 1.81234 11.5774 2.19794 11.5774ZM18.9543 11.5774V19.9556C18.9543 20.3412 18.6417 20.6538 18.2561 20.6538H3.94339C3.5578 20.6538 3.24521 20.3412 3.24521 19.9556V11.5774H18.9543Z" stroke="#CCCCCC" stroke-width="1.5" stroke-linecap="round" stroke-linejoin="round"/>
</svg>
