<svg width="20" height="21" viewBox="0 0 20 21" fill="none" xmlns="http://www.w3.org/2000/svg">
<path d="M10 14.5V14.51M10 11.5C10.4498 11.5014 10.8868 11.3511 11.2407 11.0734C11.5945 10.7958 11.8444 10.407 11.95 9.96983C12.0557 9.53267 12.0109 9.07265 11.8229 8.66407C11.6349 8.25549 11.3147 7.92219 10.914 7.71801C10.5162 7.51422 10.0611 7.45103 9.62281 7.53873C9.18451 7.62642 8.78879 7.85984 8.5 8.20101" stroke="#292524" stroke-width="2" stroke-linecap="round" stroke-linejoin="round"/>
<path d="M1 10.5C1 11.6819 1.23279 12.8522 1.68508 13.9442C2.13738 15.0361 2.80031 16.0282 3.63604 16.864C4.47177 17.6997 5.46392 18.3626 6.55585 18.8149C7.64778 19.2672 8.8181 19.5 10 19.5C11.1819 19.5 12.3522 19.2672 13.4442 18.8149C14.5361 18.3626 15.5282 17.6997 16.364 16.864C17.1997 16.0282 17.8626 15.0361 18.3149 13.9442C18.7672 12.8522 19 11.6819 19 10.5C19 9.3181 18.7672 8.14778 18.3149 7.05585C17.8626 5.96392 17.1997 4.97177 16.364 4.13604C15.5282 3.30031 14.5361 2.63738 13.4442 2.18508C12.3522 1.73279 11.1819 1.5 10 1.5C8.8181 1.5 7.64778 1.73279 6.55585 2.18508C5.46392 2.63738 4.47177 3.30031 3.63604 4.13604C2.80031 4.97177 2.13738 5.96392 1.68508 7.05585C1.23279 8.14778 1 9.3181 1 10.5Z" stroke="#292524" stroke-width="2" stroke-linecap="round" stroke-linejoin="round"/>
</svg>
