<svg width="22" height="22" viewBox="0 0 22 22" fill="none" xmlns="http://www.w3.org/2000/svg">
<path d="M8.12002 8.12002V7.12002C7.56774 7.12002 7.12002 7.56774 7.12002 8.12002H8.12002ZM8.21565 8.12002H9.21565C9.21565 7.56774 8.76793 7.12002 8.21565 7.12002V8.12002ZM13.88 8.12002V7.12002C13.3277 7.12002 12.88 7.56774 12.88 8.12002H13.88ZM13.965 8.12002H14.965C14.965 7.56774 14.5173 7.12002 13.965 7.12002V8.12002ZM8.21565 8.1969V9.1969C8.76793 9.1969 9.21565 8.74918 9.21565 8.1969H8.21565ZM8.12002 8.1969H7.12002C7.12002 8.74918 7.56774 9.1969 8.12002 9.1969V8.1969ZM13.965 8.1969V9.1969C14.5173 9.1969 14.965 8.74918 14.965 8.1969H13.965ZM13.88 8.1969H12.88C12.88 8.74918 13.3277 9.1969 13.88 9.1969V8.1969ZM8.52226 13.3929C8.23157 12.9233 7.61525 12.7782 7.14565 13.0689C6.67605 13.3596 6.53101 13.9759 6.82169 14.4455L8.52226 13.3929ZM15.1784 14.4455C15.469 13.9759 15.324 13.3596 14.8544 13.0689C14.3848 12.7782 13.7685 12.9233 13.4778 13.3929L15.1784 14.4455ZM19.6 11C19.6 15.7497 15.7497 19.6 11 19.6V21.6C16.8542 21.6 21.6 16.8542 21.6 11H19.6ZM11 19.6C6.25037 19.6 2.40002 15.7497 2.40002 11H0.400024C0.400024 16.8542 5.14581 21.6 11 21.6V19.6ZM2.40002 11C2.40002 6.25037 6.25037 2.40002 11 2.40002V0.400024C5.14581 0.400024 0.400024 5.14581 0.400024 11H2.40002ZM11 2.40002C15.7497 2.40002 19.6 6.25037 19.6 11H21.6C21.6 5.14581 16.8542 0.400024 11 0.400024V2.40002ZM8.12002 9.12002H8.21565V7.12002H8.12002V9.12002ZM13.88 9.12002H13.965V7.12002H13.88V9.12002ZM7.21565 8.12002V8.1969H9.21565V8.12002H7.21565ZM8.21565 7.1969H8.12002V9.1969H8.21565V7.1969ZM9.12002 8.1969V8.12002H7.12002V8.1969H9.12002ZM12.965 8.12002V8.1969H14.965V8.12002H12.965ZM13.965 7.1969H13.88V9.1969H13.965V7.1969ZM14.88 8.1969V8.12002H12.88V8.1969H14.88ZM11 14.8C9.97025 14.8 9.05238 14.2493 8.52226 13.3929L6.82169 14.4455C7.69145 15.8506 9.23149 16.8 11 16.8V14.8ZM13.4778 13.3929C12.9477 14.2493 12.0298 14.8 11 14.8V16.8C12.7686 16.8 14.3086 15.8506 15.1784 14.4455L13.4778 13.3929Z" fill="#292524"/>
</svg>
