<svg width="10" height="12" viewBox="0 0 10 12" fill="none" xmlns="http://www.w3.org/2000/svg">
<path d="M1.98236 1.01465H8.01161C8.56389 1.01465 9.01161 1.46236 9.01161 2.01465V2.96264C9.01161 3.59587 8.71173 4.19169 8.20315 4.56895L6.6794 5.69925C6.42511 5.88788 6.27517 6.18579 6.27517 6.50241V9.65318C6.27517 10.1259 5.94417 10.534 5.48164 10.6316L4.94559 10.7447C4.32391 10.8759 3.73912 10.4017 3.73912 9.76629V6.50462C3.73912 6.18677 3.58801 5.88784 3.33205 5.69937L1.79651 4.56871C1.2846 4.19178 0.982372 3.59393 0.982369 2.95821L0.982365 2.01465C0.982363 1.46237 1.43008 1.01465 1.98236 1.01465Z" stroke="#1E1E1E" stroke-linejoin="round"/>
</svg>
