<svg xmlns="http://www.w3.org/2000/svg" width="186.781" height="45.264" viewBox="0 0 186.781 45.264">
  <g id="Group_3" data-name="Group 3" transform="translate(-509 -141.53)">
    <g id="Group_83" data-name="Group 83">
      <path id="Path_326" data-name="Path 326" d="M597.17,166.2a13.6,13.6,0,0,0-9.525-3.487h-9.316A6.442,6.442,0,0,1,574,161.444a2.472,2.472,0,0,1-.941-1.885,2.786,2.786,0,0,1,.963-2.094,6.206,6.206,0,0,1,4.309-1.289h14.283l-6.433-8.479h-7.85a14.6,14.6,0,0,0-10.01,3.49,11.289,11.289,0,0,0-3.741,8.372,10.971,10.971,0,0,0,3.862,8.288,14.832,14.832,0,0,0,9.889,3.341h9.316a5.168,5.168,0,0,1,3.7,1.168,2.772,2.772,0,0,1,.893,2.029,2.594,2.594,0,0,1-.85,1.934,5.264,5.264,0,0,1-3.743,1.142H567.751l-24.98-34.254a4.241,4.241,0,0,0-6.762.008L509,179h10.623l5.861-7.765h19.931l-6.358-8.381h-7.246l7.592-10.056,7.632,10.056h-.017l11.865,16.977h.018l3.367,4.436a4.223,4.223,0,0,0,3.378,1.677h22a13.7,13.7,0,0,0,9.531-3.421,11.113,11.113,0,0,0,3.541-8.134A11.254,11.254,0,0,0,597.17,166.2Z" fill="#fff"/>
      <path id="Path_327" data-name="Path 327" d="M600.51,156.09V147.7h-6.368Z" fill="#fff"/>
      <g id="Group_81" data-name="Group 81">
        <path id="Path_328" data-name="Path 328" d="M614.592,183.879V180.19H611.92v-1.076h6.58v1.076h-2.711v3.689H619.1v1.075h-7.76v-1.075Z" fill="#fff"/>
        <path id="Path_329" data-name="Path 329" d="M628.31,181.3v1.2h-7.644v-1.2Z" fill="#fff"/>
        <path id="Path_330" data-name="Path 330" d="M633.652,183.879V180.19H630.98v-1.076h6.58v1.076h-2.708v3.689h3.308v1.075H630.4v-1.075Z" fill="#fff"/>
        <path id="Path_331" data-name="Path 331" d="M647.521,185.77a16.905,16.905,0,0,0-2.48-2.727,10.8,10.8,0,0,1-3.641,2.662l-.742-.932a9.176,9.176,0,0,0,5.115-5.087h-4.211v-1.065h4.971l.647.723a12.376,12.376,0,0,1-1.463,2.832,16.276,16.276,0,0,1,2.785,2.769Z" fill="#fff"/>
        <path id="Path_332" data-name="Path 332" d="M654.283,181.92a.994.994,0,0,1-1.988,0,.994.994,0,1,1,1.988,0Z" fill="#fff"/>
        <path id="Path_333" data-name="Path 333" d="M661.81,186.018h-1.121v-2.871a13.907,13.907,0,0,1-2.605,1.14l-.6-.921a10.554,10.554,0,0,0,5.174-3.111h-4.375v-.979h2.4v-1.464h1.14v1.464h1.9l.543.789a10.408,10.408,0,0,1-1.893,1.95,13.286,13.286,0,0,1,2.832,1.627l-.656.912a16.351,16.351,0,0,0-2.739-1.731Z" fill="#fff"/>
        <path id="Path_334" data-name="Path 334" d="M669.092,180.113a10.675,10.675,0,0,1,.914,2.112l-1.028.361a12.114,12.114,0,0,0-.845-2.121Zm5.353-.048c-.474,2.938-1.806,4.937-4.193,6.028l-.656-.874a6.3,6.3,0,0,0,3.765-5.362Zm-3.385-.36a9.568,9.568,0,0,1,.905,2.082l-1.008.342a11.011,11.011,0,0,0-.848-2.139Z" fill="#fff"/>
        <path id="Path_335" data-name="Path 335" d="M679.113,180.684a18.165,18.165,0,0,1,3.764,1.675l-.512,1.026a19.93,19.93,0,0,0-3.252-1.56v4.089h-1.187v-7.931h1.187Z" fill="#fff"/>
      </g>
      <path id="Path_336" data-name="Path 336" d="M636.859,174.287h-6.834l-.109-.14-11.43-14.873-.967-1.258v16.271h-6.406V148.665h6.838l.105.137,11.43,14.874.965,1.257V148.665h6.408v25.621Z" fill="#fff"/>
      <path id="Path_337" data-name="Path 337" d="M658.383,174.287H639.588V148.663h18.357v5.509H646V158.4h10.936v5.385H646v5h12.385v5.508Z" fill="#fff"/>
      <g id="Group_82" data-name="Group 82">
        <path id="Path_338" data-name="Path 338" d="M682.916,154.172H683v-5.51h-4.266Z" fill="#fff"/>
        <path id="Path_339" data-name="Path 339" d="M674.535,148.662H660.191v5.51h8.2v20.117H674.8V154.172h3.916Z" fill="#fff"/>
      </g>
    </g>
    <g id="Group_85" data-name="Group 85">
      <path id="Path_340" data-name="Path 340" d="M690.935,186.794a4.845,4.845,0,1,1,4.846-4.844A4.848,4.848,0,0,1,690.935,186.794Zm0-8.76a3.917,3.917,0,1,0,3.918,3.916A3.92,3.92,0,0,0,690.935,178.034Z" fill="#fff"/>
      <g id="Group_84" data-name="Group 84">
        <path id="Path_341" data-name="Path 341" d="M688.721,179.184a13.688,13.688,0,0,1,1.773-.119,2.864,2.864,0,0,1,1.92.5,1.366,1.366,0,0,1,.49,1.1,1.441,1.441,0,0,1-1.254,1.445v.031a1.349,1.349,0,0,1,.942,1.015,9.392,9.392,0,0,0,.556,1.676h-.918a5.054,5.054,0,0,1-.453-1.4,1.143,1.143,0,0,0-1.222-1.03h-.973v2.432h-.861Zm.861,2.565h1.045c.906,0,1.4-.407,1.4-1,0-.689-.541-1.022-1.474-1.022a5.167,5.167,0,0,0-.973.066Z" fill="#fff"/>
      </g>
    </g>
  </g>
</svg>