<svg width="115" height="23" viewBox="0 0 115 23" fill="none" xmlns="http://www.w3.org/2000/svg">
<path d="M7.59601 5.43749C8.74469 5.43749 9.74223 5.70199 10.5886 6.23099C11.4501 6.74487 12.1227 7.47036 12.6064 8.40744C13.09 9.34452 13.3319 10.4403 13.3319 11.6948C13.3319 12.919 13.0976 13.9922 12.6291 14.9141C12.1605 15.8361 11.503 16.554 10.6566 17.0679C9.81025 17.5818 8.81271 17.8387 7.66402 17.8387C6.60603 17.8387 5.69917 17.5969 4.94346 17.1132C4.18775 16.6145 3.60585 15.9041 3.19777 14.9821C2.78968 14.0451 2.58564 12.9493 2.58564 11.6948C2.58564 10.395 2.78212 9.27651 3.17509 8.33943C3.58318 7.40234 4.15752 6.68442 4.89812 6.18565C5.65383 5.68688 6.55313 5.43749 7.59601 5.43749ZM6.77984 8.15805C6.19038 8.15805 5.66139 8.3092 5.19285 8.61148C4.73942 8.89865 4.38423 9.29918 4.12729 9.81306C3.87035 10.3269 3.74188 10.924 3.74188 11.6041C3.74188 12.2842 3.87035 12.8888 4.12729 13.4178C4.38423 13.9317 4.73942 14.3322 5.19285 14.6194C5.66139 14.9066 6.19038 15.0501 6.77984 15.0501C7.38441 15.0501 7.91341 14.9066 8.36684 14.6194C8.82026 14.3322 9.16789 13.9317 9.40972 13.4178C9.66666 12.8888 9.79513 12.2842 9.79513 11.6041C9.79513 10.9391 9.66666 10.3496 9.40972 9.83573C9.16789 9.30674 8.82026 8.89865 8.36684 8.61148C7.91341 8.3092 7.38441 8.15805 6.77984 8.15805ZM0.250488 5.55085H3.74188V22.1236H0.250488V5.55085Z" fill="#1E1E1E"/>
<path d="M20.9176 5.43749C22.2174 5.43749 23.3585 5.69443 24.3409 6.20832C25.3234 6.7222 26.0866 7.44768 26.6307 8.38477C27.1749 9.30674 27.4469 10.3874 27.4469 11.6268C27.4469 12.8661 27.1749 13.9544 26.6307 14.8914C26.0866 15.8285 25.3234 16.554 24.3409 17.0679C23.3585 17.5818 22.2174 17.8387 20.9176 17.8387C19.6177 17.8387 18.4691 17.5818 17.4715 17.0679C16.4891 16.554 15.7258 15.8285 15.1817 14.8914C14.6376 13.9544 14.3655 12.8661 14.3655 11.6268C14.3655 10.3874 14.6376 9.30674 15.1817 8.38477C15.7258 7.44768 16.4891 6.7222 17.4715 6.20832C18.4691 5.69443 19.6177 5.43749 20.9176 5.43749ZM20.9176 8.22607C20.313 8.22607 19.7764 8.36965 19.3079 8.65683C18.8545 8.944 18.4993 9.35208 18.2423 9.88108C17.9854 10.395 17.8569 10.992 17.8569 11.6721C17.8569 12.3523 17.9854 12.9568 18.2423 13.4858C18.4993 13.9997 18.8545 14.4078 19.3079 14.7101C19.7764 14.9972 20.313 15.1408 20.9176 15.1408C21.5221 15.1408 22.0511 14.9972 22.5046 14.7101C22.958 14.4078 23.3132 13.9997 23.5701 13.4858C23.8271 12.9568 23.9555 12.3523 23.9555 11.6721C23.9555 10.992 23.8271 10.395 23.5701 9.88108C23.3132 9.35208 22.958 8.944 22.5046 8.65683C22.0511 8.36965 21.5221 8.22607 20.9176 8.22607Z" fill="#1E1E1E"/>
<path d="M29.3997 5.55085H32.8911V17.7254H29.3997V5.55085ZM31.1454 0.177734C31.7046 0.177734 32.158 0.359105 32.5057 0.721847C32.8684 1.08459 33.0498 1.53802 33.0498 2.08213C33.0498 2.62624 32.8684 3.07967 32.5057 3.44241C32.158 3.80515 31.7046 3.98652 31.1454 3.98652C30.6164 3.98652 30.1705 3.80515 29.8078 3.44241C29.445 3.07967 29.2637 2.62624 29.2637 2.08213C29.2637 1.53802 29.445 1.08459 29.8078 0.721847C30.1705 0.359105 30.6164 0.177734 31.1454 0.177734Z" fill="#1E1E1E"/>
<path d="M44.3236 11.06C44.3236 10.2589 44.1045 9.63169 43.6662 9.17827C43.243 8.72484 42.6611 8.49813 41.9205 8.49813C41.059 8.51324 40.3788 8.82308 39.8801 9.42765C39.3813 10.0322 39.1319 10.7955 39.1319 11.7175H38.2477C38.2477 10.2967 38.4518 9.12537 38.8598 8.2034C39.283 7.26631 39.8725 6.57106 40.6282 6.11763C41.399 5.64909 42.3059 5.41482 43.3488 5.41482C44.2556 5.41482 45.0416 5.6113 45.7066 6.00428C46.3867 6.38213 46.9082 6.91869 47.2709 7.61394C47.6337 8.3092 47.815 9.13292 47.815 10.0851V17.7254H44.3236V11.06ZM35.6405 5.55085H39.1319V17.7254H35.6405V5.55085Z" fill="#1E1E1E"/>
<path d="M54.8414 13.5765C54.8414 14.1206 54.9472 14.506 55.1588 14.7328C55.3704 14.9444 55.6575 15.0426 56.0203 15.0275C56.247 15.0275 56.4964 14.9897 56.7684 14.9141C57.0405 14.8385 57.3352 14.7252 57.6526 14.574L58.3781 17.0226C57.9247 17.2946 57.4259 17.5062 56.8818 17.6574C56.3377 17.8085 55.7785 17.8841 55.2041 17.8841C54.4786 17.8841 53.8212 17.748 53.2317 17.476C52.6574 17.2039 52.2039 16.7883 51.8714 16.2291C51.5389 15.6698 51.3727 14.9746 51.3727 14.1433V2.71693H54.8414V13.5765ZM49.6723 6.07229H58.1514V8.40744H49.6723V6.07229Z" fill="#1E1E1E"/>
<path d="M68.1672 9.04224C67.5022 8.6795 66.8447 8.39988 66.1948 8.2034C65.5449 7.9918 64.963 7.886 64.4491 7.886C64.041 7.886 63.7009 7.96157 63.4289 8.11271C63.1719 8.26385 63.0435 8.50568 63.0435 8.8382C63.0435 9.15559 63.1946 9.41254 63.4969 9.60902C63.8143 9.79039 64.2148 9.94909 64.6985 10.0851C65.1972 10.2211 65.7187 10.3798 66.2628 10.5612C66.8069 10.7275 67.3208 10.9466 67.8044 11.2187C68.3032 11.4907 68.7037 11.861 69.006 12.3296C69.3083 12.783 69.4594 13.3725 69.4594 14.098C69.4594 14.9141 69.2403 15.6094 68.802 16.1837C68.3637 16.7429 67.7667 17.1661 67.0109 17.4533C66.2552 17.7254 65.4164 17.8614 64.4944 17.8614C63.512 17.8614 62.5598 17.7178 61.6378 17.4306C60.7159 17.1435 59.9072 16.7203 59.212 16.161L60.3456 13.8939C60.9804 14.3776 61.6756 14.7554 62.4313 15.0275C63.2022 15.2844 63.9201 15.4129 64.5851 15.4129C64.8874 15.4129 65.1519 15.3751 65.3786 15.2995C65.6053 15.224 65.7867 15.1106 65.9227 14.9595C66.0587 14.8083 66.1268 14.6194 66.1268 14.3927C66.1268 14.0602 65.9756 13.7957 65.6733 13.5992C65.371 13.3876 64.9781 13.2138 64.4944 13.0777C64.0108 12.9266 63.4969 12.7755 62.9528 12.6243C62.4087 12.4581 61.8948 12.2389 61.4111 11.9668C60.9426 11.6948 60.5572 11.3396 60.2549 10.9013C59.9526 10.4479 59.8014 9.86596 59.8014 9.15559C59.8014 8.3092 60.0206 7.61394 60.4589 7.06983C60.8972 6.5106 61.4791 6.09496 62.2046 5.8229C62.9301 5.55085 63.7312 5.41482 64.6078 5.41482C65.4542 5.41482 66.2855 5.52818 67.1016 5.75489C67.9329 5.9816 68.6886 6.30656 69.3688 6.72976L68.1672 9.04224Z" fill="#1E1E1E"/>
<path d="M74.9238 12.2389C74.9238 13.0248 75.1278 13.6445 75.5359 14.098C75.944 14.5514 76.5032 14.7781 77.2136 14.7781C78.06 14.763 78.7175 14.4531 79.186 13.8486C79.6697 13.244 79.9115 12.4807 79.9115 11.5588H80.7503C80.7503 12.9795 80.5463 14.1584 80.1382 15.0955C79.7452 16.0175 79.1784 16.7052 78.4378 17.1586C77.7124 17.612 76.8433 17.8463 75.8306 17.8614C74.9238 17.8614 74.1454 17.6725 73.4955 17.2946C72.8456 16.9016 72.3393 16.3575 71.9765 15.6623C71.6138 14.967 71.4324 14.1433 71.4324 13.1911V5.55085H74.9238V12.2389ZM79.9115 5.55085H83.3802V17.7254H79.9115V5.55085Z" fill="#1E1E1E"/>
<path d="M86.7618 5.55085H90.2532V17.7254H86.7618V5.55085ZM88.5075 0.177734C89.0667 0.177734 89.5201 0.359105 89.8678 0.721847C90.2305 1.08459 90.4119 1.53802 90.4119 2.08213C90.4119 2.62624 90.2305 3.07967 89.8678 3.44241C89.5201 3.80515 89.0667 3.98652 88.5075 3.98652C87.9785 3.98652 87.5326 3.80515 87.1699 3.44241C86.8071 3.07967 86.6257 2.62624 86.6257 2.08213C86.6257 1.53802 86.8071 1.08459 87.1699 0.721847C87.5326 0.359105 87.9785 0.177734 88.5075 0.177734Z" fill="#1E1E1E"/>
<path d="M97.6159 13.5765C97.6159 14.1206 97.7217 14.506 97.9333 14.7328C98.1449 14.9444 98.432 15.0426 98.7948 15.0275C99.0215 15.0275 99.2709 14.9897 99.5429 14.9141C99.815 14.8385 100.11 14.7252 100.427 14.574L101.153 17.0226C100.699 17.2946 100.2 17.5062 99.6563 17.6574C99.1122 17.8085 98.553 17.8841 97.9786 17.8841C97.2531 17.8841 96.5957 17.748 96.0062 17.476C95.4319 17.2039 94.9784 16.7883 94.6459 16.2291C94.3134 15.6698 94.1471 14.9746 94.1471 14.1433V2.71693H97.6159V13.5765ZM92.4468 6.07229H100.926V8.40744H92.4468V6.07229Z" fill="#1E1E1E"/>
<path d="M111.125 10.6519C111.11 10.0927 110.989 9.61658 110.762 9.22361C110.551 8.81552 110.241 8.49812 109.833 8.27141C109.425 8.0447 108.956 7.93134 108.427 7.93134C107.838 7.93134 107.324 8.08248 106.886 8.38477C106.447 8.68705 106.107 9.10269 105.865 9.63169C105.624 10.1607 105.503 10.7728 105.503 11.4681C105.503 12.254 105.639 12.9266 105.911 13.4858C106.183 14.0451 106.568 14.4758 107.067 14.7781C107.566 15.0804 108.14 15.2315 108.79 15.2315C109.969 15.2315 110.997 14.7932 111.873 13.9166L113.71 15.7303C113.105 16.4104 112.357 16.9319 111.465 17.2946C110.589 17.6574 109.599 17.8387 108.495 17.8387C107.195 17.8387 106.069 17.5818 105.117 17.0679C104.165 16.554 103.424 15.8361 102.895 14.9141C102.382 13.977 102.125 12.8964 102.125 11.6721C102.125 10.4176 102.389 9.32941 102.918 8.40744C103.447 7.47036 104.18 6.74487 105.117 6.23099C106.069 5.7171 107.165 5.45261 108.405 5.43749C109.84 5.43749 111.012 5.73977 111.919 6.34434C112.841 6.9338 113.592 7.91177 114 9C114.423 10.0731 114.606 11.2111 114.5 12.6923H105.004V10.6519H111.125Z" fill="#1E1E1E"/>
</svg>
