<svg width="176" height="40" viewBox="0 0 176 40" fill="none" xmlns="http://www.w3.org/2000/svg">
<g clip-path="url(#clip0_535_3213)">
<path d="M34.88 16.3131C34.88 25.3226 27.5948 32.6262 18.6079 32.6262V0C27.5948 0 34.88 7.3036 34.88 16.3131Z" fill="#1E1E1E"/>
<path d="M18.6079 32.6262V40H0V0H18.6079C9.62108 0 2.33585 7.3036 2.33585 16.3131C2.33585 25.3226 9.62108 32.6262 18.6079 32.6262Z" fill="#1E1E1E"/>
</g>
<path d="M58.9129 13.7521C60.1691 13.7521 61.26 14.0413 62.1857 14.6198C63.1278 15.1818 63.8634 15.9752 64.3923 17C64.9212 18.0248 65.1857 19.2231 65.1857 20.595C65.1857 21.9339 64.9295 23.1074 64.4171 24.1157C63.9047 25.124 63.1857 25.9091 62.26 26.4711C61.3344 27.0331 60.2435 27.3141 58.9873 27.3141C57.8303 27.3141 56.8386 27.0496 56.0121 26.5207C55.1857 25.9752 54.5493 25.1983 54.103 24.1901C53.6567 23.1653 53.4336 21.9669 53.4336 20.595C53.4336 19.1736 53.6485 17.9504 54.0782 16.9256C54.5245 15.9008 55.1526 15.1157 55.9625 14.5702C56.789 14.0248 57.7724 13.7521 58.9129 13.7521ZM58.0204 16.7273C57.3758 16.7273 56.7972 16.8926 56.2848 17.2231C55.789 17.5372 55.4005 17.9752 55.1196 18.5372C54.8386 19.0992 54.6981 19.7521 54.6981 20.4959C54.6981 21.2397 54.8386 21.9008 55.1196 22.4793C55.4005 23.0413 55.789 23.4793 56.2848 23.7934C56.7972 24.1074 57.3758 24.2645 58.0204 24.2645C58.6815 24.2645 59.26 24.1074 59.7559 23.7934C60.2518 23.4793 60.6319 23.0413 60.8964 22.4793C61.1774 21.9008 61.3179 21.2397 61.3179 20.4959C61.3179 19.7686 61.1774 19.124 60.8964 18.562C60.6319 17.9835 60.2518 17.5372 59.7559 17.2231C59.26 16.8926 58.6815 16.7273 58.0204 16.7273ZM50.8799 13.876H54.6981V32H50.8799V13.876Z" fill="#1E1E1E"/>
<path d="M73.4814 13.7521C74.9029 13.7521 76.1508 14.0331 77.2252 14.595C78.2996 15.157 79.1343 15.9504 79.7293 16.9752C80.3244 17.9835 80.6219 19.1653 80.6219 20.5207C80.6219 21.876 80.3244 23.0661 79.7293 24.0909C79.1343 25.1157 78.2996 25.9091 77.2252 26.4711C76.1508 27.0331 74.9029 27.3141 73.4814 27.3141C72.0599 27.3141 70.8037 27.0331 69.7128 26.4711C68.6384 25.9091 67.8037 25.1157 67.2087 24.0909C66.6136 23.0661 66.3161 21.876 66.3161 20.5207C66.3161 19.1653 66.6136 17.9835 67.2087 16.9752C67.8037 15.9504 68.6384 15.157 69.7128 14.595C70.8037 14.0331 72.0599 13.7521 73.4814 13.7521ZM73.4814 16.8017C72.8202 16.8017 72.2334 16.9587 71.7211 17.2727C71.2252 17.5868 70.8368 18.0331 70.5558 18.6116C70.2748 19.1736 70.1343 19.8264 70.1343 20.5702C70.1343 21.314 70.2748 21.9752 70.5558 22.5537C70.8368 23.1157 71.2252 23.562 71.7211 23.8926C72.2334 24.2066 72.8202 24.3636 73.4814 24.3636C74.1425 24.3636 74.7211 24.2066 75.2169 23.8926C75.7128 23.562 76.1012 23.1157 76.3822 22.5537C76.6632 21.9752 76.8037 21.314 76.8037 20.5702C76.8037 19.8264 76.6632 19.1736 76.3822 18.6116C76.1012 18.0331 75.7128 17.5868 75.2169 17.2727C74.7211 16.9587 74.1425 16.8017 73.4814 16.8017Z" fill="#1E1E1E"/>
<path d="M82.7574 13.876H86.5756V27.1901H82.7574V13.876ZM84.6665 8C85.2781 8 85.774 8.19835 86.1541 8.59504C86.5508 8.99174 86.7492 9.4876 86.7492 10.0826C86.7492 10.6777 86.5508 11.1736 86.1541 11.5702C85.774 11.9669 85.2781 12.1653 84.6665 12.1653C84.088 12.1653 83.6004 11.9669 83.2037 11.5702C82.807 11.1736 82.6087 10.6777 82.6087 10.0826C82.6087 9.4876 82.807 8.99174 83.2037 8.59504C83.6004 8.19835 84.088 8 84.6665 8Z" fill="#1E1E1E"/>
<path d="M99.0783 19.9008C99.0783 19.0248 98.8386 18.3388 98.3592 17.843C97.8964 17.3471 97.2601 17.0992 96.4502 17.0992C95.508 17.1157 94.7642 17.4545 94.2188 18.1157C93.6733 18.7769 93.4006 19.6116 93.4006 20.6198H92.4336C92.4336 19.0661 92.6568 17.7851 93.1031 16.7769C93.5659 15.7521 94.2105 14.9917 95.0369 14.4959C95.8799 13.9835 96.8716 13.7273 98.0121 13.7273C99.0039 13.7273 99.8634 13.9421 100.591 14.3719C101.334 14.7851 101.905 15.3719 102.301 16.1322C102.698 16.8926 102.896 17.7934 102.896 18.8347V27.1901H99.0783V19.9008ZM89.5824 13.876H93.4006V27.1901H89.5824V13.876Z" fill="#1E1E1E"/>
<path d="M110.58 22.6529C110.58 23.2479 110.696 23.6694 110.928 23.9174C111.159 24.1488 111.473 24.2562 111.87 24.2397C112.118 24.2397 112.39 24.1983 112.688 24.1157C112.985 24.0331 113.308 23.9091 113.655 23.7438L114.448 26.4215C113.952 26.719 113.407 26.9504 112.812 27.1157C112.217 27.281 111.605 27.3636 110.977 27.3636C110.184 27.3636 109.465 27.2149 108.82 26.9174C108.192 26.6198 107.696 26.1653 107.333 25.5537C106.969 24.9422 106.787 24.1818 106.787 23.2727V10.7769H110.58V22.6529ZM104.928 14.4463H114.2V17H104.928V14.4463Z" fill="#1E1E1E"/>
<path d="M125.154 17.6942C124.426 17.2975 123.707 16.9917 122.997 16.7769C122.286 16.5455 121.649 16.4298 121.087 16.4298C120.641 16.4298 120.269 16.5124 119.972 16.6777C119.691 16.843 119.55 17.1074 119.55 17.4711C119.55 17.8182 119.716 18.0992 120.046 18.3141C120.393 18.5124 120.831 18.686 121.36 18.8347C121.906 18.9835 122.476 19.157 123.071 19.3554C123.666 19.5372 124.228 19.7769 124.757 20.0744C125.302 20.3719 125.74 20.7769 126.071 21.2893C126.401 21.7851 126.567 22.4298 126.567 23.2231C126.567 24.1157 126.327 24.876 125.848 25.5041C125.368 26.1157 124.716 26.5785 123.889 26.8926C123.063 27.1901 122.145 27.3388 121.137 27.3388C120.063 27.3388 119.021 27.1818 118.013 26.8678C117.005 26.5537 116.12 26.0909 115.36 25.4793L116.6 23C117.294 23.5289 118.054 23.9421 118.881 24.2397C119.724 24.5207 120.509 24.6612 121.236 24.6612C121.567 24.6612 121.856 24.6198 122.104 24.5372C122.352 24.4545 122.55 24.3306 122.699 24.1653C122.848 24 122.922 23.7934 122.922 23.5455C122.922 23.1818 122.757 22.8926 122.426 22.6777C122.096 22.4463 121.666 22.2562 121.137 22.1074C120.608 21.9421 120.046 21.7769 119.451 21.6116C118.856 21.4298 118.294 21.1901 117.765 20.8926C117.253 20.595 116.831 20.2066 116.501 19.7273C116.17 19.2314 116.005 18.595 116.005 17.8182C116.005 16.8926 116.244 16.1322 116.724 15.5372C117.203 14.9256 117.839 14.4711 118.633 14.1736C119.426 13.876 120.302 13.7273 121.261 13.7273C122.187 13.7273 123.096 13.8512 123.988 14.0992C124.897 14.3471 125.724 14.7025 126.468 15.1653L125.154 17.6942Z" fill="#1E1E1E"/>
<path d="M132.543 21.1901C132.543 22.0496 132.766 22.7273 133.212 23.2231C133.658 23.719 134.27 23.9669 135.047 23.9669C135.972 23.9504 136.691 23.6116 137.204 22.9504C137.733 22.2893 137.997 21.4545 137.997 20.4463H138.914C138.914 22 138.691 23.2893 138.245 24.314C137.815 25.3223 137.195 26.0744 136.386 26.5702C135.592 27.0661 134.642 27.3223 133.534 27.3388C132.543 27.3388 131.691 27.1322 130.981 26.719C130.27 26.2893 129.716 25.6942 129.319 24.9339C128.923 24.1736 128.724 23.2727 128.724 22.2314V13.876H132.543V21.1901ZM137.997 13.876H141.79V27.1901H137.997V13.876Z" fill="#1E1E1E"/>
<path d="M145.489 13.876H149.307V27.1901H145.489V13.876ZM147.398 8C148.009 8 148.505 8.19835 148.885 8.59504C149.282 8.99174 149.48 9.4876 149.48 10.0826C149.48 10.6777 149.282 11.1736 148.885 11.5702C148.505 11.9669 148.009 12.1653 147.398 12.1653C146.819 12.1653 146.332 11.9669 145.935 11.5702C145.538 11.1736 145.34 10.6777 145.34 10.0826C145.34 9.4876 145.538 8.99174 145.935 8.59504C146.332 8.19835 146.819 8 147.398 8Z" fill="#1E1E1E"/>
<path d="M157.359 22.6529C157.359 23.2479 157.474 23.6694 157.706 23.9174C157.937 24.1488 158.251 24.2562 158.648 24.2397C158.896 24.2397 159.169 24.1983 159.466 24.1157C159.764 24.0331 160.086 23.9091 160.433 23.7438L161.226 26.4215C160.731 26.719 160.185 26.9504 159.59 27.1157C158.995 27.281 158.383 27.3636 157.755 27.3636C156.962 27.3636 156.243 27.2149 155.598 26.9174C154.97 26.6198 154.474 26.1653 154.111 25.5537C153.747 24.9422 153.565 24.1818 153.565 23.2727V10.7769H157.359V22.6529ZM151.706 14.4463H160.978V17H151.706V14.4463Z" fill="#1E1E1E"/>
<path d="M172.132 19.4545C172.116 18.843 171.984 18.3223 171.736 17.8926C171.504 17.4463 171.165 17.0992 170.719 16.8512C170.273 16.6033 169.76 16.4793 169.182 16.4793C168.537 16.4793 167.975 16.6446 167.496 16.9752C167.017 17.3058 166.645 17.7603 166.38 18.3388C166.116 18.9174 165.984 19.5868 165.984 20.3471C165.984 21.2066 166.132 21.9422 166.43 22.5537C166.727 23.1653 167.149 23.6364 167.694 23.9669C168.24 24.2975 168.868 24.4628 169.579 24.4628C170.868 24.4628 171.992 23.9835 172.951 23.0248L174.959 25.0083C174.298 25.7521 173.479 26.3223 172.504 26.719C171.546 27.1157 170.463 27.3141 169.256 27.3141C167.835 27.3141 166.603 27.0331 165.562 26.4711C164.521 25.9091 163.711 25.124 163.132 24.1157C162.57 23.0909 162.289 21.9091 162.289 20.5702C162.289 19.1983 162.579 18.0083 163.157 17C163.736 15.9752 164.537 15.1818 165.562 14.6198C166.603 14.0579 167.802 13.7686 169.157 13.7521C170.727 13.7521 172.008 14.0826 173 14.7438C174.008 15.3884 174.83 16.4579 175.276 17.648C175.739 18.8216 175.939 20.0661 175.823 21.686H165.438V19.4545H172.132Z" fill="#1E1E1E"/>
<defs>
<clipPath id="clip0_535_3213">
<rect width="34.88" height="40" rx="2" fill="white"/>
</clipPath>
</defs>
</svg>
