<svg xmlns="http://www.w3.org/2000/svg" width="20.639" height="19.172" viewBox="0 0 20.639 19.172">
<g id="Wallet" transform="translate(0.75 0.75)">
<path id="Stroke_1" data-name="Stroke 1" d="M6.74,5.383H2.692A2.691,2.691,0,1,1,2.692,0H6.74" transform="translate(12.398 6.013)" fill="none" stroke="#919191" stroke-linecap="round" stroke-linejoin="round" stroke-miterlimit="10" stroke-width="1.5"/>
<path id="Stroke_3" data-name="Stroke 3" d="M.612.456H.3" transform="translate(14.937 8.187)" fill="none" stroke="#919191" stroke-linecap="round" stroke-linejoin="round" stroke-miterlimit="10" stroke-width="1.5"/>
<path id="Stroke_5" data-name="Stroke 5" d="M5.248,0h8.643a5.248,5.248,0,0,1,5.248,5.248v7.177a5.248,5.248,0,0,1-5.248,5.248H5.248A5.248,5.248,0,0,1,0,12.425V5.248A5.248,5.248,0,0,1,5.248,0Z" transform="translate(0 0)" fill="none" stroke="#919191" stroke-linecap="round" stroke-linejoin="round" stroke-miterlimit="10" stroke-width="1.5"/>
<path id="Stroke_7" data-name="Stroke 7" d="M0,.456H5.4" transform="translate(4.536 4.082)" fill="none" stroke="#919191" stroke-linecap="round" stroke-linejoin="round" stroke-miterlimit="10" stroke-width="1.5"/>
</g>
</svg>