<svg id="Link_xem_chi_tiết" data-name="Link xem chi tiết" xmlns="http://www.w3.org/2000/svg" width="20" height="20" viewBox="0 0 20 20">
    <circle id="Ellipse_54" data-name="Ellipse 54" cx="10" cy="10" r="10" fill="#5cf777" opacity="0.3"/>
    <g id="Iconly_Light-outline_Arrow_-_Right" data-name="Iconly/Light-outline/Arrow - Right" transform="translate(5.618 6.428)">
        <g id="Arrow_-_Right" data-name="Arrow - Right" transform="translate(0 8.092) rotate(-90)">
            <path id="Arrow_-_Right-2" data-name="Arrow - Right" d="M3.924,9.694h0l-.006,0-.005,0h0l-.007,0h0a.449.449,0,0,1-.17-.105h0L.131,6.02a.436.436,0,0,1,0-.624.453.453,0,0,1,.583-.042l.05.043L3.6,8.2V.441A.448.448,0,0,1,4.49.382l0,.06V8.2L7.327,5.4a.453.453,0,0,1,.634,0A.437.437,0,0,1,8,5.971l-.043.05-3.6,3.561a.45.45,0,0,1-.317.13A.455.455,0,0,1,3.924,9.694Z" fill="#0ebe2c"/>
        </g>
    </g>
</svg>