<svg width="192" height="176" viewBox="0 0 192 176" fill="none" xmlns="http://www.w3.org/2000/svg">
<g clip-path="url(#clip0_535_3820)">
<path d="M111.398 3.76777L4.25365 105.551C-3.36701 112.79 -0.283705 125.554 9.80359 128.526L151.628 170.313C161.715 173.285 171.241 164.236 168.774 154.025L134.094 10.455C131.628 0.243577 119.018 -3.47155 111.398 3.76777V3.76777Z" fill="#FFC1EB"/>
<path d="M110.328 130.659H63.9204C61.2642 135.902 58.3434 142.869 56.2936 151.37C54.0014 160.877 53.5392 169.23 53.6609 175.529C75.627 175.549 97.5932 175.569 119.559 175.589C119.353 168.676 118.568 160.374 116.559 151.158C114.839 143.269 112.59 136.398 110.328 130.659Z" fill="#6DC8C2"/>
<path d="M106.275 74.8708H69.1736V114.373H106.275V74.8708Z" fill="#1E1E1E"/>
<path d="M91.6482 68.2889H82.6573C76.7233 68.2889 71.9128 63.4843 71.9128 57.5574V46.2119C71.9128 40.4287 76.6067 35.7405 82.3969 35.7405H91.6113C99.2604 35.7405 105.461 41.9339 105.461 49.5738V54.4925C105.461 62.112 99.2769 68.2889 91.6482 68.2889Z" fill="#1E1E1E"/>
<path d="M102.837 64.4954L108.342 46.3214C108.67 45.2401 109.901 44.7226 110.904 45.2447L116.847 48.3383C117.957 48.9157 118.156 50.4178 117.235 51.2637L102.837 64.4954Z" fill="#FB6D6D"/>
<path d="M101.427 63.7825L117.139 54.014C118.182 53.3658 119.557 53.8529 119.958 55.0123L122.042 61.0384C122.468 62.2708 121.561 63.5582 120.255 63.5727L101.427 63.7825Z" fill="#FB6D6D"/>
<path d="M106.275 65.1C104.505 65.1 103.064 63.6616 103.064 61.8935C103.064 60.1257 104.505 58.6873 106.275 58.6873C108.045 58.6873 109.485 60.1257 109.485 61.8935C109.485 63.6616 108.045 65.1 106.275 65.1ZM106.275 59.5692C104.992 59.5692 103.948 60.6119 103.948 61.8935C103.948 63.1752 104.992 64.218 106.275 64.218C107.558 64.218 108.602 63.1752 108.602 61.8935C108.602 60.6119 107.558 59.5692 106.275 59.5692Z" fill="#1E1E1E"/>
<path d="M100.468 57.0173C100.722 54.4929 98.9175 52.2436 96.4294 51.9611L96.458 48.8483C96.4965 44.6733 93.1765 41.2649 89.0425 41.2355L77.5594 41.1537C74.447 41.1315 71.9005 43.6617 71.8715 46.8051L71.7426 60.8097C71.6968 65.7839 75.6524 69.8448 80.5777 69.8799L81.1093 69.8836L81.0379 77.6466L96.2061 77.7546L96.2907 68.5607L96.2766 68.5606L96.3446 61.1675C98.4786 60.9582 100.243 59.2535 100.468 57.0173Z" fill="white"/>
<path d="M129.98 95.8355L111.788 106.547L123.086 129.884C123.086 129.884 128.187 139.556 137.749 135.022C141.658 133.169 144.585 129.732 145.94 125.628L155.771 95.8355C155.771 95.8355 170.213 90.9382 172.354 78.3335C172.411 78.0551 172.462 77.6273 172.373 77.1217C172.229 76.2983 171.797 75.7475 171.582 75.5067C171.691 75.261 171.827 74.9113 171.935 74.4779C172.134 73.6781 172.324 72.8973 171.674 72.2343C171.103 71.6528 170.161 71.541 169.543 72.1019C169.693 71.282 169.466 70.5521 168.962 70.2415C168.67 70.0619 168.364 70.0759 168.273 70.0813C167.132 70.1493 166.301 71.7125 166.063 72.1481C165.095 73.9156 163.053 76.8974 160.03 81.079C160.03 81.079 164.382 75.1854 162.065 73.5632C161.374 73.0796 160.548 73.7574 160.093 74.237C159.252 75.1215 158.928 76.3395 158.303 77.352C157.509 78.6384 156.351 79.677 155.083 80.4823C153.041 81.779 150.78 82.4633 148.915 84.0477C148.071 84.7648 147.306 85.5773 146.664 86.4804C145.908 87.543 145.639 88.7975 144.986 89.8702C144.986 89.8702 134.873 106.397 134.873 106.397L129.98 95.8355Z" fill="white"/>
<path d="M132.813 136.669C126.258 136.669 122.738 130.171 122.695 130.09L111.213 106.374L130.176 95.2083L134.927 105.463L144.609 89.6401C144.884 89.189 145.087 88.7004 145.303 88.183C145.576 87.5286 145.858 86.8518 146.303 86.225C146.945 85.3232 147.727 84.4776 148.629 83.7118C149.795 82.7209 151.115 82.0678 152.391 81.436C153.209 81.031 154.055 80.6122 154.846 80.1102C156.195 79.253 157.232 78.2472 157.927 77.1208C158.146 76.7659 158.326 76.3839 158.517 75.9795C158.85 75.2724 159.195 74.5411 159.772 73.9335C161.02 72.6202 161.903 72.9117 162.318 73.2022C162.772 73.52 163.051 73.9806 163.148 74.5715C163.22 75.0108 163.181 75.5047 163.069 76.0204C164.31 74.2104 165.161 72.8755 165.675 71.9365L165.69 71.9089C165.986 71.368 166.885 69.7222 168.246 69.6411C168.684 69.6135 169.003 69.7492 169.193 69.8661C169.664 70.1559 169.956 70.7024 170.017 71.3557C170.687 71.1777 171.447 71.3732 171.989 71.9257C172.815 72.7672 172.565 73.7748 172.363 74.584C172.292 74.8708 172.201 75.1546 172.092 75.4309C172.379 75.8036 172.685 76.3437 172.808 77.0454C172.888 77.5004 172.881 77.9638 172.786 78.4225C171.894 83.6774 168.688 88.436 163.518 92.1687C160.116 94.625 156.958 95.8713 156.123 96.1784L146.359 125.766C144.951 130.032 141.882 133.551 137.938 135.421C136.066 136.309 134.355 136.669 132.813 136.669ZM112.362 106.721L123.483 129.692C123.489 129.702 124.749 132.051 127.12 133.818C130.252 136.153 133.764 136.424 137.56 134.624C141.286 132.857 144.188 129.528 145.52 125.49L155.42 95.4889L155.629 95.4181C155.77 95.3698 169.848 90.453 171.919 78.2597C171.994 77.8953 171.999 77.5433 171.938 77.1981C171.824 76.5493 171.503 76.0799 171.253 75.8004L171.063 75.5883L171.178 75.3286C171.315 75.0196 171.425 74.6977 171.506 74.3714C171.713 73.5416 171.816 73.0093 171.358 72.5431C170.977 72.1546 170.305 72.006 169.84 72.4283L168.873 73.3051L169.108 72.0224C169.224 71.3921 169.072 70.8273 168.73 70.6169C168.648 70.5666 168.506 70.5095 168.299 70.5213C167.72 70.556 167.103 71.165 166.466 72.3314L166.45 72.3596C165.536 74.0291 163.694 76.7599 160.484 81.2035C160.431 81.278 160.397 81.3251 160.385 81.3408L159.672 80.8208C159.72 80.7545 159.767 80.689 159.814 80.6236C160.706 79.3652 162.545 76.3521 162.276 74.7134C162.219 74.3611 162.067 74.1031 161.811 73.9244C161.372 73.6159 160.687 74.2528 160.413 74.5407C159.933 75.0454 159.633 75.6815 159.316 76.3553C159.123 76.764 158.924 77.1865 158.679 77.5835C157.913 78.8245 156.783 79.925 155.319 80.8544C154.489 81.3815 153.622 81.8109 152.783 82.2263C151.498 82.8624 150.285 83.4631 149.201 84.3837C148.355 85.1022 147.622 85.8936 147.024 86.7357C146.635 87.282 146.384 87.8843 146.118 88.5219C145.899 89.0471 145.673 89.5899 145.363 90.0992L134.819 107.331L129.784 96.4629L112.362 106.721H112.362Z" fill="#1E1E1E"/>
<path d="M95.817 58.7784C95.7557 58.7784 95.6943 58.7754 95.6324 58.7691C94.6383 58.6692 93.9107 57.7803 94.0106 56.7872C94.1105 55.7943 94.998 55.068 95.9948 55.1673C96.9887 55.2672 97.7163 56.1561 97.6167 57.149V57.1492C97.5682 57.63 97.3351 58.0635 96.9604 58.3695C96.6336 58.6363 96.2333 58.7784 95.817 58.7784ZM95.8129 56.0402C95.342 56.0402 94.9372 56.3977 94.8892 56.8755C94.838 57.3845 95.211 57.8404 95.7208 57.8914C96.2268 57.9425 96.6866 57.5702 96.738 57.0611C96.789 56.5519 96.4161 56.096 95.9064 56.045C95.8752 56.0417 95.8439 56.0402 95.8129 56.0402V56.0402Z" fill="#1E1E1E"/>
<path d="M81.3148 69.4441L90.3731 69.2301C90.6516 69.2235 90.7242 69.6117 90.4622 69.706L81.2856 73.0101L81.3148 69.4441Z" fill="#1E1E1E"/>
<path d="M94.4617 57.631C94.2375 57.631 94.0455 57.4611 94.0228 57.2335C93.9237 56.2363 94.3643 55.2576 95.1729 54.6797C96.3665 53.8261 97.6741 54.2977 97.8194 54.3543C98.0466 54.4428 98.1589 54.6984 98.0703 54.9254C97.9817 55.1521 97.726 55.2645 97.4986 55.176C97.4587 55.1603 96.5159 54.8039 95.687 55.3967C95.1344 55.7917 94.8336 56.4622 94.9016 57.1465C94.9257 57.3888 94.7485 57.6047 94.5059 57.6289C94.491 57.6304 94.4762 57.631 94.4617 57.631Z" fill="#1E1E1E"/>
<path d="M50.0003 94.546L68.1928 105.258L56.8948 128.595C56.8948 128.595 51.7936 138.267 42.2316 133.733C38.3231 131.88 35.3952 128.443 34.0409 124.339L24.2098 94.546C24.2098 94.546 9.76739 89.6486 7.62654 77.044C7.56919 76.7655 7.51833 76.3378 7.60722 75.8322C7.75199 75.0087 8.18326 74.4579 8.3984 74.2171C8.28968 73.9715 8.15348 73.6218 8.04567 73.1883C7.84678 72.3886 7.65628 71.6077 8.30687 70.9448C8.87759 70.3632 9.81981 70.2515 10.4379 70.8123C10.2874 69.9925 10.5142 69.2626 11.0189 68.9519C11.3107 68.7723 11.6169 68.7863 11.7079 68.7917C12.8483 68.8597 13.6794 70.423 13.9179 70.8586C14.8856 72.6261 16.9278 75.6079 19.9506 79.7895C19.9506 79.7895 15.5991 73.8959 17.9158 72.2737C18.6064 71.7901 19.4322 72.4679 19.8881 72.9474C20.7288 73.8319 21.0527 75.05 21.6774 76.0624C22.4712 77.3489 23.63 78.3874 24.898 79.1927C26.9396 80.4894 29.2003 81.1738 31.0656 82.7582C31.9098 83.4753 32.6747 84.2878 33.317 85.1908C34.0728 86.2534 34.3414 87.508 34.9948 88.5806C34.9948 88.5806 45.1073 105.107 45.1073 105.107L50.0003 94.546Z" fill="white"/>
<path d="M47.1676 135.379C45.6251 135.379 43.915 135.019 42.0422 134.131C38.0986 132.261 35.0293 128.742 33.6217 124.477L23.8582 94.8887C23.0223 94.5816 19.8646 93.3353 16.4625 90.879C11.2923 87.1465 8.08642 82.3879 7.1914 77.1177C7.09978 76.6743 7.09245 76.2111 7.17243 75.7559C7.29564 75.0546 7.60199 74.5143 7.8884 74.1414C7.77953 73.8653 7.68866 73.5815 7.6173 73.2947C7.41594 72.4853 7.16542 71.4777 7.99167 70.636C8.53344 70.0839 9.29275 69.8884 9.96334 70.0662C10.0246 69.4129 10.3161 68.8664 10.7874 68.5764C10.9775 68.4597 11.2961 68.3238 11.7341 68.3516C13.0953 68.4327 13.9946 70.0781 14.2901 70.619L14.3054 70.6468C14.8284 71.6022 15.6686 72.9222 16.9127 74.735C16.7996 74.2178 16.7606 73.7226 16.8327 73.282C16.9293 72.6911 17.2085 72.2303 17.6625 71.9125C18.0774 71.622 18.9604 71.3311 20.2083 72.6437C20.786 73.2516 21.1307 73.9827 21.4639 74.6898C21.6546 75.0944 21.8346 75.4762 22.0535 75.8309C22.7484 76.9575 23.7852 77.9633 25.135 78.8205C25.9252 79.3224 26.7713 79.7413 27.5895 80.1463C28.8657 80.7781 30.1852 81.4312 31.3517 82.4221C32.2536 83.1885 33.036 84.0341 33.6771 84.9355C34.1229 85.5621 34.4049 86.2389 34.6775 86.8932C34.8931 87.4107 35.0968 87.8995 35.372 88.3515L45.0535 104.174L49.8045 93.9186L68.7674 105.084L57.2925 128.787C57.244 128.879 53.7224 135.379 47.1675 135.379H47.1676ZM9.4801 70.8843C9.16092 70.8843 8.84282 71.0288 8.62227 71.2536C8.16469 71.7198 8.26795 72.2521 8.47427 73.0819C8.55544 73.4084 8.66582 73.7303 8.80229 74.0387L8.91731 74.2986L8.72802 74.5104C8.47805 74.7904 8.15606 75.2602 8.04212 75.9084C7.98154 76.2535 7.98726 76.6058 8.05916 76.9549C10.1347 89.1744 24.2099 94.0801 24.3519 94.1283L24.5603 94.199L34.4603 124.201C35.7928 128.238 38.6944 131.567 42.421 133.334C46.2267 135.139 49.7471 134.862 52.8841 132.511C55.2479 130.74 56.492 128.412 56.5043 128.389L67.6183 105.431L50.1963 95.1731L45.1613 106.041L34.6181 88.8105C34.3075 88.3004 34.0811 87.7574 33.8623 87.2322C33.5965 86.5946 33.3456 85.9923 32.9572 85.4462C32.3585 84.6043 31.6258 83.8129 30.7796 83.0939C29.6958 82.1734 28.4822 81.5726 27.1973 80.9365C26.3585 80.5212 25.491 80.0918 24.6611 79.5647C23.1977 78.6353 22.0674 77.5348 21.3017 76.2936C21.0568 75.8967 20.8576 75.4743 20.6651 75.0656C20.3475 74.392 20.0477 73.7557 19.5679 73.251C19.2943 72.9629 18.6101 72.3259 18.1693 72.6347C17.9139 72.8134 17.7619 73.0718 17.7042 73.4241C17.4364 75.0613 19.2662 78.0634 20.1601 79.3257C20.2094 79.3939 20.2587 79.4622 20.3087 79.5313L19.5954 80.0513C19.5838 80.0356 19.549 79.9882 19.4955 79.9129C16.2854 75.4687 14.4438 72.7381 13.5306 71.0701L13.515 71.0415C12.8777 69.8752 12.2609 69.2665 11.6817 69.2318C11.473 69.2208 11.3324 69.277 11.2506 69.3274C10.9086 69.5378 10.7566 70.1024 10.8723 70.7327L11.1078 72.0154L10.1411 71.1386C9.94502 70.9607 9.71229 70.8843 9.4801 70.8843Z" fill="#1E1E1E"/>
<path d="M73.7678 55.7425C74.2616 55.7425 74.6618 55.3427 74.6618 54.8495C74.6618 54.3563 74.2616 53.9565 73.7678 53.9565C73.274 53.9565 72.8738 54.3563 72.8738 54.8495C72.8738 55.3427 73.274 55.7425 73.7678 55.7425Z" fill="#1E1E1E"/>
<path d="M83.3584 55.5962C83.8521 55.5962 84.2524 55.1964 84.2524 54.7033C84.2524 54.2101 83.8521 53.8103 83.3584 53.8103C82.8646 53.8103 82.4644 54.2101 82.4644 54.7033C82.4644 55.1964 82.8646 55.5962 83.3584 55.5962Z" fill="#1E1E1E"/>
<path d="M77.3044 58.7976C77.2558 58.7976 77.2063 58.7894 77.1578 58.7724C76.4976 58.5403 75.8237 58.225 75.8324 57.6464C75.8363 57.3809 75.9909 57.2158 76.1151 57.0831C76.1607 57.0345 76.2157 56.9761 76.2767 56.8995C76.4946 56.6234 76.6259 56.2795 76.6625 55.8973L77.033 52.0267C77.0561 51.7843 77.2728 51.6101 77.5145 51.6297C77.7572 51.6529 77.9352 51.8683 77.9119 52.1107L77.5414 55.9813C77.4887 56.5323 77.2934 57.036 76.9764 57.4378C76.9064 57.5256 76.8474 57.5917 76.7963 57.6469C76.8978 57.7125 77.0913 57.814 77.451 57.9404C77.681 58.0213 77.8019 58.2731 77.7209 58.5028C77.657 58.6841 77.4865 58.7974 77.3044 58.7976Z" fill="#1E1E1E"/>
<path d="M78.6383 62.6522C77.6148 62.6522 76.7676 62.1094 76.7258 62.082C76.5216 61.9491 76.4639 61.6759 76.5971 61.4718C76.7303 61.2683 77.0033 61.2101 77.2071 61.3428C77.2228 61.3525 78.1332 61.9252 79.0269 61.7293C79.4886 61.6272 79.8802 61.3266 80.191 60.8357C80.3212 60.6296 80.5938 60.5682 80.8002 60.6985C81.0063 60.8286 81.0677 61.101 80.9374 61.3068C80.4946 62.0066 79.9133 62.439 79.21 62.5921C79.0162 62.6343 78.8243 62.6522 78.6383 62.6522H78.6383Z" fill="#1E1E1E"/>
<path d="M63.9206 130.659L60.0563 111.919C59.399 108.731 59.5663 105.429 60.5426 102.323L69.1736 74.8708H76.8733L78.638 78.7854C82.4281 87.1928 94.4419 87.0135 97.9788 78.4967L99.4845 74.8708H106.275L114.782 102.782C115.879 106.38 115.933 110.214 114.939 113.842L110.328 130.659H63.9206Z" fill="#6DC8C2"/>
<path d="M88.6425 47.5462H84.3778C81.6318 47.5462 79.4058 45.3228 79.4058 42.5801V39.3865H88.6425V47.5462Z" fill="#1E1E1E"/>
<path d="M106.275 74.8706L115.342 105.116L132.394 95.0681C130.16 90.9829 127.959 87.6499 126.128 85.0976C122.084 79.4614 119.99 76.6138 116.439 75.1664C112.666 73.6289 108.876 74.157 106.275 74.8706Z" fill="#1E1E1E"/>
<path d="M100.492 52.3565H92.832C89.7249 52.3565 87.2061 49.8407 87.2061 46.7372V44.1968H100.492V52.3565Z" fill="#1E1E1E"/>
<path d="M97.7863 39.3865H84.5842V47.5462H97.7863V39.3865Z" fill="#1E1E1E"/>
<path d="M104.12 83.0916C109.921 83.0916 114.624 78.3948 114.624 72.601C114.624 66.8072 109.921 62.1104 104.12 62.1104C98.3196 62.1104 93.6172 66.8072 93.6172 72.601C93.6172 78.3948 98.3196 83.0916 104.12 83.0916Z" fill="#1E1E1E"/>
<path d="M96.4427 90.4056C100.738 90.4056 104.219 86.928 104.219 82.6382C104.219 78.3484 100.738 74.8708 96.4427 74.8708C92.1478 74.8708 88.666 78.3484 88.666 82.6382C88.666 86.928 92.1478 90.4056 96.4427 90.4056Z" fill="#1E1E1E"/>
<path d="M110.406 90.8465C114.701 90.8465 118.182 87.3689 118.182 83.0791C118.182 78.7893 114.701 75.3118 110.406 75.3118C106.111 75.3118 102.629 78.7893 102.629 83.0791C102.629 87.3689 106.111 90.8465 110.406 90.8465Z" fill="#1E1E1E"/>
<path d="M94.5562 117.192H80.892C76.6542 117.192 73.2065 113.748 73.2065 109.516V100.285C73.2065 98.2302 74.8801 96.5588 76.937 96.5588H98.5112C100.568 96.5588 102.242 98.2302 102.242 100.285V109.516C102.242 113.748 98.7938 117.192 94.5562 117.192ZM76.937 97.4408C75.367 97.4408 74.0896 98.7167 74.0896 100.285V109.516C74.0896 113.262 77.1412 116.31 80.892 116.31H94.5562C98.307 116.31 101.358 113.262 101.358 109.516V100.285C101.358 98.7167 100.081 97.4408 98.5112 97.4408H76.937Z" fill="white"/>
<path d="M102.629 100.978C106.924 100.978 110.406 97.5005 110.406 93.2107C110.406 88.9209 106.924 85.4434 102.629 85.4434C98.334 85.4434 94.8523 88.9209 94.8523 93.2107C94.8523 97.5005 98.334 100.978 102.629 100.978Z" fill="#1E1E1E"/>
<path d="M129.915 114.153C129.83 114.153 129.744 114.128 129.668 114.077C129.466 113.94 129.413 113.666 129.55 113.464L134.507 106.15C134.644 105.948 134.919 105.895 135.121 106.032C135.323 106.168 135.375 106.442 135.239 106.644L130.281 113.959C130.195 114.085 130.056 114.153 129.915 114.153Z" fill="#1E1E1E"/>
<path d="M166.778 84.8699C166.658 84.8699 166.539 84.8215 166.452 84.7261C166.287 84.5463 166.3 84.2672 166.48 84.1031C169.197 81.6275 171.067 75.6085 171.085 75.548C171.157 75.3152 171.404 75.1854 171.637 75.2556C171.87 75.3269 172.001 75.5734 171.93 75.8064C171.851 76.0627 169.971 82.1158 167.075 84.7547C166.991 84.8318 166.884 84.8699 166.778 84.8699Z" fill="#1E1E1E"/>
<path d="M164.037 82.4811C163.909 82.4811 163.782 82.4253 163.694 82.3179C163.541 82.1288 163.57 81.851 163.759 81.6977C166.275 79.659 169.1 72.0266 169.128 71.9497C169.212 71.7208 169.466 71.6041 169.695 71.6876C169.924 71.7716 170.041 72.0251 169.957 72.2535C169.839 72.5767 167.019 80.1915 164.315 82.3825C164.234 82.4488 164.135 82.4811 164.037 82.4811V82.4811Z" fill="#1E1E1E"/>
<path d="M50.0658 112.863C49.9241 112.863 49.7851 112.795 49.6997 112.669L44.7417 105.354C44.605 105.153 44.6579 104.878 44.8598 104.742C45.0617 104.605 45.3364 104.658 45.473 104.86L50.431 112.175C50.5677 112.376 50.5147 112.651 50.3128 112.787C50.2371 112.838 50.1509 112.863 50.0658 112.863Z" fill="#1E1E1E"/>
<path d="M13.2027 83.5804C13.0964 83.5804 12.9899 83.5423 12.9052 83.4652C10.0093 80.8263 8.12957 74.7732 8.05099 74.5169C7.97952 74.284 8.11071 74.0374 8.34376 73.9661C8.57692 73.8944 8.82377 74.0258 8.89524 74.2585C8.91388 74.3191 10.7835 80.338 13.5004 82.8136C13.6806 82.9777 13.6934 83.2568 13.529 83.4366C13.4419 83.532 13.3225 83.5804 13.2027 83.5804H13.2027Z" fill="#1E1E1E"/>
<path d="M15.9432 81.1917C15.8454 81.1917 15.747 81.1594 15.6652 81.0931C12.9611 78.9019 10.1422 71.2872 10.0235 70.964C9.93944 70.7355 10.0569 70.4821 10.2859 70.3981C10.5141 70.3145 10.7684 70.4314 10.8525 70.6601C10.8807 70.737 13.7056 78.3694 16.2216 80.4084C16.4109 80.5617 16.4399 80.8394 16.2863 81.0285C16.199 81.136 16.0716 81.1917 15.9432 81.1917V81.1917Z" fill="#1E1E1E"/>
<path d="M86.6012 176C86.3574 176 86.1597 175.803 86.1597 175.559V154.216C86.1597 153.972 86.3574 153.775 86.6012 153.775C86.845 153.775 87.0427 153.972 87.0427 154.216V175.559C87.0427 175.803 86.845 176 86.6012 176Z" fill="white"/>
<path d="M86.6012 141.304C86.3574 141.304 86.1597 141.106 86.1597 140.863V130.659C86.1597 130.416 86.3574 130.218 86.6012 130.218C86.845 130.218 87.0427 130.416 87.0427 130.659V140.863C87.0427 141.106 86.845 141.304 86.6012 141.304Z" fill="white"/>
<path d="M114.097 142.027C114.071 142.027 114.046 142.025 114.02 142.02C108.564 141.063 105.72 138.042 104.294 135.676C102.751 133.114 102.503 130.801 102.493 130.703C102.468 130.461 102.645 130.245 102.888 130.22C103.134 130.197 103.347 130.373 103.371 130.614C103.374 130.637 103.617 132.857 105.071 135.253C107.008 138.447 110.07 140.432 114.172 141.152C114.413 141.194 114.573 141.422 114.531 141.662C114.493 141.876 114.307 142.027 114.097 142.027Z" fill="white"/>
<path d="M60.9672 142.614C60.3359 142.614 59.6792 142.57 58.9979 142.483C58.7561 142.452 58.585 142.232 58.6159 141.99C58.6469 141.749 58.8685 141.578 59.1098 141.608C62.3939 142.028 65.0388 141.372 66.9705 139.66C70.5402 136.498 70.5389 130.721 70.5384 130.662C70.5366 130.419 70.7327 130.22 70.9764 130.218H70.9801C71.2222 130.218 71.4193 130.413 71.4215 130.655C71.4236 130.908 71.4306 136.884 67.5606 140.316C65.8382 141.844 63.6263 142.614 60.9672 142.614Z" fill="white"/>
<path d="M47.3657 94.2002L60.6865 101.866L69.1736 74.8707C69.1736 74.8707 57.4043 71.5932 47.3657 94.2002Z" fill="#1E1E1E"/>
<path d="M52.856 67.1512H18.6412C15.0759 67.1512 12.1753 64.2541 12.1753 60.693V33.3432C12.1753 29.7821 15.0759 26.885 18.6412 26.885H52.856C56.4213 26.885 59.3219 29.7821 59.3219 33.3432V60.693C59.3219 64.2541 56.4213 67.1512 52.856 67.1512ZM18.6412 27.767C15.5628 27.767 13.0583 30.2685 13.0583 33.3432V60.693C13.0583 63.7677 15.5628 66.2692 18.6412 66.2692H52.856C55.9344 66.2692 58.4389 63.7677 58.4389 60.693V33.3432C58.4389 30.2685 55.9344 27.767 52.856 27.767H18.6412Z" fill="#1E1E1E"/>
<path d="M55.4065 42.4892H43.8334C43.5895 42.4892 43.3918 42.2917 43.3918 42.0482C43.3918 41.8046 43.5895 41.6072 43.8334 41.6072H55.4065C55.6503 41.6072 55.848 41.8046 55.848 42.0482C55.848 42.2917 55.6503 42.4892 55.4065 42.4892Z" fill="#1E1E1E"/>
<path d="M55.4065 47.0446H43.8334C43.5895 47.0446 43.3918 46.8471 43.3918 46.6036C43.3918 46.3601 43.5895 46.1626 43.8334 46.1626H55.4065C55.6503 46.1626 55.848 46.3601 55.848 46.6036C55.848 46.8471 55.6503 47.0446 55.4065 47.0446Z" fill="#1E1E1E"/>
<path d="M52.3951 51.5998H43.8334C43.5895 51.5998 43.3918 51.4023 43.3918 51.1588C43.3918 50.9152 43.5895 50.7178 43.8334 50.7178H52.3951C52.6389 50.7178 52.8366 50.9152 52.8366 51.1588C52.8366 51.4023 52.6389 51.5998 52.3951 51.5998Z" fill="#1E1E1E"/>
<path d="M37.2084 55.9305H22.0738L20.6953 51.0903H38.1374L37.2084 55.9305ZM22.7406 55.0485H36.4786L37.069 51.9723H21.8647L22.7406 55.0485Z" fill="#1E1E1E"/>
<path d="M29.7972 55.9305C29.5534 55.9305 29.3557 55.7331 29.3557 55.4895V51.5313C29.3557 51.2878 29.5534 51.0903 29.7972 51.0903C30.0411 51.0903 30.2388 51.2878 30.2388 51.5313V55.4895C30.2388 55.7331 30.0411 55.9305 29.7972 55.9305Z" fill="#1E1E1E"/>
<path d="M36.403 56.6989C37.0659 56.6989 37.6033 56.1574 37.6033 55.4894C37.6033 54.8213 37.0659 54.2798 36.403 54.2798C35.74 54.2798 35.2026 54.8213 35.2026 55.4894C35.2026 56.1574 35.74 56.6989 36.403 56.6989Z" fill="#1E1E1E"/>
<path d="M29.7882 56.6989C30.457 56.6989 30.9992 56.1574 30.9992 55.4894C30.9992 54.8213 30.457 54.2798 29.7882 54.2798C29.1193 54.2798 28.5771 54.8213 28.5771 55.4894C28.5771 56.1574 29.1193 56.6989 29.7882 56.6989Z" fill="#1E1E1E"/>
<path d="M22.8661 56.6989C23.5284 56.6989 24.0652 56.1574 24.0652 55.4894C24.0652 54.8213 23.5284 54.2798 22.8661 54.2798C22.2039 54.2798 21.667 54.8213 21.667 55.4894C21.667 56.1574 22.2039 56.6989 22.8661 56.6989Z" fill="#1E1E1E"/>
<path d="M18.9475 43.2072C18.8142 43.2072 18.6824 43.1472 18.5956 43.0328L16.1132 39.7669C15.8775 39.4519 15.841 39.0412 16.0159 38.6924C16.191 38.3436 16.5423 38.127 16.9329 38.127H24.4837C25.0757 38.127 25.6314 38.411 25.9777 38.8888L29.391 42.4495C29.5597 42.6254 29.5536 42.9045 29.3775 43.0729C29.2011 43.2413 28.9216 43.2355 28.7533 43.0593L25.2735 39.4217C25.0941 39.1633 24.7988 39.009 24.4837 39.009H16.9329C16.8563 39.009 16.8202 39.0583 16.8054 39.0875C16.7908 39.1168 16.7729 39.1752 16.8186 39.2363L19.2988 42.4997C19.4463 42.6935 19.4084 42.9702 19.2142 43.1175C19.1343 43.178 19.0405 43.2072 18.9475 43.2072L18.9475 43.2072Z" fill="#1E1E1E"/>
<path d="M29.7974 52.0595H38.0405L40.0971 42.8379C40.2355 42.2174 39.7567 41.6296 39.1128 41.6296H29.7974V52.0595Z" fill="#C7B8F8"/>
<path d="M20.8684 52.0595H29.7973V41.6296H18.7624C18.054 41.6296 17.5549 42.3213 17.782 42.9885L20.8684 52.0595L20.8684 52.0595Z" fill="#C7B8F8"/>
<path d="M29.7972 50.8316C29.5534 50.8316 29.3557 50.6341 29.3557 50.3906V42.7603C29.3557 42.5168 29.5534 42.3193 29.7972 42.3193C30.0411 42.3193 30.2388 42.5168 30.2388 42.7603V50.3906C30.2388 50.6341 30.0411 50.8316 29.7972 50.8316Z" fill="#1E1E1E"/>
<path d="M26.3273 140.53H12.1526C10.6773 140.53 9.47705 139.331 9.47705 137.858V123.7C9.47705 122.227 10.6773 121.028 12.1526 121.028H26.3273C27.8026 121.028 29.0028 122.227 29.0028 123.7V137.858C29.0028 139.331 27.8026 140.53 26.3273 140.53ZM12.1526 121.91C11.1642 121.91 10.3601 122.713 10.3601 123.7V137.858C10.3601 138.845 11.1642 139.648 12.1526 139.648H26.3273C27.3156 139.648 28.1198 138.845 28.1198 137.858V123.7C28.1198 122.713 27.3156 121.91 26.3273 121.91H12.1526H12.1526Z" fill="#1E1E1E"/>
<path d="M16.0384 129.233C14.8124 129.233 13.8149 128.237 13.8149 127.012C13.8149 125.788 14.8124 124.792 16.0384 124.792C17.2645 124.792 18.262 125.788 18.262 127.012C18.262 128.237 17.2645 129.233 16.0384 129.233ZM16.0384 125.673C15.2993 125.673 14.698 126.274 14.698 127.012C14.698 127.751 15.2993 128.351 16.0384 128.351C16.7776 128.351 17.379 127.751 17.379 127.012C17.379 126.274 16.7776 125.673 16.0384 125.673Z" fill="#1E1E1E"/>
<path d="M22.4414 136.058C21.2153 136.058 20.2178 135.062 20.2178 133.837C20.2178 132.613 21.2153 131.616 22.4414 131.616C23.6674 131.616 24.6648 132.613 24.6648 133.837C24.6648 135.062 23.6674 136.058 22.4414 136.058ZM22.4414 132.498C21.7022 132.498 21.1008 133.099 21.1008 133.837C21.1008 134.576 21.7022 135.176 22.4414 135.176C23.1805 135.176 23.7818 134.576 23.7818 133.837C23.7818 133.099 23.1805 132.498 22.4414 132.498Z" fill="#1E1E1E"/>
<path d="M15.0286 137.366C14.9511 137.366 14.8725 137.345 14.8012 137.302C14.5923 137.177 14.525 136.906 14.6508 136.697L22.0632 124.405C22.1891 124.197 22.4606 124.13 22.6693 124.255C22.8782 124.381 22.9455 124.652 22.8197 124.861L15.4073 137.152C15.3244 137.29 15.1783 137.366 15.0286 137.366Z" fill="#1E1E1E"/>
<path d="M183.665 144.581H164.448C161.73 144.581 159.518 142.372 159.518 139.657V101.693C159.518 98.9779 161.73 96.769 164.448 96.769H183.665C186.383 96.769 188.594 98.9779 188.594 101.693V139.657C188.594 142.372 186.383 144.581 183.665 144.581ZM164.448 97.651C162.217 97.651 160.401 99.4641 160.401 101.693V139.657C160.401 141.886 162.217 143.699 164.448 143.699H183.665C185.896 143.699 187.711 141.886 187.711 139.657V101.693C187.711 99.4641 185.896 97.651 183.665 97.651H164.448Z" fill="#1E1E1E"/>
<path d="M179.921 125.08H168.191C167.062 125.08 166.147 125.994 166.147 127.122V134.197C166.147 135.325 167.062 136.239 168.191 136.239H179.921C181.05 136.239 181.966 135.325 181.966 134.197V127.122C181.966 125.994 181.05 125.08 179.921 125.08Z" fill="#C7B8F8"/>
<path d="M181.554 129.524H166.592C166.349 129.524 166.151 129.326 166.151 129.083C166.151 128.839 166.349 128.642 166.592 128.642H181.554C181.798 128.642 181.996 128.839 181.996 129.083C181.996 129.326 181.798 129.524 181.554 129.524Z" fill="#1E1E1E"/>
<path d="M171.205 134.863H169.286C168.42 134.863 167.714 134.158 167.714 133.292C167.714 132.426 168.42 131.722 169.286 131.722H171.205C172.072 131.722 172.777 132.426 172.777 133.292C172.777 134.158 172.072 134.863 171.205 134.863ZM169.286 132.604C168.907 132.604 168.597 132.913 168.597 133.292C168.597 133.672 168.907 133.981 169.286 133.981H171.205C171.585 133.981 171.894 133.672 171.894 133.292C171.894 132.913 171.585 132.604 171.205 132.604H169.286Z" fill="#1E1E1E"/>
<path d="M180.585 105.287H167.5C166.371 105.287 165.456 106.202 165.456 107.33V114.404C165.456 115.532 166.371 116.447 167.5 116.447H180.585C181.715 116.447 182.63 115.532 182.63 114.404V107.33C182.63 106.202 181.715 105.287 180.585 105.287Z" fill="#6DC8C2"/>
<path d="M174.043 113.687C172.482 113.687 171.212 112.419 171.212 110.86C171.212 109.301 172.482 108.033 174.043 108.033C175.603 108.033 176.873 109.301 176.873 110.86C176.873 112.419 175.603 113.687 174.043 113.687ZM174.043 108.915C172.969 108.915 172.095 109.787 172.095 110.86C172.095 111.932 172.969 112.805 174.043 112.805C175.117 112.805 175.99 111.932 175.99 110.86C175.99 109.787 175.117 108.915 174.043 108.915Z" fill="#1E1E1E"/>
<path d="M167.074 113.687H165.455V112.805H167.074C168.042 112.805 168.829 112.018 168.829 111.051C168.829 110.085 168.042 109.298 167.074 109.298H165.455V108.416H167.074C168.529 108.416 169.712 109.598 169.712 111.051C169.712 112.505 168.529 113.687 167.074 113.687Z" fill="#1E1E1E"/>
<path d="M182.657 113.699H181.039C179.584 113.699 178.4 112.517 178.4 111.064C178.4 109.611 179.584 108.428 181.039 108.428H182.657V109.31H181.039C180.071 109.31 179.283 110.097 179.283 111.064C179.283 112.031 180.071 112.817 181.039 112.817H182.657V113.699Z" fill="#1E1E1E"/>
<path d="M185.616 68.7302H131.508C127.989 68.7302 125.125 65.87 125.125 62.3543V29.2392C125.125 25.7235 127.989 22.8633 131.508 22.8633H185.616C189.136 22.8633 192 25.7235 192 29.2392V62.3543C192 65.87 189.136 68.7302 185.616 68.7302V68.7302ZM131.508 23.7453C128.475 23.7453 126.008 26.2099 126.008 29.2392V62.3543C126.008 65.3835 128.475 67.8482 131.508 67.8482H185.616C188.649 67.8482 191.117 65.3835 191.117 62.3543V29.2392C191.117 26.2099 188.649 23.7453 185.616 23.7453H131.508Z" fill="#1E1E1E"/>
<path d="M153.281 31.7361H136.298C134.548 31.7361 133.129 33.1531 133.129 34.901V54.8199C133.129 56.5679 134.548 57.9849 136.298 57.9849H153.281C155.031 57.9849 156.45 56.5679 156.45 54.8199V34.901C156.45 33.1531 155.031 31.7361 153.281 31.7361Z" fill="#C7B8F8"/>
<path d="M145.231 45.7966H144.348V57.9848H145.231V45.7966Z" fill="#1E1E1E"/>
<path d="M166.688 32.2878H162.575C161.96 32.2878 161.461 32.7861 161.461 33.4008V37.5086C161.461 38.1232 161.96 38.6215 162.575 38.6215H166.688C167.303 38.6215 167.802 38.1232 167.802 37.5086V33.4008C167.802 32.7861 167.303 32.2878 166.688 32.2878Z" fill="#6DC8C2"/>
<path d="M175.582 32.2878H171.469C170.854 32.2878 170.355 32.7861 170.355 33.4008V37.5086C170.355 38.1232 170.854 38.6215 171.469 38.6215H175.582C176.197 38.6215 176.696 38.1232 176.696 37.5086V33.4008C176.696 32.7861 176.197 32.2878 175.582 32.2878Z" fill="#6DC8C2"/>
<path d="M184.476 32.2878H180.363C179.748 32.2878 179.249 32.7861 179.249 33.4008V37.5086C179.249 38.1232 179.748 38.6215 180.363 38.6215H184.476C185.091 38.6215 185.59 38.1232 185.59 37.5086V33.4008C185.59 32.7861 185.091 32.2878 184.476 32.2878Z" fill="#6DC8C2"/>
<path d="M185.59 44.8305H161.901C161.657 44.8305 161.459 44.633 161.459 44.3895C161.459 44.1459 161.657 43.9485 161.901 43.9485H185.59C185.834 43.9485 186.032 44.1459 186.032 44.3895C186.032 44.633 185.834 44.8305 185.59 44.8305Z" fill="#1E1E1E"/>
<path d="M185.59 49.4982H161.901C161.657 49.4982 161.459 49.3007 161.459 49.0572C161.459 48.8137 161.657 48.6162 161.901 48.6162H185.59C185.834 48.6162 186.032 48.8137 186.032 49.0572C186.032 49.3007 185.834 49.4982 185.59 49.4982Z" fill="#1E1E1E"/>
<path d="M177.347 54.1657H161.901C161.657 54.1657 161.459 53.9682 161.459 53.7247C161.459 53.4811 161.657 53.2837 161.901 53.2837H177.347C177.59 53.2837 177.788 53.4811 177.788 53.7247C177.788 53.9682 177.59 54.1657 177.347 54.1657Z" fill="#1E1E1E"/>
<path d="M149.187 45.7968H140.339C139.95 45.7968 139.635 45.4816 139.635 45.0928V40.6235C139.635 40.4023 139.814 40.2229 140.036 40.2229H149.49C149.712 40.2229 149.891 40.4023 149.891 40.6235V45.0928C149.891 45.4816 149.576 45.7968 149.187 45.7968Z" fill="#FFBB45"/>
<path d="M144.763 41.824C147.595 41.824 149.891 41.1072 149.891 40.2228C149.891 39.3385 147.595 38.6216 144.763 38.6216C141.931 38.6216 139.635 39.3385 139.635 40.2228C139.635 41.1072 141.931 41.824 144.763 41.824Z" fill="#1E1E1E"/>
<path d="M109.636 131.1H64.6095C64.3657 131.1 64.168 130.903 64.168 130.659C64.168 130.416 64.3657 130.218 64.6095 130.218H109.636C109.88 130.218 110.077 130.416 110.077 130.659C110.077 130.903 109.88 131.1 109.636 131.1Z" fill="white"/>
</g>
<defs>
<clipPath id="clip0_535_3820">
<rect width="192" height="176" fill="white"/>
</clipPath>
</defs>
</svg>
