<svg width="183" height="176" viewBox="0 0 183 176" fill="none" xmlns="http://www.w3.org/2000/svg">
<g clip-path="url(#clip0_535_3324)">
<path d="M171.098 160.545L160.42 13.3692C159.619 2.31973 147.156 -3.71843 137.988 2.50056L15.8686 85.3354C6.70025 91.5544 7.70229 105.366 17.6723 110.197L150.469 174.538C160.439 179.368 171.899 171.595 171.098 160.545H171.098Z" fill="#6DC8C2"/>
<path d="M106.157 79.0285C98.0989 78.7644 91.3663 72.5873 90.2274 64.4136L87.3719 43.9205L98.1115 42.424C98.9208 42.3277 102.309 42.0195 105.35 44.3716C106.56 45.3078 107.578 46.5726 108.453 48.461C110.165 52.1573 117.412 71.323 109.487 77.494C108.813 78.0181 107.755 78.663 106.157 79.0285V79.0285Z" fill="black"/>
<path d="M140.583 174.811H76.0498L70.8359 96.2118C78.1343 93.019 87.7028 89.6338 99.223 87.5125C113.173 84.9438 124.227 84.8481 134.215 86.0881C136.342 115.725 138.456 145.173 140.583 174.811Z" fill="black"/>
<path d="M105.561 78.2616L103.007 71.241C105.526 71.1391 107.54 68.9495 107.54 66.256C107.54 63.4975 105.429 61.2613 102.825 61.2613C101.673 61.2613 100.619 61.7003 99.7997 62.4274L94.9841 49.1934L75.2367 55.5497C71.3913 56.7875 69.2774 60.9083 70.5152 64.7538L75.865 81.3741C77.5551 86.6248 83.1817 89.5112 88.4324 87.8211L91.3041 86.5374C92.1045 88.2478 92.9049 89.9582 93.7054 91.6686C93.8105 91.8933 93.9873 92.0793 94.211 92.1867C98.3821 94.1899 103.036 93.7009 105.901 91.0285C107.879 89.1831 108.975 87.5225 109.29 86.4377C109.363 86.1847 109.329 85.9125 109.213 85.6762L105.561 78.2616H105.561Z" fill="white"/>
<path d="M91.304 86.5467L99.9598 82.5957C100.232 82.4713 100.478 82.8122 100.274 83.0313L93.2061 90.6112L91.304 86.5467V86.5467Z" fill="black"/>
<path d="M102.426 68.3208C101.494 68.3208 100.737 67.563 100.737 66.6315C100.737 65.7001 101.494 64.9424 102.426 64.9424C103.357 64.9424 104.115 65.7001 104.115 66.6315C104.115 67.563 103.357 68.3208 102.426 68.3208ZM102.426 65.8726C102.007 65.8726 101.667 66.213 101.667 66.6315C101.667 67.0501 102.007 67.3906 102.426 67.3906C102.845 67.3906 103.185 67.0501 103.185 66.6315C103.185 66.213 102.845 65.8726 102.426 65.8726Z" fill="black"/>
<path d="M101.235 67.3798C101.003 67.3799 100.802 67.2055 100.774 66.9686C100.656 65.9623 100.886 65.1469 101.457 64.5451C102.532 63.4123 104.415 63.5185 104.496 63.5231C104.752 63.5395 104.947 63.7605 104.93 64.0169C104.914 64.2727 104.697 64.4698 104.437 64.4515C104.422 64.4508 102.902 64.3703 102.13 65.1878C101.754 65.5854 101.613 66.1326 101.698 66.8607C101.728 67.1159 101.545 67.3468 101.29 67.3766C101.272 67.3787 101.253 67.3798 101.235 67.3798Z" fill="black"/>
<path d="M84.099 80.4055C83.0691 80.4055 82.3799 80.0176 82.3651 80.009C82.1432 79.8794 82.0685 79.5946 82.1982 79.3727C82.3272 79.1517 82.6111 79.0766 82.8318 79.2043C82.9369 79.2636 85.3299 80.5582 87.7796 77.0999C87.9279 76.8903 88.2177 76.8407 88.428 76.9891C88.6376 77.1376 88.6871 77.4279 88.5386 77.6375C86.9484 79.8827 85.2942 80.4055 84.099 80.4055H84.099Z" fill="black"/>
<path d="M86.9538 67.9528C87.5159 67.9528 87.9715 67.4971 87.9715 66.935C87.9715 66.3729 87.5159 65.9172 86.9538 65.9172C86.3917 65.9172 85.936 66.3729 85.936 66.935C85.936 67.4971 86.3917 67.9528 86.9538 67.9528Z" fill="black"/>
<path d="M75.032 72.2684C75.5941 72.2684 76.0498 71.8128 76.0498 71.2507C76.0498 70.6886 75.5941 70.2329 75.032 70.2329C74.47 70.2329 74.0143 70.6886 74.0143 71.2507C74.0143 71.8128 74.47 72.2684 75.032 72.2684Z" fill="black"/>
<path d="M74.7733 76.8268C72.4365 76.827 70.2663 74.9419 69.7047 72.2564C69.0727 69.2325 70.7164 66.3212 73.369 65.7668C74.6666 65.4957 76.0035 65.8205 77.1336 66.6811C78.2437 67.5267 79.0224 68.7924 79.326 70.2451C79.6296 71.6977 79.4232 73.1693 78.7449 74.3888C78.0543 75.6303 76.9594 76.4634 75.662 76.7347C75.3652 76.7968 75.0679 76.8266 74.7733 76.8268ZM74.2642 66.6043C74.0287 66.6043 73.793 66.6284 73.5593 66.6772C71.4089 67.1269 70.0883 69.5442 70.6154 72.0661C71.1427 74.5877 73.3213 76.274 75.4717 75.8242C76.5009 75.609 77.3745 74.9386 77.9321 73.9366C78.5016 72.9125 78.6733 71.6691 78.4153 70.4354C78.1576 69.2017 77.5022 68.1311 76.5699 67.4211C75.865 66.8841 75.0658 66.6043 74.2642 66.6043H74.2642Z" fill="black"/>
<path d="M79.269 70.4255C79.0726 70.4255 78.89 70.3001 78.8264 70.103C78.7476 69.8587 78.8818 69.5965 79.1262 69.5177L83.3252 68.1632C83.5696 68.0843 83.8319 68.2185 83.9107 68.4631C83.9895 68.7075 83.8553 68.9697 83.6109 69.0485L79.4119 70.4029C79.3644 70.4182 79.3163 70.4255 79.269 70.4255Z" fill="black"/>
<path d="M81.3559 75.3916C80.8656 75.3916 80.4003 75.2052 80.0966 74.8445C79.6211 74.2802 79.7104 73.5061 79.9313 73.0147C80.115 72.606 80.4107 72.3443 80.6653 72.1835L78.7518 67.078C78.6616 66.8374 78.7835 66.5693 79.024 66.4792C79.2648 66.3889 79.5328 66.511 79.6229 66.7514L81.8535 72.7032L81.3959 72.8558C81.293 72.8902 80.944 73.0308 80.7798 73.3962C80.6971 73.5801 80.5965 73.9943 80.8079 74.2452C81.0128 74.4883 81.5097 74.5706 81.9561 74.2792C82.1712 74.1383 82.4594 74.1992 82.6 74.4142C82.7403 74.6293 82.6799 74.9174 82.4648 75.0579C82.1215 75.2822 81.7313 75.3916 81.3559 75.3916V75.3916Z" fill="black"/>
<path d="M84.943 57.1665C90.8285 55.9361 94.861 51.4057 93.9499 47.0476C93.0388 42.6895 87.5291 40.154 81.6436 41.3844C75.7582 42.6149 71.7257 47.1452 72.6368 51.5033C73.5479 55.8614 79.0576 58.3969 84.943 57.1665Z" fill="black"/>
<path d="M102.9 57.1996L97.0647 58.7154C93.7578 59.5745 90.3806 57.59 89.5216 54.2831L88.2919 49.5493L100.115 46.478L102.9 57.1996V57.1996Z" fill="black"/>
<path d="M70.1393 63.1405C74.5375 63.1405 78.1029 59.5751 78.1029 55.1769C78.1029 50.7788 74.5375 47.2134 70.1393 47.2134C65.7412 47.2134 62.1758 50.7788 62.1758 55.1769C62.1758 59.5751 65.7412 63.1405 70.1393 63.1405Z" fill="black"/>
<path d="M91.8542 65.9079C91.6696 65.9079 91.495 65.7973 91.4223 65.6155C91.3267 65.3771 91.4427 65.1064 91.6812 65.0109L100.388 61.5266C100.627 61.4317 100.897 61.5473 100.992 61.7856C101.088 62.0241 100.972 62.2948 100.733 62.3903L92.0268 65.8745C91.9701 65.8971 91.9117 65.9079 91.8542 65.9079Z" fill="black"/>
<path d="M58.977 140.024L56.9424 167.2L57.6547 173.866H75.9873L73.8053 140.973L58.977 140.024Z" fill="white"/>
<path d="M76.4842 174.331H57.2366L56.4753 167.208L58.5476 139.531L74.2425 140.535L76.4842 174.331H76.4842ZM58.0728 173.401H75.4904L73.3681 141.411L59.4065 140.518L57.4092 167.193L58.0728 173.401V173.401Z" fill="black"/>
<path d="M70.836 96.2117C70.2842 96.4346 69.484 96.7975 68.5931 97.3595C63.2667 100.719 61.512 106.896 60.1646 112.92C58.7316 119.326 56.6229 134.065 55.8834 145.511C61.6595 145.881 68.4038 146.25 74.1798 146.619L70.836 96.2117H70.836Z" fill="black"/>
<path d="M65.6839 119.054H9.91737C9.66052 119.054 9.45227 118.846 9.45227 118.589C9.45227 118.332 9.66052 118.124 9.91737 118.124H65.6839C65.9408 118.124 66.149 118.332 66.149 118.589C66.149 118.846 65.9408 119.054 65.6839 119.054H65.6839Z" fill="black"/>
<path d="M38.254 118.802H15.1093C14.1394 118.802 13.3502 118.013 13.3502 117.043V113.75C13.3502 112.78 14.1394 111.99 15.1093 111.99H38.254C39.2239 111.99 40.0131 112.78 40.0131 113.75V117.043C40.0131 118.013 39.2239 118.802 38.254 118.802ZM15.1093 112.921C14.6522 112.921 14.2804 113.292 14.2804 113.75V117.043C14.2804 117.5 14.6522 117.872 15.1093 117.872H38.254C38.7111 117.872 39.0829 117.5 39.0829 117.043V113.75C39.0829 113.292 38.7111 112.921 38.254 112.921H15.1093V112.921Z" fill="black"/>
<path d="M38.2538 106.202H15.1093C14.3946 106.202 13.8152 106.782 13.8152 107.497V110.79C13.8152 111.504 14.3946 112.084 15.1093 112.084H38.2538C38.9686 112.084 39.548 111.504 39.548 110.79V107.497C39.548 106.782 38.9686 106.202 38.2538 106.202Z" fill="#FFBB45"/>
<path d="M44.3289 118.683H41.036C40.0658 118.683 39.2766 117.894 39.2766 116.924V97.7608C39.2766 96.7906 40.0658 96.0015 41.036 96.0015H44.3289C45.2991 96.0015 46.0882 96.7906 46.0882 97.7608V116.924C46.0882 117.894 45.2991 118.683 44.3289 118.683ZM41.036 96.9317C40.5788 96.9317 40.2068 97.3037 40.2068 97.7608V116.924C40.2068 117.382 40.5788 117.753 41.036 117.753H44.3289C44.786 117.753 45.158 117.382 45.158 116.924V97.7608C45.158 97.3037 44.786 96.9317 44.3289 96.9317H41.036Z" fill="black"/>
<path d="M50.6231 96.4666H47.33C46.6153 96.4666 46.0359 97.046 46.0359 97.7607V116.924C46.0359 117.639 46.6153 118.218 47.33 118.218H50.6231C51.3378 118.218 51.9172 117.639 51.9172 116.924V97.7607C51.9172 97.046 51.3378 96.4666 50.6231 96.4666Z" fill="#FFC1EB"/>
<path d="M99.3982 99.1509C95.213 99.1509 92.0123 97.3956 90.7049 96.5426C90.4898 96.4023 90.4292 96.1141 90.5695 95.899C90.7096 95.6837 90.9983 95.6231 91.2131 95.7637C92.6561 96.705 96.5484 98.8129 101.499 98.0621C108.304 97.0304 111.677 91.5019 112.284 90.4041C112.408 90.1793 112.692 90.098 112.916 90.2222C113.141 90.3464 113.223 90.6294 113.098 90.8542C112.454 92.019 108.875 97.8848 101.638 98.9819C100.866 99.0991 100.117 99.1509 99.3982 99.1509V99.1509Z" fill="white"/>
<path d="M82.4997 101.92L71.8442 104.725C70.4379 105.095 69.598 106.535 69.9682 107.942L75.6814 129.644C76.0516 131.05 77.4918 131.89 78.898 131.52L89.5536 128.715C90.9599 128.344 91.7998 126.904 91.4296 125.498L85.7164 103.796C85.3462 102.389 83.906 101.55 82.4997 101.92Z" fill="#FFC1EB"/>
<path d="M82.2871 105.71L82.1097 105.75C81.5371 105.879 81.177 106.447 81.3053 107.02L82.3465 111.663C82.4749 112.236 83.0432 112.596 83.6158 112.468L83.7931 112.428C84.3658 112.3 84.7259 111.731 84.5975 111.159L83.5564 106.515C83.428 105.942 82.8597 105.582 82.2871 105.71Z" fill="white"/>
<path d="M87.7242 71.9781C85.4016 71.9781 83.2617 70.169 82.7203 67.5801C82.1084 64.6529 83.7688 61.8203 86.4213 61.2657C89.0729 60.71 91.7295 62.6415 92.3418 65.5687C92.9536 68.4959 91.2933 71.3285 88.6407 71.8831C88.3344 71.9472 88.0276 71.9781 87.7242 71.9781V71.9781ZM87.3395 62.1008C87.0983 62.1008 86.8551 62.1253 86.6116 62.1762C84.4612 62.6258 83.124 64.9646 83.6309 67.3898C84.138 69.8149 86.2982 71.4231 88.4504 70.9726C90.6008 70.523 91.938 68.1842 91.4311 65.759C90.9815 63.6084 89.2301 62.1008 87.3395 62.1008V62.1008Z" fill="black"/>
<path d="M143.604 34.4192H124.355C121.555 34.4192 119.284 36.6894 119.284 39.4898V57.5702C119.284 60.3706 121.555 62.6408 124.355 62.6408H143.604C146.404 62.6408 148.675 60.3706 148.675 57.5702V39.4898C148.675 36.6894 146.404 34.4192 143.604 34.4192Z" fill="white"/>
<path d="M140.646 42.7537H127.313C126.194 42.7537 125.286 43.6612 125.286 44.7807V56.078C125.286 57.1975 126.194 58.1051 127.313 58.1051H140.646C141.765 58.1051 142.673 57.1975 142.673 56.078V44.7807C142.673 43.6612 141.765 42.7537 140.646 42.7537Z" fill="#FFC1EB"/>
<path d="M142.673 48.2393H125.286C125.029 48.2393 124.821 48.031 124.821 47.7742C124.821 47.5173 125.029 47.3091 125.286 47.3091H142.673C142.93 47.3091 143.138 47.5173 143.138 47.7742C143.138 48.031 142.93 48.2393 142.673 48.2393Z" fill="#FB6D6D"/>
<path d="M134.701 43.2189H133.98C129.696 43.2189 128.469 41.7282 128.193 40.4777C128.09 40.0123 128.196 39.5262 128.483 39.1437C128.768 38.7639 129.201 38.5278 129.672 38.4959C132.438 38.3066 134.324 42.3878 134.403 42.5615L134.701 43.2189V43.2189ZM129.851 39.4201C129.813 39.4201 129.773 39.4213 129.734 39.424C129.531 39.4378 129.351 39.5363 129.227 39.7017C129.103 39.8672 129.057 40.0772 129.101 40.2776C129.36 41.4526 130.807 42.1495 133.204 42.2699C132.535 41.1082 131.255 39.4201 129.851 39.4201V39.4201Z" fill="#FB6D6D"/>
<path d="M133.921 43.2189H133.199L133.497 42.5616C133.576 42.388 135.462 38.3061 138.229 38.4959C138.699 38.5278 139.133 38.7639 139.417 39.1438C139.704 39.5264 139.81 40.0125 139.707 40.4777C139.431 41.7282 138.204 43.2189 133.921 43.2189V43.2189ZM138.049 39.4201C136.645 39.4201 135.365 41.1081 134.696 42.27C137.093 42.1495 138.54 41.4526 138.799 40.2774C138.843 40.0771 138.797 39.8673 138.673 39.7017C138.549 39.5364 138.369 39.4378 138.166 39.4241C138.127 39.4214 138.088 39.4201 138.049 39.4201V39.4201Z" fill="#FB6D6D"/>
<path d="M138.613 51.3868C138.453 51.3868 138.297 51.3037 138.21 51.155L133.878 43.6848L129.75 50.8821C129.622 51.105 129.337 51.1818 129.115 51.0541C128.892 50.9263 128.815 50.6421 128.943 50.4193L133.874 41.823L139.015 50.6883C139.144 50.9105 139.068 51.1951 138.846 51.3239C138.773 51.3665 138.692 51.3868 138.613 51.3868V51.3868Z" fill="#FB6D6D"/>
<path d="M134.055 58.5703C133.798 58.5703 133.59 58.362 133.59 58.1052V43.2437C133.59 42.9868 133.798 42.7786 134.055 42.7786C134.312 42.7786 134.52 42.9868 134.52 43.2437V58.1052C134.52 58.362 134.312 58.5703 134.055 58.5703V58.5703Z" fill="#FB6D6D"/>
<path d="M130.845 130.798L73.7158 137.416L73.0369 129.34L129.184 122.708L130.845 130.798Z" fill="#C7B8F8"/>
<path d="M134.918 148.55L74.3106 155.403L73.7258 146.672L133.007 139.757L134.918 148.55Z" fill="#C7B8F8"/>
<path d="M93.2812 120.636C93.2812 120.636 85.667 121.31 81.6959 114.49C81.3218 113.848 80.817 113.284 80.2086 112.857C79.1643 112.124 77.6003 111.663 75.9872 113.506C75.9872 113.506 73.3642 110.035 71.4279 112.017C71.4279 112.017 70.0448 113.77 71.8889 116.72C71.8889 116.72 68.938 117.945 71.8613 123.106C72.3104 123.899 72.747 124.698 73.1369 125.521C74.7077 128.838 80.2984 138.255 93.6237 139.621C94.4927 139.71 95.3147 140.059 95.9988 140.602L127.591 165.685C130.509 168.002 133.896 169.681 137.533 170.497C142.733 171.664 152.093 171.05 156.937 164.297C159.804 160.299 160.981 155.331 160.38 150.447L158.913 138.518L132.593 142.828L106.041 126.175C105.151 125.617 104.426 124.835 103.939 123.904C102.397 120.962 98.5132 114.146 94.2046 111.167C94.0571 111.065 93.9103 110.964 93.7658 110.857C92.835 110.172 91.6764 109.583 90.4993 109.565C88.6476 109.537 87.0621 111.255 88.21 112.999C88.7147 113.766 89.5256 114.395 90.2762 114.91C91.8419 115.985 92.9286 117.657 93.2163 119.534C93.273 119.904 93.2994 120.276 93.2812 120.636V120.636Z" fill="white"/>
<path d="M85.0211 125.482C84.9527 125.482 84.8835 125.467 84.8178 125.435C83.572 124.827 82.4099 124.075 81.3639 123.197C77.7836 120.195 76.2187 116.332 75.5363 113.62C75.4736 113.37 75.6246 113.118 75.8737 113.055C76.1226 112.993 76.3756 113.143 76.4383 113.393C77.0871 115.971 78.5721 119.642 81.9616 122.485C82.9497 123.313 84.0477 124.024 85.2252 124.599C85.4562 124.711 85.5523 124.99 85.4396 125.22C85.359 125.386 85.1935 125.482 85.0211 125.482V125.482Z" fill="black"/>
<path d="M82.0363 129.414C81.9661 129.414 81.8948 129.398 81.8278 129.364C80.8629 128.879 80.7173 128.762 80.1041 128.271C79.9236 128.127 79.6992 127.947 79.3958 127.711C75.9153 125.011 73.1696 121.269 71.4559 116.889C71.3624 116.65 71.4802 116.38 71.7196 116.287C71.9585 116.193 72.2285 116.311 72.3221 116.55C73.9747 120.773 76.6179 124.379 79.966 126.976C80.2744 127.216 80.5022 127.398 80.6855 127.545C81.2773 128.019 81.3681 128.092 82.2457 128.533C82.4753 128.649 82.5677 128.928 82.4523 129.158C82.3706 129.32 82.2066 129.414 82.0363 129.414V129.414Z" fill="black"/>
<path d="M95.6123 174.802H56.5099V166.364H95.6123C96.6941 166.364 97.5712 167.241 97.5712 168.323V172.843C97.5712 173.925 96.6941 174.802 95.6123 174.802Z" fill="black"/>
<path d="M60.9155 174.802H15.1745C13.4016 174.802 11.8434 173.663 11.3559 172.01L0.155559 134.036C-0.570237 131.576 1.33493 129.125 3.97414 129.125H47.1151C48.9719 129.125 50.5809 130.373 50.9894 132.13L60.9155 174.802H60.9155Z" fill="black"/>
<path d="M27.6964 161.904C31.197 161.904 34.0349 159.066 34.0349 155.565C34.0349 152.065 31.197 149.227 27.6964 149.227C24.1957 149.227 21.3579 152.065 21.3579 155.565C21.3579 159.066 24.1957 161.904 27.6964 161.904Z" fill="#FFC1EB"/>
<path d="M26.3027 151.042C26.0933 151.042 25.903 150.9 25.8512 150.687L25.0943 147.582C25.0334 147.332 25.1865 147.081 25.4361 147.02C25.6856 146.961 25.9373 147.112 25.9981 147.362L26.7551 150.467C26.8159 150.716 26.6629 150.968 26.4133 151.029C26.3763 151.038 26.3392 151.042 26.3027 151.042H26.3027Z" fill="#6DC8C2"/>
<path d="M164.082 138.197L133.177 143.368L121.828 85.3926C124.514 85.4311 127.199 85.4695 129.884 85.508C134.877 85.5796 139.756 87.1741 143.728 90.2006C145.632 91.6517 147.474 93.5255 148.951 95.9408C150.05 97.7372 150.751 99.5138 151.205 101.113L164.082 138.197V138.197Z" fill="black"/>
<path d="M177.54 71.2507H143.525C141.224 71.2507 139.358 73.1167 139.358 75.4186V97.1764C139.358 99.4782 141.224 101.344 143.525 101.344H177.54C179.842 101.344 181.708 99.4782 181.708 97.1764V75.4186C181.708 73.1167 179.842 71.2507 177.54 71.2507Z" fill="white"/>
<path d="M177.54 101.809H143.525C140.971 101.809 138.892 99.7311 138.892 97.1764V75.4185C138.892 72.8639 140.971 70.7856 143.525 70.7856H177.54C180.095 70.7856 182.173 72.8639 182.173 75.4185V97.1764C182.173 99.7311 180.095 101.809 177.54 101.809ZM143.525 71.7159C141.484 71.7159 139.823 73.3769 139.823 75.4185V97.1764C139.823 99.2181 141.484 100.879 143.525 100.879H177.54C179.582 100.879 181.243 99.2181 181.243 97.1764V75.4185C181.243 73.3769 179.582 71.7159 177.54 71.7159H143.525Z" fill="black"/>
<path d="M176.103 81.6565H163.482C163.225 81.6565 163.017 81.4483 163.017 81.1914C163.017 80.9346 163.225 80.7263 163.482 80.7263H176.103C176.36 80.7263 176.568 80.9346 176.568 81.1914C176.568 81.4483 176.36 81.6565 176.103 81.6565Z" fill="black"/>
<path d="M176.103 86.7625H163.482C163.225 86.7625 163.017 86.5542 163.017 86.2974C163.017 86.0405 163.225 85.8323 163.482 85.8323H176.103C176.36 85.8323 176.568 86.0405 176.568 86.2974C176.568 86.5542 176.36 86.7625 176.103 86.7625Z" fill="black"/>
<path d="M171.698 91.8687H163.482C163.225 91.8687 163.017 91.6604 163.017 91.4036C163.017 91.1467 163.225 90.9385 163.482 90.9385H171.698C171.955 90.9385 172.163 91.1467 172.163 91.4036C172.163 91.6604 171.955 91.8687 171.698 91.8687Z" fill="black"/>
<path d="M149.109 79.207C149.204 80.3058 150.072 81.164 151.101 81.2417C152.243 81.3279 153.315 80.4332 153.427 79.207C153.427 79.207 157.864 78.4795 157.923 84.848H155.734V93.4152H146.613V84.848H144.08C144.08 84.848 144.2 78.7338 149.109 79.207H149.109Z" fill="#C7B8F8"/>
<path d="M139.924 147.206C139.848 147.206 139.771 147.187 139.7 147.148L132.783 143.328C132.558 143.204 132.476 142.921 132.6 142.696C132.725 142.472 133.007 142.39 133.232 142.514L140.15 146.334C140.375 146.458 140.456 146.741 140.332 146.966C140.247 147.119 140.088 147.206 139.924 147.206Z" fill="black"/>
<path d="M65.6839 87.5457H9.91737C9.66052 87.5457 9.45227 87.3374 9.45227 87.0806C9.45227 86.8237 9.66052 86.6155 9.91737 86.6155H65.6839C65.9408 86.6155 66.149 86.8237 66.149 87.0806C66.149 87.3374 65.9408 87.5457 65.6839 87.5457H65.6839Z" fill="black"/>
<path d="M48.5381 86.407C53.1016 86.407 56.801 82.7075 56.801 78.144C56.801 73.5805 53.1016 69.8811 48.5381 69.8811C43.9746 69.8811 40.2751 73.5805 40.2751 78.144C40.2751 82.7075 43.9746 86.407 48.5381 86.407Z" fill="white"/>
<path d="M31.6928 87.1899H19.8066C17.5229 87.1899 15.6648 85.3319 15.6648 83.0481V65.9723C15.6648 63.6886 17.5229 61.8306 19.8066 61.8306H31.6928C33.9765 61.8306 35.8344 63.6886 35.8344 65.9723V83.0481C35.8344 85.3319 33.9765 87.1899 31.6928 87.1899V87.1899ZM19.8066 62.7608C18.0357 62.7608 16.595 64.2015 16.595 65.9723V83.0481C16.595 84.819 18.0357 86.2597 19.8066 86.2597H31.6928C33.4635 86.2597 34.9042 84.819 34.9042 83.0481V65.9723C34.9042 64.2015 33.4635 62.7608 31.6928 62.7608H19.8066Z" fill="black"/>
<path d="M35.1236 81.0535H16.1299C15.873 81.0535 15.6648 80.8452 15.6648 80.5884C15.6648 80.3315 15.873 80.1233 16.1299 80.1233H35.1236C35.3804 80.1233 35.5887 80.3315 35.5887 80.5884C35.5887 80.8452 35.3804 81.0535 35.1236 81.0535Z" fill="black"/>
<path d="M23.7672 84.9692C24.3902 84.9692 24.8953 84.4641 24.8953 83.841C24.8953 83.218 24.3902 82.7129 23.7672 82.7129C23.1441 82.7129 22.639 83.218 22.639 83.841C22.639 84.4641 23.1441 84.9692 23.7672 84.9692Z" fill="white"/>
<path d="M27.7257 84.9692C28.3487 84.9692 28.8538 84.4641 28.8538 83.841C28.8538 83.218 28.3487 82.7129 27.7257 82.7129C27.1026 82.7129 26.5975 83.218 26.5975 83.841C26.5975 84.4641 27.1026 84.9692 27.7257 84.9692Z" fill="white"/>
<path d="M46.8067 72.0427C46.5925 72.0427 46.3997 71.8939 46.3525 71.676C45.1434 66.0927 46.509 62.2758 47.8673 60.057C49.35 57.6355 51.115 56.556 51.1893 56.5112C51.41 56.3788 51.6955 56.4501 51.8276 56.6699C51.96 56.89 51.889 57.1758 51.6689 57.3082C51.3898 57.4779 45.088 61.4426 47.2618 71.4791C47.3161 71.7301 47.1567 71.9777 46.9055 72.032C46.8723 72.0392 46.8394 72.0427 46.8067 72.0427H46.8067Z" fill="black"/>
<path d="M57.2553 57.1798L55.2525 56.7465C55.2359 56.6355 55.2156 56.5256 55.191 56.4168L56.9387 55.4362C57.701 55.0085 57.9722 54.0438 57.5445 53.2816C57.1168 52.5193 56.1522 52.2481 55.3899 52.6758L53.5497 53.7084C53.5206 53.7247 53.4971 53.7468 53.4694 53.7647C53.3813 53.6989 53.2901 53.6372 53.1968 53.5776L53.6014 51.7076C53.7862 50.8533 53.2435 50.011 52.3892 49.8261C51.5349 49.6413 50.6926 50.1841 50.5078 51.0383L50.1032 52.9084C49.9486 52.9305 49.7963 52.9601 49.6461 52.9977C49.6116 52.9363 49.5795 52.874 49.536 52.8163L48.2656 51.1314C47.7394 50.4336 46.7471 50.2944 46.0492 50.8206C45.3513 51.3468 45.2121 52.3391 45.7383 53.037L47.0087 54.7218C47.0192 54.7358 47.0327 54.746 47.0436 54.7596C47.0007 54.8194 46.9617 54.8823 46.9216 54.9443L44.9833 54.525C44.1291 54.3402 43.2867 54.883 43.1019 55.7372L43.1019 55.7372C42.9171 56.5915 43.4598 57.4339 44.3141 57.6187L46.2336 58.0339C46.24 58.0806 46.2452 58.1275 46.253 58.1738C46.2474 58.1768 46.2414 58.1781 46.2359 58.1813L44.3956 59.2138C43.6334 59.6415 43.3622 60.6061 43.7899 61.3684C44.2175 62.1306 45.1822 62.4018 45.9444 61.9741L47.7847 60.9416C47.7988 60.9337 47.8097 60.9227 47.8234 60.9144C47.9724 61.0391 48.1315 61.1524 48.297 61.258L47.8959 63.1121C47.7111 63.9664 48.2538 64.8087 49.108 64.9935C49.9623 65.1783 50.8047 64.6356 50.9895 63.7814L51.3906 61.9272C51.5073 61.9105 51.6229 61.8901 51.7372 61.8645L52.9679 63.4967C53.4941 64.1946 54.4864 64.3338 55.1843 63.8076C55.8822 63.2814 56.0214 62.2891 55.4952 61.5912L54.4007 60.1395C54.4717 60.0443 54.5382 59.9455 54.602 59.8442L56.586 60.2734C57.4403 60.4582 58.2827 59.9155 58.4675 59.0612L58.4675 59.0612C58.6523 58.207 58.1096 57.3646 57.2553 57.1798H57.2553Z" fill="#FFC1EB"/>
<path d="M57.2553 57.1798L55.2525 56.7465C55.2359 56.6355 55.2156 56.5256 55.191 56.4168L56.9387 55.4362C57.701 55.0085 57.9722 54.0438 57.5445 53.2816C57.1168 52.5193 56.1522 52.2481 55.3899 52.6758L53.5497 53.7084C53.5206 53.7247 53.4971 53.7468 53.4694 53.7647C53.3813 53.6989 53.2901 53.6372 53.1968 53.5776L53.6014 51.7076C53.7862 50.8533 53.2435 50.011 52.3892 49.8261C51.5349 49.6413 50.6926 50.1841 50.5078 51.0383L50.1032 52.9084C49.9486 52.9305 49.7963 52.9601 49.6461 52.9977C49.6116 52.9363 49.5795 52.874 49.536 52.8163L48.2656 51.1314C47.7394 50.4336 46.7471 50.2944 46.0492 50.8206C45.3513 51.3468 45.2121 52.3391 45.7383 53.037L47.0087 54.7218C47.0192 54.7358 47.0327 54.746 47.0436 54.7596C47.0007 54.8194 46.9617 54.8823 46.9216 54.9443L44.9833 54.525C44.1291 54.3402 43.2867 54.883 43.1019 55.7372L43.1019 55.7372C42.9171 56.5915 43.4598 57.4339 44.3141 57.6187L46.2336 58.0339C46.24 58.0806 46.2452 58.1275 46.253 58.1738C46.2474 58.1768 46.2414 58.1781 46.2359 58.1813L44.3956 59.2138C43.6334 59.6415 43.3622 60.6061 43.7899 61.3684C44.2175 62.1306 45.1822 62.4018 45.9444 61.9741L47.7847 60.9416C47.7988 60.9337 47.8097 60.9227 47.8234 60.9144C47.9724 61.0391 48.1315 61.1524 48.297 61.258L47.8959 63.1121C47.7111 63.9664 48.2538 64.8087 49.108 64.9935C49.9623 65.1783 50.8047 64.6356 50.9895 63.7814L51.3906 61.9272C51.5073 61.9105 51.6229 61.8901 51.7372 61.8645L52.9679 63.4967C53.4941 64.1946 54.4864 64.3338 55.1843 63.8076C55.8822 63.2814 56.0214 62.2891 55.4952 61.5912L54.4007 60.1395C54.4717 60.0443 54.5382 59.9455 54.602 59.8442L56.586 60.2734C57.4403 60.4582 58.2827 59.9155 58.4675 59.0612L58.4675 59.0612C58.6523 58.207 58.1096 57.3646 57.2553 57.1798H57.2553Z" fill="#FFC1EB"/>
<path d="M57.2553 57.1798L55.2525 56.7465C55.2359 56.6355 55.2156 56.5256 55.191 56.4168L56.9387 55.4362C57.701 55.0085 57.9722 54.0438 57.5445 53.2816C57.1168 52.5193 56.1522 52.2481 55.3899 52.6758L53.5497 53.7084C53.5206 53.7247 53.4971 53.7468 53.4694 53.7647C53.3813 53.6989 53.2901 53.6372 53.1968 53.5776L53.6014 51.7076C53.7862 50.8533 53.2435 50.011 52.3892 49.8261C51.5349 49.6413 50.6926 50.1841 50.5078 51.0383L50.1032 52.9084C49.9486 52.9305 49.7963 52.9601 49.6461 52.9977C49.6116 52.9363 49.5795 52.874 49.536 52.8163L48.2656 51.1314C47.7394 50.4336 46.7471 50.2944 46.0492 50.8206C45.3513 51.3468 45.2121 52.3391 45.7383 53.037L47.0087 54.7218C47.0192 54.7358 47.0327 54.746 47.0436 54.7596C47.0007 54.8194 46.9617 54.8823 46.9216 54.9443L44.9833 54.525C44.1291 54.3402 43.2867 54.883 43.1019 55.7372L43.1019 55.7372C42.9171 56.5915 43.4598 57.4339 44.3141 57.6187L46.2336 58.0339C46.24 58.0806 46.2452 58.1275 46.253 58.1738C46.2474 58.1768 46.2414 58.1781 46.2359 58.1813L44.3956 59.2138C43.6334 59.6415 43.3622 60.6061 43.7899 61.3684C44.2175 62.1306 45.1822 62.4018 45.9444 61.9741L47.7847 60.9416C47.7988 60.9337 47.8097 60.9227 47.8234 60.9144C47.9724 61.0391 48.1315 61.1524 48.297 61.258L47.8959 63.1121C47.7111 63.9664 48.2538 64.8087 49.108 64.9935C49.9623 65.1783 50.8047 64.6356 50.9895 63.7814L51.3906 61.9272C51.5073 61.9105 51.6229 61.8901 51.7372 61.8645L52.9679 63.4967C53.4941 64.1946 54.4864 64.3338 55.1843 63.8076C55.8822 63.2814 56.0214 62.2891 55.4952 61.5912L54.4007 60.1395C54.4717 60.0443 54.5382 59.9455 54.602 59.8442L56.586 60.2734C57.4403 60.4582 58.2827 59.9155 58.4675 59.0612L58.4675 59.0612C58.6523 58.207 58.1096 57.3646 57.2553 57.1798H57.2553Z" fill="#FFC1EB"/>
<path d="M57.2553 57.1798L55.2525 56.7465C55.2359 56.6355 55.2156 56.5256 55.191 56.4168L56.9387 55.4362C57.701 55.0085 57.9722 54.0438 57.5445 53.2816C57.1168 52.5193 56.1522 52.2481 55.3899 52.6758L53.5497 53.7084C53.5206 53.7247 53.4971 53.7468 53.4694 53.7647C53.3813 53.6989 53.2901 53.6372 53.1968 53.5776L53.6014 51.7076C53.7862 50.8533 53.2435 50.011 52.3892 49.8261C51.5349 49.6413 50.6926 50.1841 50.5078 51.0383L50.1032 52.9084C49.9486 52.9305 49.7963 52.9601 49.6461 52.9977C49.6116 52.9363 49.5795 52.874 49.536 52.8163L48.2656 51.1314C47.7394 50.4336 46.7471 50.2944 46.0492 50.8206C45.3513 51.3468 45.2121 52.3391 45.7383 53.037L47.0087 54.7218C47.0192 54.7358 47.0327 54.746 47.0436 54.7596C47.0007 54.8194 46.9617 54.8823 46.9216 54.9443L44.9833 54.525C44.1291 54.3402 43.2867 54.883 43.1019 55.7372L43.1019 55.7372C42.9171 56.5915 43.4598 57.4339 44.3141 57.6187L46.2336 58.0339C46.24 58.0806 46.2452 58.1275 46.253 58.1738C46.2474 58.1768 46.2414 58.1781 46.2359 58.1813L44.3956 59.2138C43.6334 59.6415 43.3622 60.6061 43.7899 61.3684C44.2175 62.1306 45.1822 62.4018 45.9444 61.9741L47.7847 60.9416C47.7988 60.9337 47.8097 60.9227 47.8234 60.9144C47.9724 61.0391 48.1315 61.1524 48.297 61.258L47.8959 63.1121C47.7111 63.9664 48.2538 64.8087 49.108 64.9935C49.9623 65.1783 50.8047 64.6356 50.9895 63.7814L51.3906 61.9272C51.5073 61.9105 51.6229 61.8901 51.7372 61.8645L52.9679 63.4967C53.4941 64.1946 54.4864 64.3338 55.1843 63.8076C55.8822 63.2814 56.0214 62.2891 55.4952 61.5912L54.4007 60.1395C54.4717 60.0443 54.5382 59.9455 54.602 59.8442L56.586 60.2734C57.4403 60.4582 58.2827 59.9155 58.4675 59.0612L58.4675 59.0612C58.6523 58.207 58.1096 57.3646 57.2553 57.1798H57.2553Z" fill="#FFC1EB"/>
<path d="M57.2553 57.1798L55.2525 56.7465C55.2359 56.6355 55.2156 56.5256 55.191 56.4168L56.9387 55.4362C57.701 55.0085 57.9722 54.0438 57.5445 53.2816C57.1168 52.5193 56.1522 52.2481 55.3899 52.6758L53.5497 53.7084C53.5206 53.7247 53.4971 53.7468 53.4694 53.7647C53.3813 53.6989 53.2901 53.6372 53.1968 53.5776L53.6014 51.7076C53.7862 50.8533 53.2435 50.011 52.3892 49.8261C51.5349 49.6413 50.6926 50.1841 50.5078 51.0383L50.1032 52.9084C49.9486 52.9305 49.7963 52.9601 49.6461 52.9977C49.6116 52.9363 49.5795 52.874 49.536 52.8163L48.2656 51.1314C47.7394 50.4336 46.7471 50.2944 46.0492 50.8206C45.3513 51.3468 45.2121 52.3391 45.7383 53.037L47.0087 54.7218C47.0192 54.7358 47.0327 54.746 47.0436 54.7596C47.0007 54.8194 46.9617 54.8823 46.9216 54.9443L44.9833 54.525C44.1291 54.3402 43.2867 54.883 43.1019 55.7372L43.1019 55.7372C42.9171 56.5915 43.4598 57.4339 44.3141 57.6187L46.2336 58.0339C46.24 58.0806 46.2452 58.1275 46.253 58.1738C46.2474 58.1768 46.2414 58.1781 46.2359 58.1813L44.3956 59.2138C43.6334 59.6415 43.3622 60.6061 43.7899 61.3684C44.2175 62.1306 45.1822 62.4018 45.9444 61.9741L47.7847 60.9416C47.7988 60.9337 47.8097 60.9227 47.8234 60.9144C47.9724 61.0391 48.1315 61.1524 48.297 61.258L47.8959 63.1121C47.7111 63.9664 48.2538 64.8087 49.108 64.9935C49.9623 65.1783 50.8047 64.6356 50.9895 63.7814L51.3906 61.9272C51.5073 61.9105 51.6229 61.8901 51.7372 61.8645L52.9679 63.4967C53.4941 64.1946 54.4864 64.3338 55.1843 63.8076C55.8822 63.2814 56.0214 62.2891 55.4952 61.5912L54.4007 60.1395C54.4717 60.0443 54.5382 59.9455 54.602 59.8442L56.586 60.2734C57.4403 60.4582 58.2827 59.9155 58.4675 59.0612L58.4675 59.0612C58.6523 58.207 58.1096 57.3646 57.2553 57.1798H57.2553Z" fill="#FFC1EB"/>
<path d="M57.2553 57.1798L55.2525 56.7465C55.2359 56.6355 55.2156 56.5256 55.191 56.4168L56.9387 55.4362C57.701 55.0085 57.9722 54.0438 57.5445 53.2816C57.1168 52.5193 56.1522 52.2481 55.3899 52.6758L53.5497 53.7084C53.5206 53.7247 53.4971 53.7468 53.4694 53.7647C53.3813 53.6989 53.2901 53.6372 53.1968 53.5776L53.6014 51.7076C53.7862 50.8533 53.2435 50.011 52.3892 49.8261C51.5349 49.6413 50.6926 50.1841 50.5078 51.0383L50.1032 52.9084C49.9486 52.9305 49.7963 52.9601 49.6461 52.9977C49.6116 52.9363 49.5795 52.874 49.536 52.8163L48.2656 51.1314C47.7394 50.4336 46.7471 50.2944 46.0492 50.8206C45.3513 51.3468 45.2121 52.3391 45.7383 53.037L47.0087 54.7218C47.0192 54.7358 47.0327 54.746 47.0436 54.7596C47.0007 54.8194 46.9617 54.8823 46.9216 54.9443L44.9833 54.525C44.1291 54.3402 43.2867 54.883 43.1019 55.7372L43.1019 55.7372C42.9171 56.5915 43.4598 57.4339 44.3141 57.6187L46.2336 58.0339C46.24 58.0806 46.2452 58.1275 46.253 58.1738C46.2474 58.1768 46.2414 58.1781 46.2359 58.1813L44.3956 59.2138C43.6334 59.6415 43.3622 60.6061 43.7899 61.3684C44.2175 62.1306 45.1822 62.4018 45.9444 61.9741L47.7847 60.9416C47.7988 60.9337 47.8097 60.9227 47.8234 60.9144C47.9724 61.0391 48.1315 61.1524 48.297 61.258L47.8959 63.1121C47.7111 63.9664 48.2538 64.8087 49.108 64.9935C49.9623 65.1783 50.8047 64.6356 50.9895 63.7814L51.3906 61.9272C51.5073 61.9105 51.6229 61.8901 51.7372 61.8645L52.9679 63.4967C53.4941 64.1946 54.4864 64.3338 55.1843 63.8076C55.8822 63.2814 56.0214 62.2891 55.4952 61.5912L54.4007 60.1395C54.4717 60.0443 54.5382 59.9455 54.602 59.8442L56.586 60.2734C57.4403 60.4582 58.2827 59.9155 58.4675 59.0612L58.4675 59.0612C58.6523 58.207 58.1096 57.3646 57.2553 57.1798H57.2553Z" fill="#FFC1EB"/>
<path d="M57.2553 57.1798L55.2525 56.7465C55.2359 56.6355 55.2156 56.5256 55.191 56.4168L56.9387 55.4362C57.701 55.0085 57.9722 54.0438 57.5445 53.2816C57.1168 52.5193 56.1522 52.2481 55.3899 52.6758L53.5497 53.7084C53.5206 53.7247 53.4971 53.7468 53.4694 53.7647C53.3813 53.6989 53.2901 53.6372 53.1968 53.5776L53.6014 51.7076C53.7862 50.8533 53.2435 50.011 52.3892 49.8261C51.5349 49.6413 50.6926 50.1841 50.5078 51.0383L50.1032 52.9084C49.9486 52.9305 49.7963 52.9601 49.6461 52.9977C49.6116 52.9363 49.5795 52.874 49.536 52.8163L48.2656 51.1314C47.7394 50.4336 46.7471 50.2944 46.0492 50.8206C45.3513 51.3468 45.2121 52.3391 45.7383 53.037L47.0087 54.7218C47.0192 54.7358 47.0327 54.746 47.0436 54.7596C47.0007 54.8194 46.9617 54.8823 46.9216 54.9443L44.9833 54.525C44.1291 54.3402 43.2867 54.883 43.1019 55.7372L43.1019 55.7372C42.9171 56.5915 43.4598 57.4339 44.3141 57.6187L46.2336 58.0339C46.24 58.0806 46.2452 58.1275 46.253 58.1738C46.2474 58.1768 46.2414 58.1781 46.2359 58.1813L44.3956 59.2138C43.6334 59.6415 43.3622 60.6061 43.7899 61.3684C44.2175 62.1306 45.1822 62.4018 45.9444 61.9741L47.7847 60.9416C47.7988 60.9337 47.8097 60.9227 47.8234 60.9144C47.9724 61.0391 48.1315 61.1524 48.297 61.258L47.8959 63.1121C47.7111 63.9664 48.2538 64.8087 49.108 64.9935C49.9623 65.1783 50.8047 64.6356 50.9895 63.7814L51.3906 61.9272C51.5073 61.9105 51.6229 61.8901 51.7372 61.8645L52.9679 63.4967C53.4941 64.1946 54.4864 64.3338 55.1843 63.8076C55.8822 63.2814 56.0214 62.2891 55.4952 61.5912L54.4007 60.1395C54.4717 60.0443 54.5382 59.9455 54.602 59.8442L56.586 60.2734C57.4403 60.4582 58.2827 59.9155 58.4675 59.0612L58.4675 59.0612C58.6523 58.207 58.1096 57.3646 57.2553 57.1798H57.2553Z" fill="#FFC1EB"/>
<path d="M50.7848 59.5044C51.9416 59.5044 52.8793 58.5666 52.8793 57.4098C52.8793 56.253 51.9416 55.3152 50.7848 55.3152C49.628 55.3152 48.6902 56.253 48.6902 57.4098C48.6902 58.5666 49.628 59.5044 50.7848 59.5044Z" fill="white"/>
<path d="M47.2209 73.8911C48.3287 73.7022 49.1018 72.8158 48.9476 71.9114C48.7934 71.0069 47.7703 70.4269 46.6624 70.6157C45.5546 70.8046 44.7815 71.691 44.9357 72.5954C45.0899 73.4999 46.113 74.08 47.2209 73.8911Z" fill="black"/>
<path d="M44.4484 85.0033C44.2933 85.0033 44.1418 84.9259 44.0537 84.7847C43.9174 84.5669 43.9835 84.28 44.2013 84.1437C45.0245 83.6288 46.3701 82.9924 48.1049 82.8854C50.3802 82.7434 52.1427 83.5947 52.9907 84.114C53.2099 84.2481 53.2787 84.5343 53.1447 84.7535C53.0103 84.9726 52.7237 85.0417 52.5052 84.9072C51.7505 84.4453 50.1833 83.6895 48.1621 83.8137C46.6222 83.9088 45.4265 84.4745 44.6946 84.9324C44.6178 84.9804 44.5326 85.0033 44.4484 85.0033H44.4484Z" fill="black"/>
</g>
<defs>
<clipPath id="clip0_535_3324">
<rect width="182.173" height="176" fill="white"/>
</clipPath>
</defs>
</svg>
