<svg width="72" height="70" viewBox="0 0 72 70" fill="none" xmlns="http://www.w3.org/2000/svg">
<path d="M67.6223 63.4509L63.4027 5.28317C63.0857 0.916543 58.1639 -1.46943 54.5362 0.988232L6.26901 33.7264C2.64593 36.1841 3.04206 41.6435 6.98222 43.5525L59.4626 68.9811C63.4101 70.891 67.9403 67.8157 67.6223 63.4509Z" fill="#6DC8C2"/>
<path d="M41.9558 31.2356C38.7711 31.1309 36.1103 28.6898 35.6609 25.4591L34.5322 17.3573L38.7766 16.7654C39.0965 16.7277 40.4356 16.6055 41.6378 17.5356C42.1157 17.9032 42.5182 18.4051 42.8638 19.1514C43.5403 20.6127 46.4042 28.187 43.2719 30.6263C42.884 30.9249 42.4344 31.1331 41.9558 31.2356V31.2356Z" fill="black"/>
<path d="M55.5619 69.0896H30.057L27.9963 38.0242C31.5915 36.4506 35.3562 35.2969 39.2157 34.5859C44.7303 33.5749 49.0979 33.5326 53.0454 34.0234C53.8854 45.7372 54.7209 57.3757 55.5619 69.0896Z" fill="black"/>
<path d="M41.7205 30.9304L40.7095 28.1557C41.7048 28.1152 42.5008 27.2504 42.5008 26.186C42.5008 25.0951 41.6672 24.2118 40.6378 24.2118C40.1965 24.2129 39.7712 24.3765 39.4429 24.6714L37.5395 19.4408L29.7355 21.9527C29.3738 22.0689 29.0385 22.2553 28.7489 22.5011C28.4592 22.747 28.2209 23.0475 28.0474 23.3855C27.874 23.7235 27.7689 24.0924 27.738 24.471C27.7072 24.8497 27.7513 25.2307 27.8679 25.5923L29.9818 32.1611C30.3037 33.157 31.0075 33.9845 31.9388 34.4622C32.8701 34.9398 33.9529 35.0285 34.9495 34.7088L36.0846 34.2015L37.0331 36.229C37.0739 36.3186 37.1448 36.3911 37.2334 36.434C38.8814 37.2262 40.7205 37.0323 41.8528 35.9744C42.635 35.2456 43.0679 34.5893 43.1929 34.1601C43.2203 34.0596 43.2095 33.9525 43.1625 33.8596L41.7205 30.9304Z" fill="white"/>
<path d="M36.0864 34.2052L39.5073 32.6427C39.53 32.6328 39.5554 32.631 39.5793 32.6375C39.6032 32.644 39.6241 32.6586 39.6386 32.6786C39.6531 32.6987 39.6603 32.7232 39.659 32.7479C39.6577 32.7726 39.6479 32.7962 39.6314 32.8146L36.8373 35.8109L36.0864 34.2052Z" fill="black"/>
<path d="M40.4814 27.0024C40.3492 27.0026 40.2199 26.9635 40.1099 26.8902C39.9999 26.8169 39.9141 26.7126 39.8634 26.5905C39.8127 26.4685 39.7993 26.3341 39.825 26.2044C39.8507 26.0747 39.9142 25.9556 40.0076 25.862C40.101 25.7685 40.2201 25.7048 40.3497 25.6789C40.4794 25.6531 40.6138 25.6662 40.7359 25.7168C40.8581 25.7673 40.9625 25.853 41.0359 25.9629C41.1094 26.0728 41.1486 26.202 41.1486 26.3342C41.1486 26.5113 41.0783 26.6811 40.9532 26.8063C40.8281 26.9316 40.6584 27.0021 40.4814 27.0024V27.0024ZM40.4814 26.0346C40.4218 26.0344 40.3636 26.0519 40.314 26.0848C40.2645 26.1178 40.2258 26.1647 40.2029 26.2197C40.1801 26.2746 40.1741 26.3351 40.1856 26.3935C40.1972 26.4519 40.2258 26.5055 40.2679 26.5476C40.31 26.5897 40.3636 26.6184 40.422 26.6299C40.4804 26.6415 40.5409 26.6355 40.5959 26.6126C40.6508 26.5897 40.6978 26.5511 40.7307 26.5015C40.7637 26.452 40.7812 26.3937 40.781 26.3342C40.781 26.2547 40.7494 26.1785 40.6932 26.1223C40.637 26.0661 40.5608 26.0346 40.4814 26.0346V26.0346Z" fill="black"/>
<path d="M40.011 26.6301C39.9657 26.6304 39.9219 26.6139 39.8879 26.5839C39.854 26.5539 39.8324 26.5124 39.8272 26.4674C39.7803 26.0694 39.8713 25.7477 40.0974 25.5097C40.522 25.0621 41.2665 25.1034 41.2977 25.1053C41.3465 25.1083 41.392 25.1306 41.4243 25.1672C41.4566 25.2039 41.4731 25.2518 41.47 25.3006C41.467 25.3493 41.4447 25.3949 41.4081 25.4272C41.3714 25.4595 41.3235 25.476 41.2747 25.4729C41.2692 25.4729 40.6681 25.4408 40.363 25.7634C40.2141 25.9205 40.1589 26.1365 40.192 26.4251C40.1975 26.4733 40.1836 26.5218 40.1535 26.5598C40.1233 26.5979 40.0794 26.6225 40.0312 26.6282L40.011 26.6301Z" fill="black"/>
<path d="M33.2379 31.7779C33.0006 31.7808 32.7659 31.7273 32.5532 31.6217C32.5132 31.5962 32.4846 31.5563 32.4733 31.5103C32.462 31.4642 32.469 31.4156 32.4927 31.3746C32.5164 31.3335 32.5551 31.3032 32.6006 31.29C32.6462 31.2768 32.695 31.2817 32.737 31.3037C32.7793 31.3267 33.7251 31.8386 34.6929 30.4719C34.7063 30.4509 34.7238 30.4329 34.7444 30.4189C34.7649 30.4049 34.7881 30.3953 34.8125 30.3905C34.837 30.3857 34.8621 30.386 34.8864 30.3912C34.9107 30.3964 34.9337 30.4065 34.954 30.4209C34.9743 30.4353 34.9915 30.4537 35.0045 30.4749C35.0175 30.4961 35.026 30.5197 35.0296 30.5443C35.0332 30.5689 35.0318 30.594 35.0254 30.6181C35.019 30.6421 35.0078 30.6646 34.9925 30.6842C34.3648 31.5711 33.7104 31.7779 33.2379 31.7779Z" fill="black"/>
<path d="M34.3667 26.857C34.589 26.857 34.7692 26.6768 34.7692 26.4544C34.7692 26.2321 34.589 26.0519 34.3667 26.0519C34.1443 26.0519 33.9641 26.2321 33.9641 26.4544C33.9641 26.6768 34.1443 26.857 34.3667 26.857Z" fill="black"/>
<path d="M29.6545 28.5621C29.8768 28.5621 30.0571 28.3819 30.0571 28.1595C30.0571 27.9372 29.8768 27.757 29.6545 27.757C29.4322 27.757 29.252 27.9372 29.252 28.1595C29.252 28.3819 29.4322 28.5621 29.6545 28.5621Z" fill="black"/>
<path d="M29.5526 30.3635C28.6289 30.3635 27.7714 29.619 27.5499 28.5575C27.2999 27.3626 27.9497 26.2119 28.9974 25.9923C29.2568 25.9409 29.5243 25.9466 29.7812 26.0089C30.0382 26.0713 30.2785 26.1889 30.4855 26.3535C30.9339 26.704 31.2415 27.2041 31.3522 27.7624V27.7624C31.4746 28.3183 31.3931 28.8996 31.1224 29.4003C30.9988 29.6341 30.8258 29.8382 30.6153 29.9984C30.4048 30.1586 30.162 30.2709 29.9037 30.3276C29.7881 30.3514 29.6705 30.3634 29.5526 30.3635V30.3635ZM29.3513 26.3195C29.2586 26.3199 29.1662 26.3297 29.0756 26.3489C28.2254 26.5263 27.7033 27.4821 27.912 28.4784C28.1206 29.4747 28.9818 30.1411 29.8311 29.9637C30.0377 29.9176 30.2318 29.827 30.3998 29.6981C30.5678 29.5692 30.7055 29.4051 30.8035 29.2174C31.0305 28.7943 31.0977 28.3036 30.9928 27.8351V27.8351C30.9018 27.3619 30.643 26.9376 30.264 26.6402C30.0029 26.437 29.6821 26.3256 29.3513 26.3231V26.3195Z" fill="black"/>
<path d="M31.329 27.835C31.2854 27.8346 31.2433 27.8188 31.2103 27.7904C31.1773 27.7619 31.1554 27.7226 31.1487 27.6795C31.142 27.6365 31.1507 27.5924 31.1735 27.5552C31.1963 27.518 31.2315 27.4901 31.2729 27.4765L32.9328 26.9416C32.9781 26.9303 33.0259 26.9367 33.0666 26.9594C33.1073 26.9821 33.1379 27.0194 33.1522 27.0638C33.1664 27.1082 33.1633 27.1563 33.1434 27.1985C33.1235 27.2406 33.0883 27.2737 33.0449 27.2908L31.386 27.8267C31.3675 27.8321 31.3483 27.8349 31.329 27.835V27.835Z" fill="black"/>
<path d="M32.1543 29.7964C32.0606 29.7989 31.9674 29.7808 31.8814 29.7435C31.7953 29.7062 31.7185 29.6505 31.6562 29.5804C31.4724 29.357 31.5036 29.051 31.5909 28.857C31.6532 28.7211 31.7542 28.6067 31.8814 28.528L31.125 26.506C31.111 26.4612 31.1148 26.4127 31.1355 26.3706C31.1561 26.3285 31.1921 26.2958 31.2361 26.2794C31.28 26.2629 31.3286 26.2639 31.3719 26.2821C31.4151 26.3003 31.4498 26.3344 31.4687 26.3773L32.351 28.7293L32.1672 28.79C32.1144 28.8074 32.0656 28.8352 32.0238 28.8719C31.982 28.9085 31.9479 28.9532 31.9237 29.0032C31.8906 29.0758 31.851 29.2394 31.9347 29.3387C32.0183 29.4379 32.2104 29.4673 32.3887 29.3524C32.4088 29.3376 32.4318 29.327 32.4561 29.3214C32.4804 29.3157 32.5057 29.3151 32.5303 29.3195C32.5549 29.3239 32.5783 29.3333 32.5992 29.347C32.62 29.3608 32.6378 29.3787 32.6515 29.3996C32.6652 29.4205 32.6745 29.444 32.6788 29.4686C32.6832 29.4932 32.6824 29.5184 32.6767 29.5428C32.6709 29.5671 32.6603 29.59 32.6454 29.61C32.6305 29.6301 32.6116 29.6469 32.59 29.6594C32.4611 29.7463 32.3098 29.7938 32.1543 29.7964V29.7964Z" fill="black"/>
<path d="M33.5729 22.5926C35.8991 22.1062 37.493 20.3154 37.1328 18.5928C36.7726 16.8702 34.5948 15.8681 32.2685 16.3545C29.9422 16.8409 28.3484 18.6317 28.7086 20.3543C29.0688 22.0769 31.2466 23.079 33.5729 22.5926Z" fill="black"/>
<path d="M40.669 22.6064L38.363 23.2056C37.7353 23.3686 37.0686 23.2755 36.5095 22.947C35.9504 22.6185 35.5447 22.0814 35.3815 21.4538L34.8953 19.5825L39.5679 18.3684L40.669 22.6064Z" fill="black"/>
<path d="M27.7207 24.9536C29.4587 24.9536 30.8677 23.5447 30.8677 21.8067C30.8677 20.0686 29.4587 18.6597 27.7207 18.6597C25.9827 18.6597 24.5737 20.0686 24.5737 21.8067C24.5737 23.5447 25.9827 24.9536 27.7207 24.9536Z" fill="black"/>
<path d="M36.3032 26.0483C36.2603 26.0485 36.2188 26.0336 36.1858 26.0064C36.1527 25.9791 36.1302 25.9412 36.1222 25.8991C36.1141 25.8571 36.121 25.8135 36.1416 25.776C36.1622 25.7385 36.1953 25.7093 36.2352 25.6936L39.6762 24.3149C39.6989 24.3045 39.7235 24.2987 39.7484 24.298C39.7734 24.2974 39.7982 24.3018 39.8214 24.311C39.8446 24.3203 39.8657 24.3341 39.8833 24.3518C39.901 24.3694 39.9148 24.3905 39.9241 24.4137C39.9333 24.4369 39.9378 24.4617 39.9371 24.4867C39.9365 24.5116 39.9307 24.5362 39.9203 24.5588C39.9098 24.5815 39.8948 24.6018 39.8763 24.6185C39.8577 24.6352 39.8359 24.6479 39.8123 24.6559L36.3712 26.0346C36.3495 26.0432 36.3265 26.0479 36.3032 26.0483Z" fill="black"/>
<path d="M23.3091 55.3407L22.5049 66.0812L22.787 68.7163H30.0323L29.1702 55.7157L23.3091 55.3407Z" fill="white"/>
<path d="M30.2289 68.9002H22.6216L22.321 66.0841L23.14 55.1469L29.3429 55.543L30.2289 68.9002ZM22.9525 68.5326H29.8356L28.9974 55.8886L23.4828 55.5356L22.6896 66.0786L22.9525 68.5326Z" fill="black"/>
<path d="M27.9965 38.025C27.688 38.1498 27.3911 38.3018 27.1095 38.4791C25.0048 39.8062 24.3118 42.2473 23.7787 44.6287C23.2126 47.1608 22.3789 52.9861 22.0867 57.5099C24.3697 57.6551 27.0351 57.8012 29.3181 57.9473L27.9965 38.025Z" fill="black"/>
<path d="M25.9607 47.0533H3.9199C3.87115 47.0533 3.8244 47.0339 3.78992 46.9995C3.75545 46.965 3.73608 46.9182 3.73608 46.8695C3.73608 46.8207 3.75545 46.774 3.78992 46.7395C3.8244 46.705 3.87115 46.6857 3.9199 46.6857H25.9607C26.0095 46.6857 26.0562 46.705 26.0907 46.7395C26.1252 46.774 26.1446 46.8207 26.1446 46.8695C26.1446 46.9182 26.1252 46.965 26.0907 46.9995C26.0562 47.0339 26.0095 47.0533 25.9607 47.0533Z" fill="black"/>
<path d="M15.119 46.9521H5.97212C5.78783 46.9519 5.61114 46.8786 5.48074 46.7484C5.35034 46.6182 5.27685 46.4416 5.27637 46.2573V44.9567C5.27661 44.7723 5.34999 44.5955 5.48042 44.465C5.61084 44.3346 5.78767 44.2612 5.97212 44.261H15.119C15.3034 44.2612 15.4802 44.3346 15.6107 44.465C15.7411 44.5955 15.8145 44.7723 15.8147 44.9567V46.2582C15.814 46.4423 15.7404 46.6187 15.61 46.7487C15.4796 46.8787 15.3031 46.9519 15.119 46.9521V46.9521ZM5.97212 44.6277C5.92903 44.6277 5.88637 44.6362 5.84656 44.6527C5.80675 44.6692 5.77058 44.6933 5.74011 44.7238C5.70964 44.7543 5.68547 44.7905 5.66898 44.8303C5.65249 44.8701 5.64401 44.9127 5.64401 44.9558V46.2573C5.64425 46.3441 5.67893 46.4273 5.74043 46.4887C5.80194 46.55 5.88526 46.5845 5.97212 46.5845H15.119C15.2058 46.5845 15.2891 46.55 15.3507 46.4887C15.4122 46.4273 15.4468 46.3441 15.4471 46.2573V44.9567C15.4471 44.8697 15.4125 44.7863 15.351 44.7247C15.2894 44.6632 15.206 44.6286 15.119 44.6286L5.97212 44.6277Z" fill="black"/>
<path d="M15.1181 41.9736H5.97214C5.68941 41.9736 5.46021 42.2028 5.46021 42.4856V43.7861C5.46021 44.0688 5.68941 44.298 5.97214 44.298H15.1181C15.4008 44.298 15.63 44.0688 15.63 43.7861V42.4856C15.63 42.2028 15.4008 41.9736 15.1181 41.9736Z" fill="#FFBB45"/>
<path d="M17.5206 46.9062H16.2183C16.0341 46.906 15.8575 46.8327 15.7272 46.7024C15.597 46.5722 15.5237 46.3956 15.5234 46.2114V38.6371C15.5237 38.4529 15.597 38.2763 15.7272 38.146C15.8575 38.0158 16.0341 37.9425 16.2183 37.9423H17.5206C17.7048 37.9425 17.8814 38.0158 18.0117 38.146C18.1419 38.2763 18.2152 38.4529 18.2155 38.6371V46.2114C18.2152 46.3956 18.1419 46.5722 18.0117 46.7024C17.8814 46.8327 17.7048 46.906 17.5206 46.9062ZM16.2183 38.3127C16.1316 38.3129 16.0485 38.3474 15.9872 38.4088C15.9259 38.4701 15.8913 38.5532 15.8911 38.6399V46.2141C15.8913 46.3008 15.9259 46.3839 15.9872 46.4452C16.0485 46.5065 16.1316 46.5411 16.2183 46.5413H17.5206C17.6073 46.5411 17.6904 46.5065 17.7517 46.4452C17.813 46.3839 17.8476 46.3008 17.8478 46.2141V38.6371C17.8476 38.5504 17.813 38.4673 17.7517 38.406C17.6904 38.3447 17.6073 38.3101 17.5206 38.3099L16.2183 38.3127Z" fill="black"/>
<path d="M20.0078 38.1262H18.7072C18.4245 38.1262 18.1953 38.3554 18.1953 38.6382V46.2115C18.1953 46.4942 18.4245 46.7234 18.7072 46.7234H20.0078C20.2905 46.7234 20.5197 46.4942 20.5197 46.2115V38.6382C20.5197 38.3554 20.2905 38.1262 20.0078 38.1262Z" fill="#FFC1EB"/>
<path d="M39.2848 39.1869C38.0651 39.1752 36.8738 38.8176 35.8493 38.1557C35.8105 38.1282 35.7839 38.0868 35.775 38.0402C35.7661 37.9935 35.7756 37.9452 35.8015 37.9054C35.8274 37.8656 35.8677 37.8374 35.9139 37.8266C35.9602 37.8159 36.0088 37.8235 36.0496 37.8478C36.6204 38.2154 38.1635 39.0536 40.1148 38.7567C42.805 38.3487 44.1377 36.164 44.3776 35.7302C44.3886 35.708 44.4041 35.6884 44.4229 35.6723C44.4418 35.6563 44.4637 35.6443 44.4874 35.6369C44.511 35.6296 44.5359 35.6271 44.5605 35.6296C44.5851 35.6321 44.609 35.6396 44.6307 35.6515C44.6524 35.6635 44.6714 35.6797 44.6866 35.6992C44.7019 35.7187 44.7131 35.741 44.7195 35.7649C44.7259 35.7888 44.7274 35.8138 44.7239 35.8383C44.7204 35.8628 44.712 35.8864 44.6992 35.9075C44.4446 36.3671 43.0302 38.686 40.1699 39.1198C39.877 39.1646 39.5812 39.1871 39.2848 39.1869Z" fill="white"/>
<path d="M32.6081 40.279L28.396 41.3879C27.8404 41.5342 27.5085 42.1033 27.6548 42.659L29.9132 51.2368C30.0594 51.7925 30.6285 52.1244 31.1842 51.9781L35.3962 50.8691C35.9519 50.7228 36.2838 50.1538 36.1375 49.5981L33.8791 41.0202C33.7328 40.4646 33.1638 40.1327 32.6081 40.279Z" fill="#FFC1EB"/>
<path d="M32.5247 41.7762L32.4548 41.7919C32.2284 41.8426 32.0861 42.0673 32.1368 42.2936L32.5483 44.1285C32.5991 44.3549 32.8237 44.4972 33.0501 44.4465L33.12 44.4308C33.3464 44.38 33.4887 44.1554 33.438 43.929L33.0265 42.0941C32.9757 41.8678 32.7511 41.7254 32.5247 41.7762Z" fill="white"/>
<path d="M34.6692 28.4471C33.7501 28.4471 32.9055 27.732 32.6913 26.7091C32.4515 25.5519 33.1068 24.4343 34.1564 24.2137C35.206 23.9931 36.2547 24.7569 36.4964 25.9141C36.7381 27.0712 36.0819 28.1907 35.0332 28.4094C34.9135 28.4348 34.7915 28.4474 34.6692 28.4471V28.4471ZM34.5176 24.5437C34.4209 24.5435 34.3245 24.5533 34.2299 24.5731C33.3797 24.7514 32.8513 25.676 33.0516 26.6337C33.252 27.5914 34.1058 28.2274 34.956 28.05C35.8061 27.8726 36.3346 26.9471 36.1343 25.9894C35.956 25.1393 35.2666 24.5437 34.5194 24.5437H34.5176Z" fill="black"/>
<path d="M56.7567 13.6028H49.1484C48.0418 13.6028 47.1448 14.4998 47.1448 15.6064V22.7533C47.1448 23.8599 48.0418 24.7569 49.1484 24.7569H56.7567C57.8633 24.7569 58.7603 23.8599 58.7603 22.7533V15.6064C58.7603 14.4998 57.8633 13.6028 56.7567 13.6028Z" fill="white"/>
<path d="M55.5867 16.8969H50.3176C49.8749 16.8969 49.5161 17.2557 49.5161 17.6983V22.1624C49.5161 22.605 49.8749 22.9638 50.3176 22.9638H55.5867C56.0294 22.9638 56.3882 22.605 56.3882 22.1624V17.6983C56.3882 17.2557 56.0294 16.8969 55.5867 16.8969Z" fill="#FFC1EB"/>
<path d="M56.3882 19.065H49.5161C49.4673 19.065 49.4206 19.0457 49.3861 19.0112C49.3516 18.9767 49.3323 18.93 49.3323 18.8812C49.3323 18.8325 49.3516 18.7857 49.3861 18.7512C49.4206 18.7168 49.4673 18.6974 49.5161 18.6974H56.3882C56.4369 18.6974 56.4837 18.7168 56.5182 18.7512C56.5526 18.7857 56.572 18.8325 56.572 18.8812C56.572 18.93 56.5526 18.9767 56.5182 19.0112C56.4837 19.0457 56.4369 19.065 56.3882 19.065Z" fill="#FB6D6D"/>
<path d="M53.2347 17.0817H52.9498C51.2568 17.0817 50.7715 16.4926 50.6622 15.9981C50.6418 15.9075 50.6413 15.8136 50.6606 15.7228C50.68 15.632 50.7188 15.5465 50.7743 15.4721C50.8298 15.3977 50.9008 15.3362 50.9823 15.2918C51.0639 15.2474 51.1541 15.2212 51.2467 15.215C52.3404 15.1406 53.0849 16.7536 53.1171 16.8225L53.2347 17.0817ZM51.3175 15.5808H51.2715C51.2322 15.5838 51.1939 15.5952 51.1594 15.6142C51.1248 15.6332 51.0947 15.6595 51.0712 15.6911C51.0469 15.7231 51.0298 15.7599 51.0213 15.7991C51.0127 15.8384 51.0128 15.879 51.0215 15.9181C51.1235 16.3832 51.6952 16.658 52.6428 16.7058C52.3809 16.2472 51.8754 15.5799 51.3202 15.5799L51.3175 15.5808Z" fill="#FB6D6D"/>
<path d="M52.9287 17.0817H52.6438L52.7614 16.8225C52.7927 16.7536 53.5381 15.1406 54.6318 15.215C54.7244 15.2212 54.8146 15.2474 54.8962 15.2918C54.9777 15.3362 55.0487 15.3977 55.1042 15.4721C55.1598 15.5465 55.1985 15.632 55.2179 15.7228C55.2372 15.8136 55.2367 15.9075 55.2163 15.9981C55.107 16.4916 54.6217 17.0817 52.9287 17.0817ZM54.561 15.5808C54.0096 15.5808 53.5004 16.2481 53.2357 16.7067C54.1833 16.6589 54.755 16.3841 54.857 15.9191C54.8657 15.8799 54.8658 15.8393 54.8572 15.8001C54.8487 15.7608 54.8316 15.724 54.8073 15.692C54.7838 15.6604 54.7537 15.6342 54.7191 15.6151C54.6846 15.5961 54.6463 15.5847 54.607 15.5817L54.561 15.5808Z" fill="#FB6D6D"/>
<path d="M54.7834 20.3095C54.7512 20.3095 54.7195 20.301 54.6916 20.2848C54.6637 20.2687 54.6406 20.2455 54.6244 20.2176L52.9122 17.2654L51.2808 20.1091C51.2687 20.1301 51.2526 20.1484 51.2335 20.1632C51.2143 20.1779 51.1924 20.1887 51.1691 20.195C51.1457 20.2012 51.1214 20.2029 51.0974 20.1997C51.0735 20.1966 51.0503 20.1888 51.0294 20.1767C51.0085 20.1646 50.9901 20.1485 50.9754 20.1294C50.9606 20.1102 50.9498 20.0883 50.9436 20.065C50.9373 20.0416 50.9357 20.0173 50.9388 19.9933C50.942 19.9694 50.9498 19.9463 50.9618 19.9253L52.9103 16.5247L54.9425 20.0283C54.9668 20.0704 54.9734 20.1205 54.9608 20.1676C54.9482 20.2146 54.9175 20.2548 54.8754 20.2792C54.8481 20.2976 54.8163 20.3081 54.7834 20.3095Z" fill="#FB6D6D"/>
<path d="M52.9822 23.1476C52.9334 23.1476 52.8867 23.1283 52.8522 23.0938C52.8177 23.0593 52.7983 23.0126 52.7983 22.9638V17.0908C52.7983 17.042 52.8177 16.9953 52.8522 16.9608C52.8867 16.9263 52.9334 16.907 52.9822 16.907C53.0309 16.907 53.0777 16.9263 53.1121 16.9608C53.1466 16.9953 53.166 17.042 53.166 17.0908V22.9638C53.166 23.0126 53.1466 23.0593 53.1121 23.0938C53.0777 23.1283 53.0309 23.1476 52.9822 23.1476Z" fill="#FB6D6D"/>
<path d="M51.7138 51.6947L29.1343 54.3096L28.866 51.1185L51.0566 48.4972L51.7138 51.6947Z" fill="#C7B8F8"/>
<path d="M53.3231 58.7102L29.3696 61.4188L29.1389 57.9685L52.5685 55.2351L53.3231 58.7102Z" fill="#C7B8F8"/>
<path d="M36.8676 47.6782C36.8676 47.6782 33.8585 47.9447 32.2887 45.249C32.1413 44.9946 31.9406 44.7752 31.7004 44.6057C31.2878 44.3152 30.6701 44.1332 30.0323 44.8621C30.0323 44.8621 28.9955 43.4899 28.2299 44.2739C28.2299 44.2739 27.684 44.9659 28.4137 46.1323C28.4137 46.1323 27.2474 46.6166 28.4027 48.6561C28.5801 48.9695 28.7529 49.2857 28.9064 49.6111C29.5277 50.9217 31.7372 54.6431 37.0036 55.1835C37.3469 55.2203 37.6726 55.3546 37.942 55.5705L50.427 65.4829C51.5772 66.4046 52.9206 67.0546 54.3571 67.3845C56.4122 67.8441 60.1115 67.6033 62.026 64.9342C63.1501 63.3448 63.6356 61.3908 63.3863 59.4601L62.8063 54.7451L52.4077 56.4491L41.9107 49.8675C41.5602 49.6467 41.2748 49.3368 41.0835 48.9695C40.4741 47.8069 38.9392 45.1093 37.2361 43.9356C37.1773 43.8952 37.1194 43.8557 37.0624 43.8134C36.6948 43.5377 36.2352 43.3097 35.7711 43.3024C35.0358 43.2913 34.4127 43.9706 34.8667 44.6599C35.0662 44.9632 35.3869 45.2113 35.6838 45.4154C35.9916 45.6248 36.2535 45.8949 36.4532 46.2091C36.653 46.5233 36.7865 46.8749 36.8455 47.2425C36.8674 47.3867 36.8748 47.5326 36.8676 47.6782V47.6782Z" fill="white"/>
<path d="M33.603 49.5936C33.5749 49.5934 33.5472 49.5868 33.5221 49.5743C33.033 49.336 32.5746 49.0391 32.1572 48.6901C30.7427 47.5035 30.1242 45.9769 29.854 44.9053C29.8418 44.858 29.8489 44.8078 29.8737 44.7657C29.8985 44.7237 29.939 44.6932 29.9863 44.681C30.0336 44.6688 30.0838 44.6759 30.1259 44.7007C30.1679 44.7255 30.1984 44.7661 30.2106 44.8133C30.467 45.8326 31.0543 47.283 32.3934 48.407C32.7868 48.7367 33.2189 49.0172 33.6802 49.2425C33.7177 49.2606 33.7479 49.291 33.7659 49.3286C33.7839 49.3662 33.7885 49.4088 33.7791 49.4494C33.7697 49.49 33.7468 49.5262 33.7141 49.552C33.6815 49.5779 33.641 49.5919 33.5993 49.5917L33.603 49.5936Z" fill="black"/>
<path d="M32.4228 51.1471C32.3944 51.1475 32.3663 51.1409 32.341 51.1278C32.0943 51.0169 31.8647 50.8715 31.659 50.6958C31.5883 50.6388 31.4991 50.5681 31.3833 50.4743C30.0047 49.4073 28.922 47.9284 28.2455 46.1978C28.2355 46.1751 28.2301 46.1506 28.2298 46.1258C28.2294 46.101 28.2341 46.0764 28.2435 46.0534C28.2529 46.0305 28.2669 46.0097 28.2846 45.9923C28.3023 45.9749 28.3233 45.9612 28.3464 45.9522C28.3695 45.9431 28.3942 45.9388 28.419 45.9395C28.4438 45.9403 28.4682 45.946 28.4907 45.9564C28.5132 45.9668 28.5334 45.9817 28.55 46.0001C28.5666 46.0185 28.5794 46.0401 28.5874 46.0636C29.2409 47.7327 30.285 49.1573 31.6085 50.1839C31.7307 50.2758 31.8208 50.3512 31.8925 50.4091C32.0778 50.5687 32.2856 50.7004 32.5092 50.7997C32.5458 50.8184 32.5751 50.849 32.5923 50.8864C32.6096 50.9237 32.6137 50.9658 32.6042 51.0059C32.5947 51.0459 32.572 51.0816 32.5398 51.1072C32.5075 51.1328 32.4676 51.1469 32.4265 51.1471H32.4228Z" fill="black"/>
<path d="M37.7884 69.086H22.3347V65.7506H37.7884C37.9938 65.7509 38.1907 65.8326 38.336 65.9778C38.4812 66.1231 38.5629 66.32 38.5632 66.5254V68.3121C38.5629 68.5175 38.4812 68.7143 38.3359 68.8594C38.1907 69.0045 37.9937 69.086 37.7884 69.086V69.086Z" fill="black"/>
<path d="M24.0756 69.0859H5.9979C5.66107 69.0893 5.33216 68.9838 5.0602 68.785C4.78824 68.5863 4.5878 68.3049 4.48874 67.983L0.0614579 52.9742C-0.2253 52.0018 0.527439 51.033 1.57061 51.033H18.6217C18.9733 51.0298 19.3157 51.1452 19.5936 51.3607C19.8715 51.5762 20.0685 51.8791 20.1529 52.2205L24.0756 69.0859Z" fill="black"/>
<path d="M10.9464 63.9887C12.3301 63.9887 13.4518 62.867 13.4518 61.4832C13.4518 60.0995 12.3301 58.9778 10.9464 58.9778C9.56265 58.9778 8.44092 60.0995 8.44092 61.4832C8.44092 62.867 9.56265 63.9887 10.9464 63.9887Z" fill="#FFC1EB"/>
<path d="M10.3958 59.6956C10.3546 59.6956 10.3146 59.6816 10.2823 59.6561C10.25 59.6306 10.2272 59.595 10.2175 59.555L9.91785 58.328C9.91212 58.3045 9.91107 58.2802 9.91475 58.2563C9.91844 58.2324 9.92679 58.2095 9.93934 58.1888C9.95189 58.1682 9.96838 58.1502 9.98787 58.1359C10.0074 58.1216 10.0295 58.1113 10.053 58.1056C10.0764 58.0999 10.1008 58.0988 10.1247 58.1025C10.1486 58.1062 10.1715 58.1145 10.1922 58.1271C10.2128 58.1396 10.2308 58.1561 10.2451 58.1756C10.2593 58.1951 10.2696 58.2172 10.2754 58.2407L10.5741 59.4677C10.5808 59.4948 10.5812 59.523 10.5754 59.5503C10.5696 59.5775 10.5576 59.6031 10.5404 59.6251C10.5232 59.647 10.5013 59.6648 10.4762 59.677C10.4512 59.6892 10.4237 59.6956 10.3958 59.6956V59.6956Z" fill="#6DC8C2"/>
<path d="M64.8494 54.6185L52.6346 56.6626L48.1494 33.7495L51.3332 33.7945C53.3084 33.8115 55.2262 34.4609 56.8055 35.6474C57.6285 36.2691 58.3286 37.0386 58.8697 37.9167C59.2584 38.5546 59.558 39.2426 59.7604 39.9617L64.8494 54.6185Z" fill="black"/>
<path d="M70.1683 28.1595H56.7247C55.815 28.1595 55.0776 28.8969 55.0776 29.8066V38.4065C55.0776 39.3162 55.815 40.0536 56.7247 40.0536H70.1683C71.0779 40.0536 71.8153 39.3162 71.8153 38.4065V29.8066C71.8153 28.8969 71.0779 28.1595 70.1683 28.1595Z" fill="white"/>
<path d="M70.1682 40.2372H56.7274C56.2416 40.236 55.7761 40.0426 55.4325 39.6992C55.0889 39.3558 54.8953 38.8903 54.8938 38.4046V29.8073C54.8955 29.3217 55.0893 28.8565 55.4328 28.5133C55.7764 28.1701 56.2418 27.9768 56.7274 27.9756H70.1682C70.6535 27.9773 71.1185 28.1708 71.4616 28.514C71.8048 28.8571 71.9983 29.3221 72 29.8073V38.4046C71.9986 38.89 71.8051 39.3552 71.4619 39.6985C71.1188 40.0419 70.6537 40.2355 70.1682 40.2372V40.2372ZM56.7274 28.3432C56.3398 28.3452 55.9686 28.5001 55.6946 28.7742C55.4206 29.0484 55.2659 29.4197 55.2642 29.8073V38.4046C55.2642 38.7928 55.4183 39.1652 55.6926 39.4399C55.967 39.7145 56.3392 39.8691 56.7274 39.8696H70.1682C70.5566 39.8694 70.929 39.7149 71.2036 39.4402C71.4781 39.1655 71.6324 38.793 71.6324 38.4046V29.8073C71.6307 29.4196 71.4759 29.0481 71.2017 28.7739C70.9275 28.4997 70.556 28.3449 70.1682 28.3432H56.7274Z" fill="black"/>
<path d="M69.6002 32.2724H64.6123C64.5635 32.2724 64.5168 32.2531 64.4823 32.2186C64.4478 32.1841 64.4285 32.1374 64.4285 32.0886C64.4285 32.0399 64.4478 31.9931 64.4823 31.9586C64.5168 31.9242 64.5635 31.9048 64.6123 31.9048H69.6002C69.649 31.9048 69.6957 31.9242 69.7302 31.9586C69.7647 31.9931 69.784 32.0399 69.784 32.0886C69.784 32.1374 69.7647 32.1841 69.7302 32.2186C69.6957 32.2531 69.649 32.2724 69.6002 32.2724Z" fill="black"/>
<path d="M69.6002 34.2907H64.6123C64.5635 34.2907 64.5168 34.2714 64.4823 34.2369C64.4478 34.2024 64.4285 34.1557 64.4285 34.1069C64.4285 34.0582 64.4478 34.0114 64.4823 33.9769C64.5168 33.9425 64.5635 33.9231 64.6123 33.9231H69.6002C69.649 33.9231 69.6957 33.9425 69.7302 33.9769C69.7647 34.0114 69.784 34.0582 69.784 34.1069C69.784 34.1557 69.7647 34.2024 69.7302 34.2369C69.6957 34.2714 69.649 34.2907 69.6002 34.2907Z" fill="black"/>
<path d="M67.8595 36.3081H64.6123C64.5635 36.3081 64.5168 36.2887 64.4823 36.2542C64.4478 36.2198 64.4285 36.173 64.4285 36.1242C64.4285 36.0755 64.4478 36.0287 64.4823 35.9943C64.5168 35.9598 64.5635 35.9404 64.6123 35.9404H67.8595C67.9082 35.9404 67.955 35.9598 67.9894 35.9943C68.0239 36.0287 68.0433 36.0755 68.0433 36.1242C68.0433 36.173 68.0239 36.2198 67.9894 36.2542C67.955 36.2887 67.9082 36.3081 67.8595 36.3081Z" fill="black"/>
<path d="M58.9333 31.3046C58.9434 31.5239 59.0378 31.7309 59.1966 31.8826C59.3554 32.0342 59.5666 32.1188 59.7862 32.1188C60.0058 32.1188 60.2169 32.0342 60.3758 31.8826C60.5346 31.7309 60.6289 31.5239 60.6391 31.3046C60.6391 31.3046 62.3927 31.0169 62.4166 33.5334H61.5518V36.9193H57.9452V33.5334H56.9443C56.9443 33.5334 56.9921 31.1171 58.9333 31.3046Z" fill="#C7B8F8"/>
<path d="M55.3019 58.1789C55.2698 58.1797 55.238 58.1718 55.21 58.156L52.4757 56.6468C52.4351 56.6222 52.4055 56.5829 52.3932 56.537C52.3809 56.4912 52.3869 56.4423 52.4098 56.4007C52.4327 56.3591 52.4709 56.328 52.5162 56.3139C52.5616 56.2999 52.6106 56.3039 52.6531 56.3251L55.3874 57.8343C55.4233 57.8541 55.4515 57.8854 55.4676 57.9231C55.4837 57.9609 55.4866 58.0029 55.4761 58.0425C55.4655 58.0821 55.442 58.1171 55.4093 58.1418C55.3766 58.1665 55.3365 58.1796 55.2955 58.1789H55.3019Z" fill="black"/>
<path d="M25.9607 34.5994H3.9199C3.87115 34.5994 3.8244 34.5801 3.78992 34.5456C3.75545 34.5111 3.73608 34.4644 3.73608 34.4156C3.73608 34.3669 3.75545 34.3201 3.78992 34.2857C3.8244 34.2512 3.87115 34.2318 3.9199 34.2318H25.9607C26.0095 34.2318 26.0562 34.2512 26.0907 34.2857C26.1252 34.3201 26.1446 34.3669 26.1446 34.4156C26.1446 34.4644 26.1252 34.5111 26.0907 34.5456C26.0562 34.5801 26.0095 34.5994 25.9607 34.5994Z" fill="black"/>
<path d="M19.1842 34.15C20.9878 34.15 22.4498 32.688 22.4498 30.8844C22.4498 29.0809 20.9878 27.6189 19.1842 27.6189C17.3807 27.6189 15.9187 29.0809 15.9187 30.8844C15.9187 32.688 17.3807 34.15 19.1842 34.15Z" fill="white"/>
<path d="M12.5262 34.4589H7.83149C7.3975 34.4584 6.98143 34.2858 6.67456 33.9789C6.36768 33.6721 6.19507 33.256 6.19458 32.822V26.0731C6.19458 25.6388 6.36698 25.2222 6.67391 24.915C6.98084 24.6077 7.39719 24.4348 7.83149 24.4343H12.529C12.963 24.4348 13.379 24.6074 13.6859 24.9143C13.9928 25.2212 14.1654 25.6372 14.1659 26.0712V32.8202C14.1659 33.0354 14.1235 33.2486 14.0411 33.4475C13.9587 33.6464 13.8379 33.8271 13.6856 33.9793C13.5333 34.1314 13.3526 34.2521 13.1536 34.3344C12.9547 34.4167 12.7415 34.459 12.5262 34.4589ZM7.83149 24.802C7.49501 24.8025 7.17244 24.9363 6.93452 25.1743C6.69659 25.4122 6.5627 25.7348 6.56222 26.0712V32.8202C6.5621 32.987 6.59483 33.1522 6.65855 33.3063C6.72228 33.4605 6.81574 33.6006 6.9336 33.7186C7.05146 33.8366 7.19142 33.9303 7.34548 33.9942C7.49954 34.0582 7.66469 34.0911 7.83149 34.0913H12.529C12.8655 34.0908 13.188 33.9569 13.426 33.719C13.6639 33.481 13.7978 33.1585 13.7983 32.822V26.0731C13.7983 25.9061 13.7654 25.7407 13.7014 25.5864C13.6375 25.4322 13.5438 25.292 13.4256 25.1739C13.3075 25.0559 13.1673 24.9623 13.0129 24.8985C12.8586 24.8346 12.6932 24.8018 12.5262 24.802H7.83149Z" fill="black"/>
<path d="M13.882 32.0343H6.37571C6.32696 32.0343 6.28021 32.0149 6.24573 31.9804C6.21126 31.946 6.19189 31.8992 6.19189 31.8504C6.19189 31.8017 6.21126 31.7549 6.24573 31.7205C6.28021 31.686 6.32696 31.6666 6.37571 31.6666H13.882C13.9307 31.6666 13.9775 31.686 14.0119 31.7205C14.0464 31.7549 14.0658 31.8017 14.0658 31.8504C14.0658 31.8992 14.0464 31.946 14.0119 31.9804C13.9775 32.0149 13.9307 32.0343 13.882 32.0343V32.0343Z" fill="black"/>
<path d="M9.394 33.5813C9.64019 33.5813 9.83977 33.3818 9.83977 33.1356C9.83977 32.8894 9.64019 32.6898 9.394 32.6898C9.14782 32.6898 8.94824 32.8894 8.94824 33.1356C8.94824 33.3818 9.14782 33.5813 9.394 33.5813Z" fill="white"/>
<path d="M10.9582 33.5813C11.2044 33.5813 11.404 33.3818 11.404 33.1356C11.404 32.8894 11.2044 32.6898 10.9582 32.6898C10.712 32.6898 10.5125 32.8894 10.5125 33.1356C10.5125 33.3818 10.712 33.5813 10.9582 33.5813Z" fill="white"/>
<path d="M18.4994 28.4728C18.4575 28.4726 18.4168 28.4582 18.3842 28.4318C18.3516 28.4053 18.329 28.3686 18.3202 28.3275C17.8423 26.1217 18.3818 24.6126 18.9185 23.7321C19.5049 22.7753 20.2053 22.3479 20.2319 22.3304C20.2737 22.3053 20.3238 22.2979 20.3711 22.3097C20.4184 22.3215 20.4591 22.3516 20.4842 22.3934C20.5093 22.4352 20.5168 22.4853 20.505 22.5326C20.4932 22.5799 20.4631 22.6206 20.4212 22.6457C20.311 22.7128 17.8202 24.2798 18.675 28.2467C18.6851 28.2942 18.676 28.3438 18.6496 28.3846C18.6233 28.4254 18.5818 28.4541 18.5343 28.4645C18.523 28.4683 18.5113 28.4711 18.4994 28.4728V28.4728Z" fill="black"/>
<path d="M22.6288 22.5963L21.8375 22.4244C21.8311 22.3812 21.8228 22.3325 21.8127 22.2948L22.5039 21.907C22.6342 21.8192 22.7268 21.6856 22.7632 21.5326C22.7996 21.3797 22.7771 21.2187 22.7002 21.0816C22.6233 20.9445 22.4977 20.8414 22.3482 20.7927C22.1988 20.744 22.0365 20.7533 21.8936 20.8188L21.1666 21.2268C21.1546 21.2333 21.1454 21.2416 21.1344 21.2489C21.0995 21.2232 21.0636 21.1984 21.0269 21.1754L21.1868 20.4355C21.2218 20.2734 21.1909 20.104 21.101 19.9647C21.0111 19.8253 20.8696 19.7274 20.7075 19.6924C20.5454 19.6574 20.376 19.6883 20.2367 19.7782C20.0973 19.8681 19.9994 20.0096 19.9644 20.1717L19.8045 20.907C19.7426 20.9153 19.6812 20.9269 19.6206 20.9419C19.6075 20.9173 19.5931 20.8934 19.5775 20.8702L19.0756 20.2066C18.9758 20.0743 18.8275 19.987 18.6633 19.964C18.4991 19.941 18.3325 19.9841 18.2002 20.084C18.0678 20.1838 17.9805 20.3321 17.9575 20.4963C17.9345 20.6604 17.9777 20.827 18.0775 20.9594L18.5793 21.6257C18.5793 21.6312 18.5885 21.6349 18.5931 21.6404C18.5756 21.6643 18.5609 21.6892 18.5444 21.713L17.7788 21.5476C17.6167 21.5127 17.4474 21.5435 17.308 21.6332C17.1686 21.723 17.0705 21.8644 17.0352 22.0265V22.0265C17.0178 22.1067 17.0164 22.1896 17.031 22.2705C17.0456 22.3513 17.0761 22.4284 17.1205 22.4975C17.165 22.5665 17.2227 22.6262 17.2902 22.6729C17.3577 22.7197 17.4338 22.7527 17.5141 22.77L18.2733 22.9345C18.2733 22.9529 18.2779 22.9713 18.2806 22.9897H18.2742L17.5463 23.3977C17.408 23.4822 17.3078 23.6169 17.2669 23.7737C17.2259 23.9304 17.2473 24.0969 17.3266 24.2382C17.4058 24.3795 17.5368 24.4845 17.6919 24.5313C17.8471 24.578 18.0143 24.5627 18.1584 24.4887L18.8863 24.0806C18.8918 24.0806 18.8955 24.0733 18.901 24.0705C18.9594 24.1193 19.0208 24.1645 19.0848 24.2056L18.9258 24.9409C18.9062 25.0221 18.9031 25.1063 18.9165 25.1887C18.93 25.2711 18.9598 25.35 19.0042 25.4207C19.0486 25.4914 19.1067 25.5525 19.1751 25.6004C19.2434 25.6483 19.3207 25.682 19.4023 25.6996C19.4839 25.7172 19.5682 25.7183 19.6503 25.7029C19.7323 25.6874 19.8104 25.6556 19.88 25.6095C19.9496 25.5634 20.0093 25.5038 20.0555 25.4343C20.1017 25.3648 20.1335 25.2867 20.1491 25.2047L20.3072 24.4694C20.3532 24.463 20.3991 24.4547 20.4442 24.4446L20.9304 25.088C20.977 25.1595 21.0378 25.2208 21.1091 25.268C21.1803 25.3152 21.2604 25.3473 21.3445 25.3623C21.4286 25.3774 21.5149 25.3751 21.5981 25.3555C21.6813 25.3359 21.7596 25.2995 21.8281 25.2485C21.8967 25.1976 21.9541 25.1331 21.9968 25.0591C22.0395 24.9851 22.0666 24.9031 22.0765 24.8183C22.0863 24.7334 22.0787 24.6474 22.054 24.5656C22.0293 24.4838 21.9882 24.4079 21.9331 24.3426L21.5011 23.7681C21.5287 23.7305 21.5553 23.6919 21.5802 23.6514L22.3641 23.8215C22.4444 23.8389 22.5273 23.8403 22.6082 23.8257C22.689 23.8111 22.7661 23.7806 22.8352 23.7362C22.9042 23.6917 22.9639 23.634 23.0106 23.5665C23.0574 23.499 23.0904 23.4229 23.1077 23.3426V23.3426C23.1255 23.2621 23.1273 23.1789 23.1128 23.0978C23.0984 23.0167 23.0681 22.9392 23.0235 22.8698C22.979 22.8005 22.9213 22.7406 22.8535 22.6936C22.7858 22.6467 22.7094 22.6136 22.6288 22.5963V22.5963Z" fill="#FFC1EB"/>
<path d="M22.6288 22.5963L21.8375 22.4244C21.8311 22.3812 21.8228 22.3325 21.8127 22.2948L22.5039 21.907C22.6342 21.8192 22.7268 21.6856 22.7632 21.5326C22.7996 21.3797 22.7771 21.2187 22.7002 21.0816C22.6233 20.9445 22.4977 20.8414 22.3482 20.7927C22.1988 20.744 22.0365 20.7533 21.8936 20.8188L21.1666 21.2268C21.1546 21.2333 21.1454 21.2416 21.1344 21.2489C21.0995 21.2232 21.0636 21.1984 21.0269 21.1754L21.1868 20.4355C21.2218 20.2734 21.1909 20.104 21.101 19.9647C21.0111 19.8253 20.8696 19.7274 20.7075 19.6924C20.5454 19.6574 20.376 19.6883 20.2367 19.7782C20.0973 19.8681 19.9994 20.0096 19.9644 20.1717L19.8045 20.907C19.7426 20.9153 19.6812 20.9269 19.6206 20.9419C19.6075 20.9173 19.5931 20.8934 19.5775 20.8702L19.0756 20.2066C18.9758 20.0743 18.8275 19.987 18.6633 19.964C18.4991 19.941 18.3325 19.9841 18.2002 20.084C18.0678 20.1838 17.9805 20.3321 17.9575 20.4963C17.9345 20.6604 17.9777 20.827 18.0775 20.9594L18.5793 21.6257C18.5793 21.6312 18.5885 21.6349 18.5931 21.6404C18.5756 21.6643 18.5609 21.6892 18.5444 21.713L17.7788 21.5476C17.6167 21.5127 17.4474 21.5435 17.308 21.6332C17.1686 21.723 17.0705 21.8644 17.0352 22.0265V22.0265C17.0178 22.1067 17.0164 22.1896 17.031 22.2705C17.0456 22.3513 17.0761 22.4284 17.1205 22.4975C17.165 22.5665 17.2227 22.6262 17.2902 22.6729C17.3577 22.7197 17.4338 22.7527 17.5141 22.77L18.2733 22.9345C18.2733 22.9529 18.2779 22.9713 18.2806 22.9897H18.2742L17.5463 23.3977C17.408 23.4822 17.3078 23.6169 17.2669 23.7737C17.2259 23.9304 17.2473 24.0969 17.3266 24.2382C17.4058 24.3795 17.5368 24.4845 17.6919 24.5313C17.8471 24.578 18.0143 24.5627 18.1584 24.4887L18.8863 24.0806C18.8918 24.0806 18.8955 24.0733 18.901 24.0705C18.9594 24.1193 19.0208 24.1645 19.0848 24.2056L18.9258 24.9409C18.9062 25.0221 18.9031 25.1063 18.9165 25.1887C18.93 25.2711 18.9598 25.35 19.0042 25.4207C19.0486 25.4914 19.1067 25.5525 19.1751 25.6004C19.2434 25.6483 19.3207 25.682 19.4023 25.6996C19.4839 25.7172 19.5682 25.7183 19.6503 25.7029C19.7323 25.6874 19.8104 25.6556 19.88 25.6095C19.9496 25.5634 20.0093 25.5038 20.0555 25.4343C20.1017 25.3648 20.1335 25.2867 20.1491 25.2047L20.3072 24.4694C20.3532 24.463 20.3991 24.4547 20.4442 24.4446L20.9304 25.088C20.977 25.1595 21.0378 25.2208 21.1091 25.268C21.1803 25.3152 21.2604 25.3473 21.3445 25.3623C21.4286 25.3774 21.5149 25.3751 21.5981 25.3555C21.6813 25.3359 21.7596 25.2995 21.8281 25.2485C21.8967 25.1976 21.9541 25.1331 21.9968 25.0591C22.0395 24.9851 22.0666 24.9031 22.0765 24.8183C22.0863 24.7334 22.0787 24.6474 22.054 24.5656C22.0293 24.4838 21.9882 24.4079 21.9331 24.3426L21.5011 23.7681C21.5287 23.7305 21.5553 23.6919 21.5802 23.6514L22.3641 23.8215C22.4444 23.8389 22.5273 23.8403 22.6082 23.8257C22.689 23.8111 22.7661 23.7806 22.8352 23.7362C22.9042 23.6917 22.9639 23.634 23.0106 23.5665C23.0574 23.499 23.0904 23.4229 23.1077 23.3426V23.3426C23.1255 23.2621 23.1273 23.1789 23.1128 23.0978C23.0984 23.0167 23.0681 22.9392 23.0235 22.8698C22.979 22.8005 22.9213 22.7406 22.8535 22.6936C22.7858 22.6467 22.7094 22.6136 22.6288 22.5963V22.5963Z" fill="#FFC1EB"/>
<path d="M22.6288 22.5963L21.8375 22.4244C21.8311 22.3812 21.8228 22.3325 21.8127 22.2948L22.5039 21.907C22.6342 21.8192 22.7268 21.6856 22.7632 21.5326C22.7996 21.3797 22.7771 21.2187 22.7002 21.0816C22.6233 20.9445 22.4977 20.8414 22.3482 20.7927C22.1988 20.744 22.0365 20.7533 21.8936 20.8188L21.1666 21.2268C21.1546 21.2333 21.1454 21.2416 21.1344 21.2489C21.0995 21.2232 21.0636 21.1984 21.0269 21.1754L21.1868 20.4355C21.2218 20.2734 21.1909 20.104 21.101 19.9647C21.0111 19.8253 20.8696 19.7274 20.7075 19.6924C20.5454 19.6574 20.376 19.6883 20.2367 19.7782C20.0973 19.8681 19.9994 20.0096 19.9644 20.1717L19.8045 20.907C19.7426 20.9153 19.6812 20.9269 19.6206 20.9419C19.6075 20.9173 19.5931 20.8934 19.5775 20.8702L19.0756 20.2066C18.9758 20.0743 18.8275 19.987 18.6633 19.964C18.4991 19.941 18.3325 19.9841 18.2002 20.084C18.0678 20.1838 17.9805 20.3321 17.9575 20.4963C17.9345 20.6604 17.9777 20.827 18.0775 20.9594L18.5793 21.6257C18.5793 21.6312 18.5885 21.6349 18.5931 21.6404C18.5756 21.6643 18.5609 21.6892 18.5444 21.713L17.7788 21.5476C17.6167 21.5127 17.4474 21.5435 17.308 21.6332C17.1686 21.723 17.0705 21.8644 17.0352 22.0265V22.0265C17.0178 22.1067 17.0164 22.1896 17.031 22.2705C17.0456 22.3513 17.0761 22.4284 17.1205 22.4975C17.165 22.5665 17.2227 22.6262 17.2902 22.6729C17.3577 22.7197 17.4338 22.7527 17.5141 22.77L18.2733 22.9345C18.2733 22.9529 18.2779 22.9713 18.2806 22.9897H18.2742L17.5463 23.3977C17.408 23.4822 17.3078 23.6169 17.2669 23.7737C17.2259 23.9304 17.2473 24.0969 17.3266 24.2382C17.4058 24.3795 17.5368 24.4845 17.6919 24.5313C17.8471 24.578 18.0143 24.5627 18.1584 24.4887L18.8863 24.0806C18.8918 24.0806 18.8955 24.0733 18.901 24.0705C18.9594 24.1193 19.0208 24.1645 19.0848 24.2056L18.9258 24.9409C18.9062 25.0221 18.9031 25.1063 18.9165 25.1887C18.93 25.2711 18.9598 25.35 19.0042 25.4207C19.0486 25.4914 19.1067 25.5525 19.1751 25.6004C19.2434 25.6483 19.3207 25.682 19.4023 25.6996C19.4839 25.7172 19.5682 25.7183 19.6503 25.7029C19.7323 25.6874 19.8104 25.6556 19.88 25.6095C19.9496 25.5634 20.0093 25.5038 20.0555 25.4343C20.1017 25.3648 20.1335 25.2867 20.1491 25.2047L20.3072 24.4694C20.3532 24.463 20.3991 24.4547 20.4442 24.4446L20.9304 25.088C20.977 25.1595 21.0378 25.2208 21.1091 25.268C21.1803 25.3152 21.2604 25.3473 21.3445 25.3623C21.4286 25.3774 21.5149 25.3751 21.5981 25.3555C21.6813 25.3359 21.7596 25.2995 21.8281 25.2485C21.8967 25.1976 21.9541 25.1331 21.9968 25.0591C22.0395 24.9851 22.0666 24.9031 22.0765 24.8183C22.0863 24.7334 22.0787 24.6474 22.054 24.5656C22.0293 24.4838 21.9882 24.4079 21.9331 24.3426L21.5011 23.7681C21.5287 23.7305 21.5553 23.6919 21.5802 23.6514L22.3641 23.8215C22.4444 23.8389 22.5273 23.8403 22.6082 23.8257C22.689 23.8111 22.7661 23.7806 22.8352 23.7362C22.9042 23.6917 22.9639 23.634 23.0106 23.5665C23.0574 23.499 23.0904 23.4229 23.1077 23.3426V23.3426C23.1255 23.2621 23.1273 23.1789 23.1128 23.0978C23.0984 23.0167 23.0681 22.9392 23.0235 22.8698C22.979 22.8005 22.9213 22.7406 22.8535 22.6936C22.7858 22.6467 22.7094 22.6136 22.6288 22.5963V22.5963Z" fill="#FFC1EB"/>
<path d="M22.6288 22.5963L21.8375 22.4244C21.8311 22.3812 21.8228 22.3325 21.8127 22.2948L22.5039 21.907C22.6342 21.8192 22.7268 21.6856 22.7632 21.5326C22.7996 21.3797 22.7771 21.2187 22.7002 21.0816C22.6233 20.9445 22.4977 20.8414 22.3482 20.7927C22.1988 20.744 22.0365 20.7533 21.8936 20.8188L21.1666 21.2268C21.1546 21.2333 21.1454 21.2416 21.1344 21.2489C21.0995 21.2232 21.0636 21.1984 21.0269 21.1754L21.1868 20.4355C21.2218 20.2734 21.1909 20.104 21.101 19.9647C21.0111 19.8253 20.8696 19.7274 20.7075 19.6924C20.5454 19.6574 20.376 19.6883 20.2367 19.7782C20.0973 19.8681 19.9994 20.0096 19.9644 20.1717L19.8045 20.907C19.7426 20.9153 19.6812 20.9269 19.6206 20.9419C19.6075 20.9173 19.5931 20.8934 19.5775 20.8702L19.0756 20.2066C18.9758 20.0743 18.8275 19.987 18.6633 19.964C18.4991 19.941 18.3325 19.9841 18.2002 20.084C18.0678 20.1838 17.9805 20.3321 17.9575 20.4963C17.9345 20.6604 17.9777 20.827 18.0775 20.9594L18.5793 21.6257C18.5793 21.6312 18.5885 21.6349 18.5931 21.6404C18.5756 21.6643 18.5609 21.6892 18.5444 21.713L17.7788 21.5476C17.6167 21.5127 17.4474 21.5435 17.308 21.6332C17.1686 21.723 17.0705 21.8644 17.0352 22.0265V22.0265C17.0178 22.1067 17.0164 22.1896 17.031 22.2705C17.0456 22.3513 17.0761 22.4284 17.1205 22.4975C17.165 22.5665 17.2227 22.6262 17.2902 22.6729C17.3577 22.7197 17.4338 22.7527 17.5141 22.77L18.2733 22.9345C18.2733 22.9529 18.2779 22.9713 18.2806 22.9897H18.2742L17.5463 23.3977C17.408 23.4822 17.3078 23.6169 17.2669 23.7737C17.2259 23.9304 17.2473 24.0969 17.3266 24.2382C17.4058 24.3795 17.5368 24.4845 17.6919 24.5313C17.8471 24.578 18.0143 24.5627 18.1584 24.4887L18.8863 24.0806C18.8918 24.0806 18.8955 24.0733 18.901 24.0705C18.9594 24.1193 19.0208 24.1645 19.0848 24.2056L18.9258 24.9409C18.9062 25.0221 18.9031 25.1063 18.9165 25.1887C18.93 25.2711 18.9598 25.35 19.0042 25.4207C19.0486 25.4914 19.1067 25.5525 19.1751 25.6004C19.2434 25.6483 19.3207 25.682 19.4023 25.6996C19.4839 25.7172 19.5682 25.7183 19.6503 25.7029C19.7323 25.6874 19.8104 25.6556 19.88 25.6095C19.9496 25.5634 20.0093 25.5038 20.0555 25.4343C20.1017 25.3648 20.1335 25.2867 20.1491 25.2047L20.3072 24.4694C20.3532 24.463 20.3991 24.4547 20.4442 24.4446L20.9304 25.088C20.977 25.1595 21.0378 25.2208 21.1091 25.268C21.1803 25.3152 21.2604 25.3473 21.3445 25.3623C21.4286 25.3774 21.5149 25.3751 21.5981 25.3555C21.6813 25.3359 21.7596 25.2995 21.8281 25.2485C21.8967 25.1976 21.9541 25.1331 21.9968 25.0591C22.0395 24.9851 22.0666 24.9031 22.0765 24.8183C22.0863 24.7334 22.0787 24.6474 22.054 24.5656C22.0293 24.4838 21.9882 24.4079 21.9331 24.3426L21.5011 23.7681C21.5287 23.7305 21.5553 23.6919 21.5802 23.6514L22.3641 23.8215C22.4444 23.8389 22.5273 23.8403 22.6082 23.8257C22.689 23.8111 22.7661 23.7806 22.8352 23.7362C22.9042 23.6917 22.9639 23.634 23.0106 23.5665C23.0574 23.499 23.0904 23.4229 23.1077 23.3426V23.3426C23.1255 23.2621 23.1273 23.1789 23.1128 23.0978C23.0984 23.0167 23.0681 22.9392 23.0235 22.8698C22.979 22.8005 22.9213 22.7406 22.8535 22.6936C22.7858 22.6467 22.7094 22.6136 22.6288 22.5963V22.5963Z" fill="#FFC1EB"/>
<path d="M22.6288 22.5963L21.8375 22.4244C21.8311 22.3812 21.8228 22.3325 21.8127 22.2948L22.5039 21.907C22.6342 21.8192 22.7268 21.6856 22.7632 21.5326C22.7996 21.3797 22.7771 21.2187 22.7002 21.0816C22.6233 20.9445 22.4977 20.8414 22.3482 20.7927C22.1988 20.744 22.0365 20.7533 21.8936 20.8188L21.1666 21.2268C21.1546 21.2333 21.1454 21.2416 21.1344 21.2489C21.0995 21.2232 21.0636 21.1984 21.0269 21.1754L21.1868 20.4355C21.2218 20.2734 21.1909 20.104 21.101 19.9647C21.0111 19.8253 20.8696 19.7274 20.7075 19.6924C20.5454 19.6574 20.376 19.6883 20.2367 19.7782C20.0973 19.8681 19.9994 20.0096 19.9644 20.1717L19.8045 20.907C19.7426 20.9153 19.6812 20.9269 19.6206 20.9419C19.6075 20.9173 19.5931 20.8934 19.5775 20.8702L19.0756 20.2066C18.9758 20.0743 18.8275 19.987 18.6633 19.964C18.4991 19.941 18.3325 19.9841 18.2002 20.084C18.0678 20.1838 17.9805 20.3321 17.9575 20.4963C17.9345 20.6604 17.9777 20.827 18.0775 20.9594L18.5793 21.6257C18.5793 21.6312 18.5885 21.6349 18.5931 21.6404C18.5756 21.6643 18.5609 21.6892 18.5444 21.713L17.7788 21.5476C17.6167 21.5127 17.4474 21.5435 17.308 21.6332C17.1686 21.723 17.0705 21.8644 17.0352 22.0265V22.0265C17.0178 22.1067 17.0164 22.1896 17.031 22.2705C17.0456 22.3513 17.0761 22.4284 17.1205 22.4975C17.165 22.5665 17.2227 22.6262 17.2902 22.6729C17.3577 22.7197 17.4338 22.7527 17.5141 22.77L18.2733 22.9345C18.2733 22.9529 18.2779 22.9713 18.2806 22.9897H18.2742L17.5463 23.3977C17.408 23.4822 17.3078 23.6169 17.2669 23.7737C17.2259 23.9304 17.2473 24.0969 17.3266 24.2382C17.4058 24.3795 17.5368 24.4845 17.6919 24.5313C17.8471 24.578 18.0143 24.5627 18.1584 24.4887L18.8863 24.0806C18.8918 24.0806 18.8955 24.0733 18.901 24.0705C18.9594 24.1193 19.0208 24.1645 19.0848 24.2056L18.9258 24.9409C18.9062 25.0221 18.9031 25.1063 18.9165 25.1887C18.93 25.2711 18.9598 25.35 19.0042 25.4207C19.0486 25.4914 19.1067 25.5525 19.1751 25.6004C19.2434 25.6483 19.3207 25.682 19.4023 25.6996C19.4839 25.7172 19.5682 25.7183 19.6503 25.7029C19.7323 25.6874 19.8104 25.6556 19.88 25.6095C19.9496 25.5634 20.0093 25.5038 20.0555 25.4343C20.1017 25.3648 20.1335 25.2867 20.1491 25.2047L20.3072 24.4694C20.3532 24.463 20.3991 24.4547 20.4442 24.4446L20.9304 25.088C20.977 25.1595 21.0378 25.2208 21.1091 25.268C21.1803 25.3152 21.2604 25.3473 21.3445 25.3623C21.4286 25.3774 21.5149 25.3751 21.5981 25.3555C21.6813 25.3359 21.7596 25.2995 21.8281 25.2485C21.8967 25.1976 21.9541 25.1331 21.9968 25.0591C22.0395 24.9851 22.0666 24.9031 22.0765 24.8183C22.0863 24.7334 22.0787 24.6474 22.054 24.5656C22.0293 24.4838 21.9882 24.4079 21.9331 24.3426L21.5011 23.7681C21.5287 23.7305 21.5553 23.6919 21.5802 23.6514L22.3641 23.8215C22.4444 23.8389 22.5273 23.8403 22.6082 23.8257C22.689 23.8111 22.7661 23.7806 22.8352 23.7362C22.9042 23.6917 22.9639 23.634 23.0106 23.5665C23.0574 23.499 23.0904 23.4229 23.1077 23.3426V23.3426C23.1255 23.2621 23.1273 23.1789 23.1128 23.0978C23.0984 23.0167 23.0681 22.9392 23.0235 22.8698C22.979 22.8005 22.9213 22.7406 22.8535 22.6936C22.7858 22.6467 22.7094 22.6136 22.6288 22.5963V22.5963Z" fill="#FFC1EB"/>
<path d="M22.6288 22.5963L21.8375 22.4244C21.8311 22.3812 21.8228 22.3325 21.8127 22.2948L22.5039 21.907C22.6342 21.8192 22.7268 21.6856 22.7632 21.5326C22.7996 21.3797 22.7771 21.2187 22.7002 21.0816C22.6233 20.9445 22.4977 20.8414 22.3482 20.7927C22.1988 20.744 22.0365 20.7533 21.8936 20.8188L21.1666 21.2268C21.1546 21.2333 21.1454 21.2416 21.1344 21.2489C21.0995 21.2232 21.0636 21.1984 21.0269 21.1754L21.1868 20.4355C21.2218 20.2734 21.1909 20.104 21.101 19.9647C21.0111 19.8253 20.8696 19.7274 20.7075 19.6924C20.5454 19.6574 20.376 19.6883 20.2367 19.7782C20.0973 19.8681 19.9994 20.0096 19.9644 20.1717L19.8045 20.907C19.7426 20.9153 19.6812 20.9269 19.6206 20.9419C19.6075 20.9173 19.5931 20.8934 19.5775 20.8702L19.0756 20.2066C18.9758 20.0743 18.8275 19.987 18.6633 19.964C18.4991 19.941 18.3325 19.9841 18.2002 20.084C18.0678 20.1838 17.9805 20.3321 17.9575 20.4963C17.9345 20.6604 17.9777 20.827 18.0775 20.9594L18.5793 21.6257C18.5793 21.6312 18.5885 21.6349 18.5931 21.6404C18.5756 21.6643 18.5609 21.6892 18.5444 21.713L17.7788 21.5476C17.6167 21.5127 17.4474 21.5435 17.308 21.6332C17.1686 21.723 17.0705 21.8644 17.0352 22.0265V22.0265C17.0178 22.1067 17.0164 22.1896 17.031 22.2705C17.0456 22.3513 17.0761 22.4284 17.1205 22.4975C17.165 22.5665 17.2227 22.6262 17.2902 22.6729C17.3577 22.7197 17.4338 22.7527 17.5141 22.77L18.2733 22.9345C18.2733 22.9529 18.2779 22.9713 18.2806 22.9897H18.2742L17.5463 23.3977C17.408 23.4822 17.3078 23.6169 17.2669 23.7737C17.2259 23.9304 17.2473 24.0969 17.3266 24.2382C17.4058 24.3795 17.5368 24.4845 17.6919 24.5313C17.8471 24.578 18.0143 24.5627 18.1584 24.4887L18.8863 24.0806C18.8918 24.0806 18.8955 24.0733 18.901 24.0705C18.9594 24.1193 19.0208 24.1645 19.0848 24.2056L18.9258 24.9409C18.9062 25.0221 18.9031 25.1063 18.9165 25.1887C18.93 25.2711 18.9598 25.35 19.0042 25.4207C19.0486 25.4914 19.1067 25.5525 19.1751 25.6004C19.2434 25.6483 19.3207 25.682 19.4023 25.6996C19.4839 25.7172 19.5682 25.7183 19.6503 25.7029C19.7323 25.6874 19.8104 25.6556 19.88 25.6095C19.9496 25.5634 20.0093 25.5038 20.0555 25.4343C20.1017 25.3648 20.1335 25.2867 20.1491 25.2047L20.3072 24.4694C20.3532 24.463 20.3991 24.4547 20.4442 24.4446L20.9304 25.088C20.977 25.1595 21.0378 25.2208 21.1091 25.268C21.1803 25.3152 21.2604 25.3473 21.3445 25.3623C21.4286 25.3774 21.5149 25.3751 21.5981 25.3555C21.6813 25.3359 21.7596 25.2995 21.8281 25.2485C21.8967 25.1976 21.9541 25.1331 21.9968 25.0591C22.0395 24.9851 22.0666 24.9031 22.0765 24.8183C22.0863 24.7334 22.0787 24.6474 22.054 24.5656C22.0293 24.4838 21.9882 24.4079 21.9331 24.3426L21.5011 23.7681C21.5287 23.7305 21.5553 23.6919 21.5802 23.6514L22.3641 23.8215C22.4444 23.8389 22.5273 23.8403 22.6082 23.8257C22.689 23.8111 22.7661 23.7806 22.8352 23.7362C22.9042 23.6917 22.9639 23.634 23.0106 23.5665C23.0574 23.499 23.0904 23.4229 23.1077 23.3426V23.3426C23.1255 23.2621 23.1273 23.1789 23.1128 23.0978C23.0984 23.0167 23.0681 22.9392 23.0235 22.8698C22.979 22.8005 22.9213 22.7406 22.8535 22.6936C22.7858 22.6467 22.7094 22.6136 22.6288 22.5963V22.5963Z" fill="#FFC1EB"/>
<path d="M22.6288 22.5963L21.8375 22.4244C21.8311 22.3812 21.8228 22.3325 21.8127 22.2948L22.5039 21.907C22.6342 21.8192 22.7268 21.6856 22.7632 21.5326C22.7996 21.3797 22.7771 21.2187 22.7002 21.0816C22.6233 20.9445 22.4977 20.8414 22.3482 20.7927C22.1988 20.744 22.0365 20.7533 21.8936 20.8188L21.1666 21.2268C21.1546 21.2333 21.1454 21.2416 21.1344 21.2489C21.0995 21.2232 21.0636 21.1984 21.0269 21.1754L21.1868 20.4355C21.2218 20.2734 21.1909 20.104 21.101 19.9647C21.0111 19.8253 20.8696 19.7274 20.7075 19.6924C20.5454 19.6574 20.376 19.6883 20.2367 19.7782C20.0973 19.8681 19.9994 20.0096 19.9644 20.1717L19.8045 20.907C19.7426 20.9153 19.6812 20.9269 19.6206 20.9419C19.6075 20.9173 19.5931 20.8934 19.5775 20.8702L19.0756 20.2066C18.9758 20.0743 18.8275 19.987 18.6633 19.964C18.4991 19.941 18.3325 19.9841 18.2002 20.084C18.0678 20.1838 17.9805 20.3321 17.9575 20.4963C17.9345 20.6604 17.9777 20.827 18.0775 20.9594L18.5793 21.6257C18.5793 21.6312 18.5885 21.6349 18.5931 21.6404C18.5756 21.6643 18.5609 21.6892 18.5444 21.713L17.7788 21.5476C17.6167 21.5127 17.4474 21.5435 17.308 21.6332C17.1686 21.723 17.0705 21.8644 17.0352 22.0265V22.0265C17.0178 22.1067 17.0164 22.1896 17.031 22.2705C17.0456 22.3513 17.0761 22.4284 17.1205 22.4975C17.165 22.5665 17.2227 22.6262 17.2902 22.6729C17.3577 22.7197 17.4338 22.7527 17.5141 22.77L18.2733 22.9345C18.2733 22.9529 18.2779 22.9713 18.2806 22.9897H18.2742L17.5463 23.3977C17.408 23.4822 17.3078 23.6169 17.2669 23.7737C17.2259 23.9304 17.2473 24.0969 17.3266 24.2382C17.4058 24.3795 17.5368 24.4845 17.6919 24.5313C17.8471 24.578 18.0143 24.5627 18.1584 24.4887L18.8863 24.0806C18.8918 24.0806 18.8955 24.0733 18.901 24.0705C18.9594 24.1193 19.0208 24.1645 19.0848 24.2056L18.9258 24.9409C18.9062 25.0221 18.9031 25.1063 18.9165 25.1887C18.93 25.2711 18.9598 25.35 19.0042 25.4207C19.0486 25.4914 19.1067 25.5525 19.1751 25.6004C19.2434 25.6483 19.3207 25.682 19.4023 25.6996C19.4839 25.7172 19.5682 25.7183 19.6503 25.7029C19.7323 25.6874 19.8104 25.6556 19.88 25.6095C19.9496 25.5634 20.0093 25.5038 20.0555 25.4343C20.1017 25.3648 20.1335 25.2867 20.1491 25.2047L20.3072 24.4694C20.3532 24.463 20.3991 24.4547 20.4442 24.4446L20.9304 25.088C20.977 25.1595 21.0378 25.2208 21.1091 25.268C21.1803 25.3152 21.2604 25.3473 21.3445 25.3623C21.4286 25.3774 21.5149 25.3751 21.5981 25.3555C21.6813 25.3359 21.7596 25.2995 21.8281 25.2485C21.8967 25.1976 21.9541 25.1331 21.9968 25.0591C22.0395 24.9851 22.0666 24.9031 22.0765 24.8183C22.0863 24.7334 22.0787 24.6474 22.054 24.5656C22.0293 24.4838 21.9882 24.4079 21.9331 24.3426L21.5011 23.7681C21.5287 23.7305 21.5553 23.6919 21.5802 23.6514L22.3641 23.8215C22.4444 23.8389 22.5273 23.8403 22.6082 23.8257C22.689 23.8111 22.7661 23.7806 22.8352 23.7362C22.9042 23.6917 22.9639 23.634 23.0106 23.5665C23.0574 23.499 23.0904 23.4229 23.1077 23.3426V23.3426C23.1255 23.2621 23.1273 23.1789 23.1128 23.0978C23.0984 23.0167 23.0681 22.9392 23.0235 22.8698C22.979 22.8005 22.9213 22.7406 22.8535 22.6936C22.7858 22.6467 22.7094 22.6136 22.6288 22.5963V22.5963Z" fill="#FFC1EB"/>
<path d="M20.072 23.5179C20.5293 23.5179 20.9001 23.1471 20.9001 22.6898C20.9001 22.2324 20.5293 21.8617 20.072 21.8617C19.6146 21.8617 19.2439 22.2324 19.2439 22.6898C19.2439 23.1471 19.6146 23.5179 20.072 23.5179Z" fill="white"/>
<path d="M18.6655 29.2012C19.1034 29.1265 19.4089 28.7763 19.348 28.419C19.287 28.0618 18.8827 27.8327 18.4449 27.9074C18.007 27.9821 17.7015 28.3322 17.7624 28.6895C17.8234 29.0468 18.2277 29.2758 18.6655 29.2012Z" fill="black"/>
<path d="M17.5675 33.5951C17.5277 33.5949 17.4891 33.5818 17.4574 33.5578C17.4257 33.5338 17.4026 33.5002 17.3917 33.462C17.3807 33.4238 17.3824 33.3831 17.3965 33.3459C17.4107 33.3088 17.4365 33.2772 17.47 33.2559C17.9347 32.9642 18.4648 32.793 19.0123 32.7578C19.6901 32.7198 20.3634 32.8894 20.9424 33.244C20.9831 33.2698 21.0121 33.3107 21.023 33.3577C21.0339 33.4047 21.0259 33.4541 21.0007 33.4953C20.9754 33.5364 20.935 33.566 20.8882 33.5776C20.8414 33.5892 20.7918 33.582 20.7503 33.5574C20.2355 33.2425 19.6369 33.0918 19.0343 33.1254C18.5485 33.1567 18.0781 33.3086 17.6658 33.5675C17.6362 33.5856 17.6022 33.5951 17.5675 33.5951V33.5951Z" fill="black"/>
</svg>
