<svg width="72" height="59" viewBox="0 0 72 59" fill="none" xmlns="http://www.w3.org/2000/svg">
<path d="M50.6623 0.438796L9.24377 18.5883C5.62894 20.1725 5.08377 25.0765 8.26363 27.4146L44.6887 54.213C47.8677 56.5519 52.3873 54.5718 52.8222 50.6504L57.8157 5.70321C58.2515 1.77851 54.2771 -1.14533 50.6623 0.438796Z" fill="#FFC1EB"/>
<path d="M64.2012 56.2171H3.66705C3.6231 56.2171 3.58095 56.1997 3.54988 56.1686C3.5188 56.1375 3.50134 56.0954 3.50134 56.0514C3.50134 56.0075 3.5188 55.9653 3.54988 55.9343C3.58095 55.9032 3.6231 55.8857 3.66705 55.8857H64.2012C64.2451 55.8857 64.2873 55.9032 64.3183 55.9343C64.3494 55.9653 64.3669 56.0075 64.3669 56.0514C64.3669 56.0954 64.3494 56.1375 64.3183 56.1686C64.2873 56.1997 64.2451 56.2171 64.2012 56.2171Z" fill="black"/>
<path d="M41.4922 23.2745L43.5585 16.4458C43.5873 16.3505 43.6368 16.2627 43.7034 16.1887C43.7701 16.1147 43.8522 16.0563 43.944 16.0177C44.0358 15.9791 44.135 15.9612 44.2345 15.9653C44.334 15.9694 44.4313 15.9954 44.5196 16.0415L46.75 17.2014C46.8464 17.2516 46.9293 17.3243 46.9917 17.4133C47.0542 17.5023 47.0942 17.6051 47.1085 17.7128C47.1228 17.8206 47.111 17.9302 47.0739 18.0324C47.0369 18.1346 46.9758 18.2264 46.8958 18.3L41.4922 23.2745Z" fill="#FB6D6D"/>
<path d="M40.9628 23.0069L46.8585 19.3365C46.95 19.2796 47.0532 19.244 47.1604 19.2323C47.2676 19.2207 47.376 19.2333 47.4776 19.2693C47.5792 19.3053 47.6714 19.3637 47.7474 19.4401C47.8234 19.5166 47.8812 19.6092 47.9165 19.711L48.6987 21.9753C48.7358 22.0829 48.7469 22.1976 48.731 22.3103C48.7151 22.4229 48.6727 22.5301 48.6072 22.6232C48.5418 22.7162 48.4552 22.7924 48.3545 22.8454C48.2539 22.8984 48.1421 22.9268 48.0284 22.9281L40.9628 23.0069Z" fill="#FB6D6D"/>
<path d="M32.6263 35.6426C35.3713 35.6426 37.5966 33.4173 37.5966 30.6723C37.5966 27.9273 35.3713 25.702 32.6263 25.702C29.8813 25.702 27.656 27.9273 27.656 30.6723C27.656 33.4173 29.8813 35.6426 32.6263 35.6426Z" fill="black"/>
<path d="M21.9292 9.06616H2.41094C1.1709 9.06616 0.165649 10.0714 0.165649 11.3115V19.9529C0.165649 21.1929 1.1709 22.1982 2.41094 22.1982H21.9292C23.1692 22.1982 24.1745 21.1929 24.1745 19.9529V11.3115C24.1745 10.0714 23.1692 9.06616 21.9292 9.06616Z" fill="white"/>
<path d="M21.9293 22.364H2.41182C1.77237 22.3633 1.15929 22.109 0.707132 21.6568C0.254971 21.2047 0.000657986 20.5916 0 19.9521V11.3123C0.000657986 10.6729 0.254971 10.0598 0.707132 9.60765C1.15929 9.15548 1.77237 8.90117 2.41182 8.90051H21.9293C22.5686 8.90139 23.1814 9.1558 23.6334 9.60794C24.0854 10.0601 24.3396 10.673 24.3402 11.3123V19.9521C24.3396 20.5914 24.0854 21.2044 23.6334 21.6565C23.1814 22.1087 22.5686 22.3631 21.9293 22.364ZM2.41182 9.23192C1.8602 9.23236 1.33129 9.45169 0.941231 9.84174C0.551173 10.2318 0.331847 10.7607 0.331408 11.3123V19.9521C0.331847 20.5038 0.551173 21.0327 0.941231 21.4227C1.33129 21.8128 1.8602 22.0321 2.41182 22.0325H21.9293C22.4807 22.0319 23.0094 21.8125 23.3993 21.4224C23.7892 21.0324 24.0084 20.5036 24.0088 19.9521V11.3123C24.0084 10.7609 23.7892 10.2321 23.3993 9.84204C23.0094 9.452 22.4807 9.23258 21.9293 9.23192H2.41182Z" fill="black"/>
<path d="M4.54776 13.4971C4.50452 13.4971 4.46299 13.4802 4.43203 13.45C4.40107 13.4199 4.38314 13.3788 4.38206 13.3355C4.36631 12.6611 4.6157 12.2585 4.82863 12.0389C5.06351 11.7905 5.38677 11.6447 5.7284 11.6329H5.73751C6.06746 11.6399 6.3813 11.7769 6.61077 12.0141C6.82785 12.232 7.08552 12.6379 7.07723 13.3331C7.07723 13.377 7.05977 13.4192 7.0287 13.4502C6.99762 13.4813 6.95547 13.4988 6.91153 13.4988C6.86758 13.4988 6.82543 13.4813 6.79436 13.4502C6.76328 13.4192 6.74582 13.377 6.74582 13.3331C6.75245 12.7531 6.54864 12.4217 6.3763 12.2518C6.20782 12.0781 5.97854 11.9766 5.73669 11.9685H5.73089C5.47863 11.9797 5.24077 12.0892 5.06807 12.2734C4.82697 12.5219 4.70435 12.8881 4.71512 13.3314C4.71567 13.3532 4.71193 13.3748 4.70411 13.3951C4.69629 13.4154 4.68454 13.434 4.66953 13.4498C4.65453 13.4656 4.63656 13.4782 4.61667 13.4871C4.59677 13.4959 4.57532 13.5007 4.55356 13.5012L4.54776 13.4971Z" fill="black"/>
<path d="M8.11032 19.8842H3.37285C3.25682 19.8841 3.14215 19.8593 3.0365 19.8113C2.93085 19.7634 2.83667 19.6934 2.76026 19.6061C2.68385 19.5188 2.62698 19.4162 2.59346 19.3051C2.55993 19.194 2.55053 19.077 2.56587 18.962L3.22868 14.0373C3.25479 13.8418 3.35102 13.6625 3.49946 13.5326C3.6479 13.4028 3.83845 13.3313 4.03566 13.3314H7.33814C7.53217 13.3314 7.71982 13.4007 7.86731 13.5268C8.0148 13.6528 8.11243 13.8274 8.14263 14.0191L8.91233 18.9446C8.93064 19.0606 8.92361 19.1791 8.89174 19.2921C8.85986 19.4051 8.80389 19.5098 8.72768 19.5991C8.65147 19.6884 8.55682 19.7601 8.45025 19.8093C8.34368 19.8585 8.22771 19.8841 8.11032 19.8842Z" fill="#C7B8F8"/>
<path d="M20.9814 12.58H12.0044C11.648 12.58 11.359 12.8689 11.359 13.2254V13.7266C11.359 14.0831 11.648 14.372 12.0044 14.372H20.9814C21.3379 14.372 21.6268 14.0831 21.6268 13.7266V13.2254C21.6268 12.8689 21.3379 12.58 20.9814 12.58Z" fill="#FFBB45"/>
<path d="M21.1985 16.6405H11.7881C11.7442 16.6405 11.702 16.623 11.671 16.592C11.6399 16.5609 11.6224 16.5187 11.6224 16.4748C11.6224 16.4308 11.6399 16.3887 11.671 16.3576C11.702 16.3265 11.7442 16.3091 11.7881 16.3091H21.1985C21.2424 16.3091 21.2846 16.3265 21.3156 16.3576C21.3467 16.3887 21.3642 16.4308 21.3642 16.4748C21.3642 16.5187 21.3467 16.5609 21.3156 16.592C21.2846 16.623 21.2424 16.6405 21.1985 16.6405Z" fill="black"/>
<path d="M19.8737 18.7698H11.7881C11.7442 18.7698 11.702 18.7523 11.671 18.7212C11.6399 18.6902 11.6224 18.648 11.6224 18.6041C11.6224 18.5601 11.6399 18.518 11.671 18.4869C11.702 18.4558 11.7442 18.4384 11.7881 18.4384H19.8737C19.9176 18.4384 19.9598 18.4558 19.9908 18.4869C20.0219 18.518 20.0394 18.5601 20.0394 18.6041C20.0394 18.648 20.0219 18.6902 19.9908 18.7212C19.9598 18.7523 19.9176 18.7698 19.8737 18.7698Z" fill="black"/>
<path d="M47.4899 39.9309C50.3599 39.9309 52.6864 37.6192 52.6864 34.7676C52.6864 31.9159 50.3599 29.6042 47.4899 29.6042C44.62 29.6042 42.2935 31.9159 42.2935 34.7676C42.2935 37.6192 44.62 39.9309 47.4899 39.9309Z" fill="black"/>
<path d="M42.2934 32.9647C45.1633 32.9647 47.4899 30.653 47.4899 27.8014C47.4899 24.9498 45.1633 22.6381 42.2934 22.6381C39.4235 22.6381 37.0969 24.9498 37.0969 27.8014C37.0969 30.653 39.4235 32.9647 42.2934 32.9647Z" fill="black"/>
<path d="M37.7282 26.9722H34.5699C33.7925 26.9722 33.0226 26.8191 32.3043 26.5215C31.5861 26.224 30.9334 25.7878 30.3837 25.2381C29.834 24.6883 29.398 24.0356 29.1005 23.3173C28.8031 22.5989 28.65 21.8291 28.6501 21.0516V17.0118C28.6512 16.0831 29.021 15.1928 29.6781 14.5366C30.3353 13.8803 31.2261 13.5119 32.1548 13.5121H36.4192C37.8642 13.5121 39.25 14.0861 40.2717 15.1079C41.2935 16.1296 41.8675 17.5154 41.8675 18.9604V22.8404C41.8671 23.3835 41.7597 23.9212 41.5514 24.4228C41.3431 24.9244 41.0381 25.38 40.6537 25.7637C40.2693 26.1474 39.8131 26.4516 39.3112 26.6589C38.8092 26.8663 38.2713 26.9728 37.7282 26.9722Z" fill="black"/>
<path d="M29.9567 14.8956C29.9567 14.8956 28.0826 15.1724 27.5905 19.136C27.5323 19.6202 27.3233 20.0738 26.9931 20.4326L26.6915 20.7591C26.6155 20.8412 26.5722 20.9484 26.5699 21.0604C26.5676 21.1723 26.6065 21.2812 26.6791 21.3664L27.0875 21.8469L26.8812 24.3822C26.8812 24.3822 26.467 27.084 29.6477 27.0003H31.6709V29.8032H38.0298V24.9853C38.0298 24.9853 39.4789 24.7368 39.7424 23.3101C39.8089 22.9534 39.7938 22.5864 39.6983 22.2364C39.6027 21.8864 39.4291 21.5626 39.1906 21.2893C38.7158 20.7516 37.879 20.2951 36.5012 20.938C36.502 20.938 31.0288 22.0366 29.9567 14.8956Z" fill="white"/>
<path d="M37.5965 23.9223C37.4654 23.9223 37.3373 23.8834 37.2283 23.8106C37.1193 23.7378 37.0343 23.6343 36.9842 23.5131C36.934 23.392 36.9209 23.2588 36.9465 23.1302C36.972 23.0016 37.0352 22.8835 37.1279 22.7908C37.2205 22.6981 37.3387 22.635 37.4672 22.6094C37.5958 22.5838 37.7291 22.597 37.8502 22.6471C37.9713 22.6973 38.0748 22.7823 38.1476 22.8913C38.2205 23.0003 38.2593 23.1284 38.2593 23.2595C38.2593 23.4353 38.1895 23.6039 38.0652 23.7282C37.9409 23.8525 37.7723 23.9223 37.5965 23.9223ZM37.5965 22.9231C37.531 22.9231 37.4669 22.9426 37.4124 22.979C37.3579 23.0154 37.3154 23.0671 37.2903 23.1277C37.2653 23.1883 37.2587 23.2549 37.2715 23.3192C37.2843 23.3835 37.3158 23.4425 37.3622 23.4889C37.4085 23.5352 37.4676 23.5668 37.5319 23.5796C37.5962 23.5924 37.6628 23.5858 37.7234 23.5607C37.7839 23.5356 37.8357 23.4931 37.8721 23.4386C37.9085 23.3841 37.9279 23.3201 37.9279 23.2545C37.9279 23.1666 37.893 23.0823 37.8309 23.0202C37.7687 22.958 37.6844 22.9231 37.5965 22.9231Z" fill="black"/>
<path d="M37.097 23.4227C37.0539 23.4228 37.0125 23.406 36.9816 23.376C36.9506 23.346 36.9326 23.3051 36.9313 23.262C36.9197 22.9198 37.0216 22.6431 37.2354 22.4393C37.6596 22.035 38.368 22.0863 38.3953 22.0888C38.4392 22.0922 38.48 22.1129 38.5087 22.1464C38.5374 22.1799 38.5516 22.2234 38.5482 22.2674C38.5448 22.3113 38.524 22.3521 38.4906 22.3808C38.4571 22.4094 38.4136 22.4236 38.3696 22.4202C38.3638 22.4202 37.7764 22.3788 37.4582 22.682C37.3149 22.8196 37.2495 23.006 37.2577 23.2529C37.2585 23.2747 37.255 23.2965 37.2473 23.3169C37.2396 23.3374 37.228 23.3561 37.2131 23.3721C37.1981 23.388 37.1802 23.4008 37.1603 23.4098C37.1403 23.4188 37.1188 23.4238 37.097 23.4244V23.4227Z" fill="black"/>
<path d="M30.6237 20.9331C30.8401 20.9331 31.0156 20.7576 31.0156 20.5412C31.0156 20.3247 30.8401 20.1493 30.6237 20.1493C30.4073 20.1493 30.2318 20.3247 30.2318 20.5412C30.2318 20.7576 30.4073 20.9331 30.6237 20.9331Z" fill="black"/>
<path d="M29.2476 24.2381C29.088 24.2387 28.9299 24.2071 28.7828 24.1453C28.3064 23.944 27.9866 23.4129 27.9874 22.8246C27.9876 22.7753 27.9986 22.7266 28.0196 22.682C28.0406 22.6373 28.0712 22.5978 28.1091 22.5663C28.147 22.5347 28.1913 22.5118 28.239 22.4992C28.2867 22.4865 28.3366 22.4845 28.3851 22.4932L30.3611 22.8462C30.4117 22.8555 30.4594 22.8762 30.5008 22.9066C30.5421 22.9371 30.5761 22.9765 30.6 23.022C30.6239 23.0675 30.6372 23.1177 30.6389 23.1691C30.6406 23.2204 30.6306 23.2715 30.6097 23.3184C30.3562 23.8818 29.7953 24.2381 29.2476 24.2381ZM28.3255 22.8155C28.3245 22.8179 28.3245 22.8206 28.3255 22.823C28.3255 23.2803 28.5632 23.6879 28.9187 23.8387C29.4638 24.0691 30.0919 23.673 30.3147 23.1759L30.3098 23.166L28.3329 22.813L28.3255 22.8155Z" fill="black"/>
<path d="M31.6188 27.0037H34.657C34.6839 27.0039 34.7099 27.0133 34.7307 27.0304C34.7515 27.0475 34.7658 27.0712 34.7713 27.0976C34.7767 27.124 34.7729 27.1514 34.7605 27.1753C34.7482 27.1992 34.728 27.2182 34.7034 27.229L31.6188 28.5464V27.0037Z" fill="black"/>
<path d="M31.6188 29.7386C31.6181 29.5874 31.6661 29.4401 31.7556 29.3184C31.8452 29.1966 31.9715 29.1069 32.1159 29.0625C32.2264 29.029 32.3399 29.0063 32.4548 28.9945C32.8887 28.9543 33.3235 29.0621 33.6884 29.3003C33.9932 29.0641 34.3675 28.9356 34.7531 28.9347C35.1386 28.9338 35.5135 29.0606 35.8194 29.2953C36.128 29.0881 36.4885 28.9716 36.86 28.9589C37.0931 28.9525 37.3254 28.9878 37.546 29.0633C37.6834 29.1113 37.8025 29.2009 37.8867 29.3197C37.9709 29.4385 38.016 29.5805 38.0158 29.7261V31.176H31.6188V29.7386Z" fill="#C7B8F8"/>
<path d="M56.2846 50.6546L19.7262 50.6239L21.3468 35.7876C21.5004 34.3816 22.1669 33.0815 23.2189 32.136C24.2708 31.1905 25.6343 30.6659 27.0487 30.6624L42.1617 30.6243C43.9249 30.62 45.6493 31.1426 47.1135 32.125C48.5778 33.1074 49.7151 34.5049 50.3798 36.1381C53.4453 43.1871 55.6632 48.3339 55.9052 48.9445C56.0203 49.2439 56.1125 49.5516 56.1811 49.865C56.2348 50.1253 56.2694 50.3892 56.2846 50.6546Z" fill="#C7B8F8"/>
<path d="M45.2238 50.6354H26.4844V37.9351H40.6264C40.8196 37.9351 41.0077 37.9969 41.1632 38.1116C41.3187 38.2262 41.4334 38.3876 41.4905 38.5722L45.2238 50.6354Z" fill="black"/>
<path d="M40.6239 38.1008C40.5845 38.1014 40.5461 38.0879 40.5157 38.0626C40.4853 38.0374 40.4649 38.0022 40.4582 37.9633C40.4118 37.689 39.3455 31.2432 41.5701 30.4685C41.6116 30.454 41.6572 30.4566 41.6969 30.4757C41.7365 30.4948 41.7669 30.5289 41.7814 30.5704C41.7959 30.6119 41.7933 30.6575 41.7742 30.6972C41.7551 30.7368 41.721 30.7672 41.6795 30.7817C40.0498 31.3484 40.4814 36.1182 40.7855 37.9069C40.7892 37.9284 40.7886 37.9504 40.7837 37.9717C40.7789 37.993 40.7699 38.0131 40.7573 38.0308C40.7447 38.0486 40.7287 38.0637 40.7102 38.0753C40.6917 38.0869 40.6711 38.0947 40.6496 38.0983C40.6411 38.0999 40.6326 38.1007 40.6239 38.1008Z" fill="black"/>
<path d="M26.8987 38.1009C26.8613 38.1009 26.825 38.0884 26.7957 38.0652C26.7664 38.042 26.7457 38.0096 26.7371 37.9733C26.3045 36.1697 26.2929 34.2907 26.7032 32.4818C26.852 31.8379 27.0548 31.2076 27.3097 30.5978C27.3274 30.5584 27.3597 30.5276 27.3999 30.5117C27.44 30.4959 27.4847 30.4963 27.5246 30.5129C27.5644 30.5295 27.5962 30.561 27.6131 30.6007C27.6301 30.6404 27.6309 30.6851 27.6154 30.7254C27.368 31.3181 27.1709 31.9306 27.0263 32.5564C26.6272 34.3159 26.6388 36.1436 27.0603 37.8979C27.0652 37.9191 27.0659 37.9411 27.0623 37.9625C27.0587 37.984 27.0509 38.0046 27.0394 38.0231C27.0278 38.0415 27.0127 38.0575 26.995 38.0702C26.9773 38.0828 26.9572 38.0918 26.936 38.0967C26.9238 38.0997 26.9113 38.1011 26.8987 38.1009Z" fill="black"/>
<path d="M24.5299 27.7393C24.3576 27.5166 24.1599 27.3147 23.9408 27.1378L23.9317 27.1295C23.522 26.7658 23.166 26.3457 22.8745 25.8817C22.616 25.4675 22.4603 25.0433 22.2067 24.3904C22.08 24.0656 21.9905 23.8105 21.9408 23.6679C21.3501 21.9711 20.9623 20.45 20.3625 20.2312C20.2721 20.2006 20.1783 20.1814 20.0832 20.1741C19.9567 20.1622 19.829 20.1758 19.7078 20.2141C19.5865 20.2524 19.4742 20.3145 19.3774 20.397C19.3131 20.4517 19.2573 20.5157 19.2116 20.5867C18.9797 20.9554 19.0948 21.4898 19.3326 22.5428C19.3707 22.7085 19.4047 22.8452 19.4271 22.9364L19.9084 25.1435C19.9084 25.1435 18.7253 25.4112 18.7916 26.349C18.7916 26.349 17.6979 25.7011 17.2737 26.9737C17.2737 26.9737 15.8901 27.0856 16.2919 28.6034C16.2919 28.6034 16.8495 30.635 17.6756 30.7021C17.6756 30.7021 17.5198 33.872 20.1537 35.2589L24.462 34.7171L24.7453 33.4892C25.491 30.258 25.1546 29.2099 25.0295 28.8222C24.9086 28.4419 24.7408 28.0781 24.5299 27.7393Z" fill="white"/>
<path d="M20.7121 33.462C20.686 33.462 20.6602 33.4559 20.6369 33.4441C20.6135 33.4323 20.5933 33.4151 20.5779 33.394C20.0805 32.7187 19.7717 31.9232 19.6831 31.0891C19.495 29.1835 20.5837 27.775 21.0295 27.2903L20.684 26.3988C20.65 26.3085 20.6061 26.1934 20.5572 26.079C20.283 25.4419 20.1595 24.9067 20.191 24.4874C20.1999 24.3608 20.2344 24.2373 20.2923 24.1244C20.3503 24.0115 20.4305 23.9115 20.5282 23.8304C20.6239 23.7506 20.7347 23.6911 20.8541 23.6555C20.9734 23.6199 21.0988 23.609 21.2225 23.6233C21.9731 23.7061 22.4222 24.5645 22.4413 24.6001C22.4513 24.6195 22.4574 24.6406 22.4592 24.6624C22.461 24.6841 22.4586 24.706 22.452 24.7267C22.4453 24.7475 22.4347 24.7668 22.4206 24.7834C22.4066 24.8001 22.3894 24.8138 22.37 24.8238C22.3506 24.8338 22.3295 24.8399 22.3078 24.8418C22.286 24.8436 22.2642 24.8411 22.2434 24.8345C22.2226 24.8279 22.2034 24.8173 22.1867 24.8032C22.17 24.7891 22.1563 24.7719 22.1463 24.7526C22.1463 24.7451 21.7594 24.016 21.1861 23.953C21.1065 23.9437 21.0259 23.9507 20.9491 23.9734C20.8724 23.9962 20.801 24.0344 20.7395 24.0856C20.6762 24.1383 20.6242 24.2032 20.5867 24.2766C20.5493 24.3499 20.5271 24.4301 20.5216 24.5123C20.4942 24.8777 20.6086 25.3607 20.8613 25.9481C20.9135 26.0683 20.959 26.1892 20.9938 26.2795L21.4147 27.3649L21.341 27.4411C20.9822 27.8131 19.8273 29.1727 20.0154 31.0551C20.097 31.8298 20.3829 32.5689 20.8439 33.1968C20.8697 33.2322 20.8805 33.2764 20.8738 33.3198C20.8671 33.3631 20.8436 33.402 20.8082 33.428C20.7806 33.4491 20.7469 33.461 20.7121 33.462Z" fill="black"/>
<path d="M30.0976 49.8261C28.9756 49.7521 27.8496 49.8858 26.7761 50.2204C22.7818 51.479 21.0096 55.1675 20.6334 56.0027L30.0976 56.0516V49.8261Z" fill="white"/>
<path d="M30.2633 56.2181L20.3774 56.1667L20.4818 55.9347C21.0999 54.566 22.9442 51.2544 26.7264 50.0622C27.8191 49.7214 28.9654 49.5852 30.1076 49.6603L30.2633 49.6703V56.2181ZM20.8928 55.8386L29.9319 55.885V49.9826C28.8812 49.9315 27.8296 50.0664 26.8258 50.3812C23.3701 51.4673 21.5829 54.3995 20.8928 55.8386Z" fill="black"/>
<path d="M19.2299 31.1595C19.0681 31.1611 18.908 31.126 18.7617 31.0568C18.5796 30.9675 18.4252 30.8303 18.3152 30.6599C18.2584 30.7293 18.1875 30.7858 18.1072 30.8256C17.9549 30.8978 17.7806 30.9082 17.6209 30.8546C17.6004 30.8472 17.5816 30.8358 17.5656 30.821C17.5495 30.8063 17.5365 30.7886 17.5273 30.7689C17.5182 30.7491 17.5129 30.7278 17.512 30.706C17.5111 30.6843 17.5144 30.6626 17.5219 30.6421C17.5293 30.6216 17.5407 30.6029 17.5554 30.5868C17.5701 30.5708 17.5879 30.5578 17.6076 30.5486C17.6273 30.5394 17.6487 30.5342 17.6704 30.5332C17.6922 30.5323 17.7139 30.5356 17.7344 30.5431C17.81 30.5658 17.8913 30.5602 17.963 30.5274C18.0131 30.4951 18.0563 30.4533 18.09 30.4042C18.1237 30.3551 18.1473 30.2998 18.1594 30.2415L18.3251 29.7021L18.48 30.244C18.48 30.244 18.5902 30.6061 18.91 30.7569C19.1371 30.8646 19.4254 30.8455 19.7667 30.7013C19.7869 30.6919 19.8088 30.6865 19.8311 30.6857C19.8534 30.6849 19.8756 30.6885 19.8964 30.6965C19.9173 30.7045 19.9363 30.7165 19.9523 30.732C19.9684 30.7475 19.9811 30.7661 19.9898 30.7866C19.9985 30.8071 20.003 30.8292 20.003 30.8515C20.0029 30.8738 19.9984 30.8959 19.9896 30.9164C19.9809 30.9369 19.9681 30.9554 19.952 30.9709C19.9359 30.9863 19.9168 30.9983 19.896 31.0062C19.6864 31.1013 19.4599 31.1535 19.2299 31.1595Z" fill="black"/>
<path d="M18.3177 30.4569C18.2825 30.4568 18.2483 30.4454 18.22 30.4246C18.1918 30.4037 18.1708 30.3744 18.1603 30.3409L17.1147 27.0219C17.1015 26.9799 17.1055 26.9344 17.1259 26.8954C17.1462 26.8564 17.1812 26.8271 17.2232 26.8139C17.2652 26.8007 17.3107 26.8047 17.3497 26.8251C17.3887 26.8455 17.418 26.8805 17.4312 26.9224L18.4726 30.2415C18.4792 30.2623 18.4816 30.2841 18.4797 30.3058C18.4777 30.3275 18.4716 30.3487 18.4615 30.368C18.4514 30.3873 18.4376 30.4044 18.4209 30.4184C18.4042 30.4324 18.3849 30.4429 18.3641 30.4494C18.3491 30.4541 18.3334 30.4566 18.3177 30.4569Z" fill="black"/>
<path d="M19.9582 29.7701C19.9241 29.77 19.8908 29.7594 19.8629 29.7396C19.835 29.7199 19.8139 29.6921 19.8024 29.6599L18.6384 26.403C18.631 26.3825 18.6278 26.3607 18.6289 26.3389C18.6299 26.3172 18.6353 26.2958 18.6446 26.2762C18.6539 26.2565 18.667 26.2388 18.6831 26.2242C18.6993 26.2095 18.7181 26.1982 18.7386 26.1909C18.7591 26.1835 18.7809 26.1803 18.8026 26.1814C18.8244 26.1824 18.8457 26.1878 18.8654 26.1971C18.8851 26.2064 18.9028 26.2195 18.9174 26.2356C18.9321 26.2517 18.9434 26.2706 18.9507 26.2911L20.1107 29.5489C20.1196 29.5739 20.1223 29.6007 20.1187 29.627C20.115 29.6533 20.1051 29.6784 20.0898 29.7001C20.0744 29.7218 20.0541 29.7395 20.0305 29.7516C20.0068 29.7638 19.9806 29.7701 19.9541 29.7701H19.9582Z" fill="black"/>
<path d="M63.342 11.4498H52.5008C50.9286 11.4498 49.6541 12.7242 49.6541 14.2962C49.6541 15.8682 50.9286 17.1426 52.5008 17.1426H63.342C64.9143 17.1426 66.1888 15.8682 66.1888 14.2962C66.1888 12.7242 64.9143 11.4498 63.342 11.4498Z" fill="white"/>
<path d="M63.3461 17.3091H52.4999C51.701 17.3091 50.9347 16.9917 50.3698 16.4267C49.8048 15.8618 49.4874 15.0955 49.4874 14.2966C49.4874 13.4976 49.8048 12.7314 50.3698 12.1664C50.9347 11.6014 51.701 11.2841 52.4999 11.2841H63.3461C64.145 11.2841 64.9113 11.6014 65.4762 12.1664C66.0412 12.7314 66.3586 13.4976 66.3586 14.2966C66.3586 15.0955 66.0412 15.8618 65.4762 16.4267C64.9113 16.9917 64.145 17.3091 63.3461 17.3091ZM52.4999 11.6155C51.7889 11.6155 51.1069 11.8979 50.6041 12.4007C50.1013 12.9035 49.8188 13.5855 49.8188 14.2966C49.8188 15.0076 50.1013 15.6896 50.6041 16.1924C51.1069 16.6952 51.7889 16.9776 52.4999 16.9776H63.3461C64.0571 16.9776 64.7391 16.6952 65.2419 16.1924C65.7447 15.6896 66.0272 15.0076 66.0272 14.2966C66.0272 13.5855 65.7447 12.9035 65.2419 12.4007C64.7391 11.8979 64.0571 11.6155 63.3461 11.6155H52.4999Z" fill="black"/>
<path d="M53.4162 15.2237C53.9283 15.2237 54.3434 14.8087 54.3434 14.2966C54.3434 13.7846 53.9283 13.3695 53.4162 13.3695C52.9042 13.3695 52.4891 13.7846 52.4891 14.2966C52.4891 14.8087 52.9042 15.2237 53.4162 15.2237Z" fill="#6DC8C2"/>
<path d="M57.921 15.2237C58.433 15.2237 58.8481 14.8087 58.8481 14.2966C58.8481 13.7846 58.433 13.3695 57.921 13.3695C57.409 13.3695 56.9939 13.7846 56.9939 14.2966C56.9939 14.8087 57.409 15.2237 57.921 15.2237Z" fill="#6DC8C2"/>
<path d="M62.4256 15.2237C62.9377 15.2237 63.3528 14.8087 63.3528 14.2966C63.3528 13.7846 62.9377 13.3695 62.4256 13.3695C61.9136 13.3695 61.4985 13.7846 61.4985 14.2966C61.4985 14.8087 61.9136 15.2237 62.4256 15.2237Z" fill="#6DC8C2"/>
<path d="M9.18159 27.0551H3.91635C2.83829 27.0551 1.96436 27.929 1.96436 29.007V34.2723C1.96436 35.3503 2.83829 36.2243 3.91635 36.2243H9.18159C10.2596 36.2243 11.1336 35.3503 11.1336 34.2723V29.007C11.1336 27.929 10.2596 27.0551 9.18159 27.0551Z" fill="white"/>
<path d="M9.18081 36.39H3.9164C3.35488 36.3891 2.81662 36.1656 2.41964 35.7684C2.02266 35.3713 1.79936 34.833 1.79871 34.2714V29.0054C1.79936 28.4438 2.02266 27.9055 2.41964 27.5084C2.81662 27.1112 3.35488 26.8877 3.9164 26.8868H9.18081C9.74248 26.8875 10.281 27.1109 10.6781 27.5081C11.0753 27.9052 11.2987 28.4437 11.2993 29.0054V34.269C11.2993 34.831 11.0762 35.3702 10.679 35.7679C10.2818 36.1655 9.74291 36.3893 9.18081 36.39ZM3.9164 27.2207C3.44307 27.2212 2.98923 27.4093 2.65437 27.7438C2.31952 28.0784 2.13099 28.532 2.13011 29.0054V34.269C2.13055 34.7426 2.31886 35.1968 2.65374 35.5319C2.98861 35.8669 3.44271 36.0554 3.9164 36.0561H9.18081C9.65459 36.0554 10.1088 35.8669 10.4438 35.5319C10.7788 35.1969 10.9673 34.7427 10.9679 34.269V29.0054C10.9675 28.5315 10.7791 28.0772 10.444 27.7422C10.109 27.4071 9.65465 27.2187 9.18081 27.2182L3.9164 27.2207Z" fill="black"/>
<path d="M9.10631 30.1412C9.005 29.9552 8.85379 29.8011 8.66968 29.6963C7.82377 29.2232 6.96956 29.5165 6.55116 30.1313C6.12696 29.5091 5.25618 29.2149 4.39701 29.717C4.24111 29.8078 4.11082 29.9366 4.01838 30.0915C3.6298 30.7444 3.70602 31.3997 4.03246 31.8662C4.03835 31.8746 4.04471 31.8826 4.05152 31.8902V31.8944C4.05814 31.9035 4.47406 32.3857 4.73422 32.6491C5.23085 33.1329 5.75154 33.5914 6.29432 34.0228C6.36453 34.08 6.45232 34.1113 6.54287 34.1113C6.63343 34.1113 6.72122 34.08 6.79143 34.0228C7.25954 33.6492 7.63983 33.3252 7.92236 33.0775C8.13819 32.8978 8.3419 32.7041 8.53215 32.4975C8.93812 32.0493 9.8321 31.4619 9.10631 30.1412Z" fill="#FB6D6D"/>
<path d="M69.0488 23.6117H52.8885C51.3501 23.6117 50.103 24.8588 50.103 26.3972V44.0886C50.103 45.6269 51.3501 46.874 52.8885 46.874H69.0488C70.5872 46.874 71.8343 45.6269 71.8343 44.0886V26.3972C71.8343 24.8588 70.5872 23.6117 69.0488 23.6117Z" fill="white"/>
<path d="M69.0488 47.0397H52.8886C52.1061 47.0388 51.356 46.7276 50.8027 46.1743C50.2495 45.6211 49.9383 44.8709 49.9374 44.0885V26.3971C49.9383 25.6147 50.2495 24.8645 50.8027 24.3113C51.356 23.758 52.1061 23.4468 52.8886 23.4459H69.0488C69.8313 23.4468 70.5814 23.758 71.1347 24.3113C71.6879 24.8645 71.9991 25.6147 72 26.3971V44.0885C71.9991 44.8709 71.6879 45.6211 71.1347 46.1743C70.5814 46.7276 69.8313 47.0388 69.0488 47.0397ZM52.8886 23.7773C52.194 23.7782 51.5282 24.0545 51.0371 24.5456C50.546 25.0367 50.2697 25.7026 50.2688 26.3971V44.0885C50.2697 44.783 50.546 45.4489 51.0371 45.94C51.5282 46.4311 52.194 46.7074 52.8886 46.7083H69.0488C69.7434 46.7074 70.4092 46.4311 70.9003 45.94C71.3914 45.4489 71.6677 44.783 71.6686 44.0885V26.3971C71.668 25.7025 71.3917 25.0365 70.9006 24.5454C70.4094 24.0542 69.7434 23.778 69.0488 23.7773H52.8886Z" fill="black"/>
<path d="M55.5324 32.36H53.3708C52.7434 32.36 52.2349 32.8685 52.2349 33.4959V35.6575C52.2349 36.2848 52.7434 36.7934 53.3708 36.7934H55.5324C56.1597 36.7934 56.6683 36.2848 56.6683 35.6575V33.4959C56.6683 32.8685 56.1597 32.36 55.5324 32.36Z" fill="#FFC1EB"/>
<path d="M55.5324 39.0901H53.3708C52.7434 39.0901 52.2349 39.5986 52.2349 40.226V42.3876C52.2349 43.0149 52.7434 43.5235 53.3708 43.5235H55.5324C56.1597 43.5235 56.6683 43.0149 56.6683 42.3876V40.226C56.6683 39.5986 56.1597 39.0901 55.5324 39.0901Z" fill="#FFC1EB"/>
<path d="M69.4117 33.4984H59.4048C59.3609 33.4984 59.3187 33.4809 59.2877 33.4499C59.2566 33.4188 59.2391 33.3766 59.2391 33.3327C59.2391 33.2887 59.2566 33.2466 59.2877 33.2155C59.3187 33.1845 59.3609 33.167 59.4048 33.167H69.4117C69.4556 33.167 69.4978 33.1845 69.5289 33.2155C69.5599 33.2466 69.5774 33.2887 69.5774 33.3327C69.5774 33.3766 69.5599 33.4188 69.5289 33.4499C69.4978 33.4809 69.4556 33.4984 69.4117 33.4984Z" fill="black"/>
<path d="M65.5732 35.9383H59.4048C59.3609 35.9383 59.3187 35.9209 59.2877 35.8898C59.2566 35.8587 59.2391 35.8166 59.2391 35.7726C59.2391 35.7287 59.2566 35.6865 59.2877 35.6555C59.3187 35.6244 59.3609 35.6069 59.4048 35.6069H65.5732C65.6171 35.6069 65.6593 35.6244 65.6903 35.6555C65.7214 35.6865 65.7389 35.7287 65.7389 35.7726C65.7389 35.8166 65.7214 35.8587 65.6903 35.8898C65.6593 35.9209 65.6171 35.9383 65.5732 35.9383Z" fill="black"/>
<path d="M69.4117 40.2526H59.4048C59.3609 40.2526 59.3187 40.2351 59.2877 40.204C59.2566 40.1729 59.2391 40.1308 59.2391 40.0868C59.2391 40.0429 59.2566 40.0008 59.2877 39.9697C59.3187 39.9386 59.3609 39.9211 59.4048 39.9211H69.4117C69.4556 39.9211 69.4978 39.9386 69.5289 39.9697C69.5599 40.0008 69.5774 40.0429 69.5774 40.0868C69.5774 40.1308 69.5599 40.1729 69.5289 40.204C69.4978 40.2351 69.4556 40.2526 69.4117 40.2526Z" fill="black"/>
<path d="M65.5732 42.6925H59.4048C59.3609 42.6925 59.3187 42.675 59.2877 42.644C59.2566 42.6129 59.2391 42.5707 59.2391 42.5268C59.2391 42.4828 59.2566 42.4407 59.2877 42.4096C59.3187 42.3785 59.3609 42.3611 59.4048 42.3611H65.5732C65.6171 42.3611 65.6593 42.3785 65.6903 42.4096C65.7214 42.4407 65.7389 42.4828 65.7389 42.5268C65.7389 42.5707 65.7214 42.6129 65.6903 42.644C65.6593 42.675 65.6171 42.6925 65.5732 42.6925Z" fill="black"/>
<path d="M56.1885 26.7294C56.1194 26.602 56.0158 26.4966 55.8895 26.4254C55.3095 26.1006 54.7246 26.3019 54.4379 26.7236C54.1471 26.297 53.5505 26.0956 52.9631 26.4378C52.8566 26.5005 52.7677 26.5892 52.7046 26.6955C52.4378 27.142 52.49 27.5911 52.7137 27.9109C52.7177 27.9168 52.7221 27.9223 52.727 27.9275C52.732 27.9341 53.017 28.2647 53.1951 28.4453C53.3476 28.5986 53.7237 28.9499 54.2639 29.3857C54.3119 29.4243 54.3717 29.4454 54.4333 29.4454C54.495 29.4454 54.5548 29.4243 54.6028 29.3857C54.9234 29.1288 55.1827 28.9068 55.3774 28.7378C55.5238 28.6147 55.6622 28.4824 55.7917 28.3417C56.0734 28.0377 56.6865 27.635 56.1885 26.7294Z" fill="#FB6D6D"/>
<path d="M49.1933 57.7459H31.2476C30.9738 57.746 30.7026 57.6922 30.4496 57.5874C30.1966 57.4827 29.9667 57.3292 29.7731 57.1356C29.5794 56.942 29.4258 56.7122 29.321 56.4592C29.2162 56.2063 29.1622 55.9351 29.1622 55.6613V52.2205C29.1625 50.9929 29.6502 49.8156 30.5183 48.9476C31.3863 48.0795 32.5636 47.5918 33.7912 47.5916H53.2216C54.0346 47.5916 54.8144 47.9145 55.3893 48.4894C55.9642 49.0643 56.2871 49.844 56.2871 50.6571C56.2868 51.5883 56.1031 52.5104 55.7464 53.3706C55.3897 54.2308 54.8671 55.0124 54.2084 55.6706C53.5497 56.3289 52.7677 56.851 51.9073 57.207C51.0468 57.5631 50.1246 57.7462 49.1933 57.7459Z" fill="#C7B8F8"/>
<path d="M21.4421 58.0747C20.6992 58.0593 19.9665 57.8977 19.2861 57.5992C18.6056 57.3006 17.9906 56.8709 17.4762 56.3347C16.9618 55.7984 16.5581 55.1661 16.2881 54.4738C16.0181 53.7815 15.8871 53.0428 15.9026 52.2999L16.2116 37.4321C16.2297 36.5783 16.586 35.7666 17.2024 35.1755C17.8187 34.5843 18.6445 34.2621 19.4984 34.2796L24.3742 34.3815C25.2274 34.4 26.0383 34.7565 26.6287 35.3727C27.219 35.9889 27.5406 36.8143 27.5226 37.6674L27.2169 52.5352C27.2015 53.2781 27.0399 54.0107 26.7413 54.6912C26.4428 55.3717 26.0131 55.9867 25.4768 56.5011C24.9406 57.0155 24.3083 57.4192 23.616 57.6892C22.9237 57.9592 22.185 58.0902 21.4421 58.0747Z" fill="#C7B8F8"/>
<path d="M47.9771 47.5907H43.4782C43.4343 47.5907 43.3921 47.5732 43.361 47.5421C43.33 47.5111 43.3125 47.4689 43.3125 47.425C43.3125 47.381 43.33 47.3389 43.361 47.3078C43.3921 47.2767 43.4343 47.2593 43.4782 47.2593H47.9771C48.021 47.2593 48.0632 47.2767 48.0942 47.3078C48.1253 47.3389 48.1428 47.381 48.1428 47.425C48.1428 47.4689 48.1253 47.5111 48.0942 47.5421C48.0632 47.5732 48.021 47.5907 47.9771 47.5907Z" fill="black"/>
<path d="M42.7822 23.5015C42.544 23.5015 42.3112 23.4309 42.1132 23.2986C41.9151 23.1664 41.7607 22.9784 41.6695 22.7584C41.5782 22.5384 41.5542 22.2963 41.6005 22.0627C41.6468 21.8291 41.7612 21.6145 41.9295 21.4459C42.0977 21.2773 42.3121 21.1624 42.5456 21.1156C42.7792 21.0689 43.0213 21.0924 43.2415 21.1832C43.4616 21.2739 43.6499 21.428 43.7826 21.6257C43.9153 21.8235 43.9864 22.0562 43.9868 22.2943C43.9871 22.4527 43.9561 22.6096 43.8956 22.756C43.8352 22.9024 43.7465 23.0354 43.6346 23.1475C43.5228 23.2596 43.3899 23.3486 43.2436 23.4093C43.0974 23.4701 42.9406 23.5014 42.7822 23.5015ZM42.7822 21.4236C42.6094 21.4236 42.4404 21.4749 42.2968 21.5709C42.1531 21.667 42.0412 21.8035 41.9752 21.9632C41.9091 22.1229 41.892 22.2986 41.9259 22.4681C41.9598 22.6376 42.0432 22.7932 42.1656 22.9152C42.288 23.0372 42.4438 23.1202 42.6133 23.1536C42.7829 23.187 42.9586 23.1694 43.1181 23.1029C43.2776 23.0364 43.4138 22.9241 43.5095 22.7802C43.6051 22.6362 43.6559 22.4672 43.6554 22.2943C43.6546 22.0632 43.5622 21.8419 43.3986 21.6787C43.2349 21.5155 43.0133 21.4238 42.7822 21.4236Z" fill="black"/>
<path d="M27.5457 38.1008C27.5018 38.1008 27.4596 38.0833 27.4286 38.0523C27.3975 38.0212 27.38 37.979 27.38 37.9351C27.3585 34.6285 24.6542 34.5564 24.5407 34.5564C24.4968 34.5564 24.4546 34.5389 24.4235 34.5078C24.3925 34.4768 24.375 34.4346 24.375 34.3907C24.375 34.3467 24.3925 34.3046 24.4235 34.2735C24.4546 34.2424 24.4968 34.225 24.5407 34.225C24.5722 34.225 27.6841 34.2971 27.7081 37.9359C27.7081 37.9799 27.6907 38.022 27.6596 38.0531C27.6285 38.0842 27.5864 38.1016 27.5424 38.1016L27.5457 38.1008Z" fill="black"/>
<path d="M37.2328 30.838H32.096C32.0521 30.838 32.0099 30.8205 31.9788 30.7895C31.9478 30.7584 31.9303 30.7162 31.9303 30.6723C31.9303 30.6283 31.9478 30.5862 31.9788 30.5551C32.0099 30.524 32.0521 30.5066 32.096 30.5066H37.2328C37.2768 30.5066 37.3189 30.524 37.35 30.5551C37.3811 30.5862 37.3985 30.6283 37.3985 30.6723C37.3985 30.7162 37.3811 30.7584 37.35 30.7895C37.3189 30.8205 37.2768 30.838 37.2328 30.838Z" fill="black"/>
<path d="M32.3644 57.102C32.3205 57.102 32.2783 57.0846 32.2473 57.0535C32.2162 57.0224 32.1987 56.9803 32.1987 56.9363V49.42C32.1987 49.376 32.2162 49.3339 32.2473 49.3028C32.2783 49.2717 32.3205 49.2543 32.3644 49.2543C32.4084 49.2543 32.4505 49.2717 32.4816 49.3028C32.5127 49.3339 32.5301 49.376 32.5301 49.42V56.9363C32.5301 56.9803 32.5127 57.0224 32.4816 57.0535C32.4505 57.0846 32.4084 57.102 32.3644 57.102Z" fill="black"/>
<path d="M25.5365 37.3966H18.0211C17.9771 37.3966 17.935 37.3791 17.9039 37.3481C17.8728 37.317 17.8553 37.2748 17.8553 37.2309C17.8553 37.1869 17.8728 37.1448 17.9039 37.1137C17.935 37.0826 17.9771 37.0652 18.0211 37.0652H25.5365C25.5805 37.0652 25.6226 37.0826 25.6537 37.1137C25.6848 37.1448 25.7023 37.1869 25.7023 37.2309C25.7023 37.2748 25.6848 37.317 25.6537 37.3481C25.6226 37.3791 25.5805 37.3966 25.5365 37.3966Z" fill="black"/>
<path d="M7.48902 48.6321C7.45507 48.6321 7.42192 48.6217 7.39406 48.6023C7.3662 48.5829 7.34497 48.5554 7.33326 48.5235C6.37218 45.9021 4.38539 43.7736 4.3655 43.7529C4.33529 43.721 4.31901 43.6783 4.32026 43.6343C4.3215 43.5903 4.34016 43.5487 4.37213 43.5185C4.4041 43.4882 4.44677 43.472 4.49074 43.4732C4.53471 43.4745 4.57639 43.4931 4.6066 43.5251C4.62649 43.5466 6.65967 45.7223 7.64478 48.4133C7.65975 48.4546 7.65777 48.5 7.6393 48.5398C7.62082 48.5795 7.58734 48.6103 7.54619 48.6255C7.52771 48.6312 7.50832 48.6335 7.48902 48.6321Z" fill="black"/>
<path d="M8.42681 48.9022C8.38286 48.9022 8.34072 48.8848 8.30964 48.8537C8.27857 48.8226 8.26111 48.7805 8.26111 48.7365V46.4672C8.26111 46.4233 8.27857 46.3811 8.30964 46.35C8.34072 46.319 8.38286 46.3015 8.42681 46.3015C8.47076 46.3015 8.51291 46.319 8.54398 46.35C8.57506 46.3811 8.59252 46.4233 8.59252 46.4672V48.7365C8.59252 48.7805 8.57506 48.8226 8.54398 48.8537C8.51291 48.8848 8.47076 48.9022 8.42681 48.9022Z" fill="black"/>
<path d="M13.3094 52.1492C13.3091 51.6067 13.0935 51.0865 12.71 50.7029C12.3264 50.3193 11.8062 50.1038 11.2637 50.1035H10.8081V48.5583H5.16915V50.1044H4.71346C4.17093 50.1044 3.65062 50.3199 3.26699 50.7035C2.88337 51.0871 2.66785 51.6074 2.66785 52.15C2.66851 52.692 2.88434 53.2116 3.26792 53.5945C3.6515 53.9775 4.17144 54.1925 4.71346 54.1923C4.44487 54.1922 4.17888 54.245 3.9307 54.3477C3.68252 54.4504 3.45701 54.601 3.26704 54.7909C3.07708 54.9808 2.92639 55.2062 2.82358 55.4544C2.72076 55.7025 2.66785 55.9685 2.66785 56.2371C2.66774 56.5057 2.72058 56.7718 2.82334 57.02C2.9261 57.2683 3.07678 57.4938 3.26675 57.6838C3.45673 57.8738 3.68228 58.0244 3.93051 58.1272C4.17874 58.23 4.4448 58.2828 4.71346 58.2827H11.2637C11.8063 58.2827 12.3266 58.0672 12.7102 57.6835C13.0938 57.2999 13.3094 56.7796 13.3094 56.2371C13.3091 55.6947 13.0935 55.1746 12.7099 54.7911C12.3263 54.4077 11.8061 54.1923 11.2637 54.1923C11.8058 54.1923 12.3258 53.9771 12.7093 53.594C13.0929 53.2109 13.3087 52.6913 13.3094 52.1492Z" fill="#6DC8C2"/>
<path d="M11.3499 54.3696H9.03912C8.99517 54.3696 8.95302 54.3522 8.92195 54.3211C8.89087 54.29 8.87341 54.2479 8.87341 54.2039C8.87341 54.16 8.89087 54.1178 8.92195 54.0867C8.95302 54.0557 8.99517 54.0382 9.03912 54.0382H11.3499C11.3938 54.0382 11.436 54.0557 11.467 54.0867C11.4981 54.1178 11.5156 54.16 11.5156 54.2039C11.5156 54.2479 11.4981 54.29 11.467 54.3211C11.436 54.3522 11.3938 54.3696 11.3499 54.3696Z" fill="black"/>
<path d="M5.80039 54.358H4.59075C4.54681 54.358 4.50466 54.3406 4.47358 54.3095C4.44251 54.2784 4.42505 54.2363 4.42505 54.1923C4.42505 54.1484 4.44251 54.1062 4.47358 54.0751C4.50466 54.0441 4.54681 54.0266 4.59075 54.0266H5.80039C5.84434 54.0266 5.88649 54.0441 5.91756 54.0751C5.94864 54.1062 5.9661 54.1484 5.9661 54.1923C5.9661 54.2363 5.94864 54.2784 5.91756 54.3095C5.88649 54.3406 5.84434 54.358 5.80039 54.358Z" fill="black"/>
<path d="M7.98935 49.0389C9.57486 49.0389 10.8602 48.7711 10.8602 48.4407C10.8602 48.1104 9.57486 47.8425 7.98935 47.8425C6.40384 47.8425 5.11853 48.1104 5.11853 48.4407C5.11853 48.7711 6.40384 49.0389 7.98935 49.0389Z" fill="black"/>
<path d="M8.4269 46.4672C9.17504 46.4672 9.78153 45.8607 9.78153 45.1126C9.78153 44.3644 9.17504 43.7579 8.4269 43.7579C7.67875 43.7579 7.07227 44.3644 7.07227 45.1126C7.07227 45.8607 7.67875 46.4672 8.4269 46.4672Z" fill="#FFBB45"/>
<path d="M3.99844 44.5368C4.80012 44.5368 5.45001 43.8869 5.45001 43.0852C5.45001 42.2836 4.80012 41.6337 3.99844 41.6337C3.19676 41.6337 2.54688 42.2836 2.54688 43.0852C2.54688 43.8869 3.19676 44.5368 3.99844 44.5368Z" fill="#FFBB45"/>
<path d="M21.4735 22.2563C21.3078 21.8039 21.0683 21.2231 20.732 20.7376C20.4469 20.3233 20.1213 20.1493 19.7634 20.2115C19.6599 20.2238 19.5604 20.2589 19.472 20.3142C19.3837 20.3695 19.3086 20.4436 19.2522 20.5313C18.9697 20.9845 19.1578 21.784 19.2522 22.1055L19.2647 22.1469L18.949 22.2471L18.9341 22.1983C18.8023 21.7442 18.6308 20.9016 18.9714 20.3556C19.0521 20.228 19.1598 20.1197 19.2869 20.0382C19.414 19.9568 19.5574 19.9042 19.7071 19.8842C20.1967 19.8014 20.6458 20.0284 21.0054 20.547C21.3649 21.0657 21.6094 21.6688 21.785 22.1386L21.4735 22.2563Z" fill="black"/>
</svg>
