<svg width="72" height="67" viewBox="0 0 72 67" fill="none" xmlns="http://www.w3.org/2000/svg">
<path d="M41.7739 1.41449L1.59529 39.6286C-1.26249 42.3465 -0.106797 47.139 3.67654 48.2549L56.8601 63.9438C60.6434 65.0606 64.2156 61.6663 63.2901 57.8283L50.2852 3.92539C49.3605 0.0915618 44.6317 -1.30339 41.7739 1.41449Z" fill="#FFC1EB"/>
<path d="M41.373 49.0554H23.9697C21.3278 54.2717 20.0057 60.0564 20.1193 65.9024L44.831 65.9248C44.7418 62.8393 44.3677 59.7687 43.7134 56.7521C43.1405 54.128 42.3578 51.5542 41.373 49.0554Z" fill="#6DC8C2"/>
<path d="M39.8532 28.1099H25.9402V42.941H39.8532V28.1099Z" fill="black"/>
<path d="M34.3678 25.6385H30.9967C29.9281 25.6385 28.9033 25.214 28.1477 24.4584C27.392 23.7028 26.9675 22.6779 26.9675 21.6093V17.35C26.9675 16.3073 27.3817 15.3073 28.119 14.57C28.8563 13.8327 29.8563 13.4185 30.899 13.4185H34.3537C35.7313 13.4185 37.0524 13.9657 38.0264 14.9397C39.0005 15.9138 39.5477 17.2349 39.5477 18.6125V20.4586C39.5477 21.8324 39.002 23.1499 38.0306 24.1214C37.0591 25.0928 35.7416 25.6385 34.3678 25.6385Z" fill="black"/>
<path d="M38.5642 24.2145L40.6281 17.3912C40.6569 17.2959 40.7063 17.2081 40.773 17.134C40.8396 17.06 40.9217 17.0015 41.0135 16.9629C41.1053 16.9242 41.2045 16.9063 41.304 16.9104C41.4035 16.9144 41.5009 16.9404 41.5892 16.9864L43.8178 18.1454C43.9145 18.1957 43.9977 18.2686 44.0602 18.3579C44.1227 18.4472 44.1627 18.5503 44.1769 18.6584C44.191 18.7665 44.1789 18.8764 44.1414 18.9788C44.104 19.0811 44.0424 19.173 43.9619 19.2465L38.5642 24.2145Z" fill="#FB6D6D"/>
<path d="M38.0354 23.9474L43.9273 20.2791C44.0188 20.2223 44.122 20.1867 44.2291 20.1752C44.3362 20.1636 44.4446 20.1763 44.5461 20.2123C44.6477 20.2483 44.7398 20.3068 44.8157 20.3833C44.8916 20.4597 44.9493 20.5523 44.9845 20.6542L45.766 22.9167C45.8031 23.0242 45.8142 23.1389 45.7983 23.2515C45.7824 23.364 45.7399 23.4712 45.6744 23.5641C45.6089 23.657 45.5222 23.733 45.4216 23.7859C45.3209 23.8387 45.2091 23.8668 45.0954 23.8679L38.0354 23.9474Z" fill="#FB6D6D"/>
<path d="M39.8534 24.4415C39.6153 24.4415 39.3826 24.3709 39.1846 24.2386C38.9867 24.1064 38.8324 23.9184 38.7413 23.6984C38.6502 23.4785 38.6263 23.2364 38.6728 23.0029C38.7192 22.7694 38.8339 22.555 39.0022 22.3866C39.1706 22.2183 39.385 22.1036 39.6185 22.0572C39.852 22.0107 40.0941 22.0346 40.314 22.1257C40.534 22.2168 40.722 22.3711 40.8542 22.569C40.9865 22.767 41.0571 22.9997 41.0571 23.2378C41.0566 23.5569 40.9297 23.8628 40.704 24.0884C40.4784 24.3141 40.1725 24.441 39.8534 24.4415ZM39.8534 22.3652C39.6808 22.3652 39.5121 22.4164 39.3686 22.5123C39.2251 22.6081 39.1133 22.7444 39.0472 22.9039C38.9812 23.0633 38.9639 23.2387 38.9976 23.408C39.0312 23.5773 39.1143 23.7327 39.2364 23.8548C39.3584 23.9768 39.5139 24.0599 39.6831 24.0936C39.8524 24.1272 40.0278 24.11 40.1873 24.0439C40.3467 23.9779 40.483 23.866 40.5789 23.7225C40.6748 23.579 40.7259 23.4103 40.7259 23.2378C40.7255 23.0065 40.6334 22.7848 40.4699 22.6213C40.3063 22.4577 40.0847 22.3656 39.8534 22.3652Z" fill="black"/>
<path d="M37.6752 21.4066C37.7231 20.9546 37.591 20.5021 37.3076 20.1468C37.0242 19.7915 36.6123 19.5621 36.1611 19.5083L36.1718 18.3402C36.1776 17.9697 36.1102 17.6017 35.9735 17.2574C35.8368 16.913 35.6334 16.599 35.375 16.3334C35.1167 16.0678 34.8084 15.8559 34.468 15.7097C34.1275 15.5635 33.7615 15.486 33.3911 15.4816L29.0862 15.4509C28.5222 15.4503 27.9811 15.6733 27.5813 16.071C27.1815 16.4688 26.9558 17.0088 26.9536 17.5727L26.9081 22.8305C26.9017 23.2715 26.9824 23.7094 27.1454 24.1192C27.3084 24.529 27.5507 24.9026 27.8582 25.2187C28.1658 25.5348 28.5326 25.7871 28.9378 25.9613C29.343 26.1355 29.7785 26.2281 30.2195 26.2338H30.4182L30.3917 29.1479L36.08 29.1885L36.1114 25.7371H36.1064L36.1321 22.9613C36.529 22.9194 36.8992 22.7418 37.1804 22.4586C37.4615 22.1753 37.6363 21.8037 37.6752 21.4066Z" fill="white"/>
<path d="M48.7428 35.9809L41.9204 40.0027L46.1574 48.7648C46.1574 48.7648 48.0698 52.3958 51.6561 50.6937C52.3797 50.3438 53.025 49.8509 53.5528 49.2448C54.0807 48.6387 54.4803 47.9318 54.7274 47.167L58.4139 35.9809C58.4139 35.9809 63.8298 34.1422 64.6328 29.4102C64.6638 29.2602 64.6663 29.1057 64.6403 28.9548C64.5993 28.7292 64.4964 28.5194 64.3431 28.3488C64.3981 28.224 64.4424 28.0946 64.4755 27.9622C64.55 27.6617 64.6212 27.3687 64.3778 27.1203C64.2766 27.0106 64.1369 26.9442 63.9879 26.935C63.839 26.9257 63.6922 26.9743 63.5781 27.0706C63.6344 26.7627 63.55 26.4911 63.3604 26.3719C63.2824 26.326 63.1923 26.3049 63.1021 26.3115C62.6741 26.3371 62.3628 26.9241 62.2742 27.088C61.9116 27.7503 61.1459 28.8704 60.0117 30.4409C60.0117 30.4409 61.6434 28.228 60.775 27.6187C60.5159 27.4374 60.2062 27.6915 60.0357 27.872C59.7203 28.2031 59.5986 28.6609 59.3643 29.0418C59.0554 29.5194 58.6425 29.921 58.1564 30.2165C57.3907 30.7033 56.5429 30.9616 55.8442 31.5552C55.5261 31.8226 55.2425 32.1285 54.9998 32.4658C54.7159 32.8648 54.6157 33.3359 54.3706 33.7391L50.5782 39.9439L48.7428 35.9809Z" fill="white"/>
<path d="M49.805 51.3124C47.3463 51.3124 46.0267 48.8727 46.0109 48.842L41.7061 39.9375L48.8166 35.7461L50.5981 39.5965L54.2275 33.6549C54.3283 33.4798 54.4152 33.2971 54.4874 33.1085C54.5845 32.85 54.7106 32.6034 54.8633 32.3734C55.1136 32.0238 55.4064 31.7068 55.735 31.4296C56.1721 31.0571 56.6672 30.812 57.1424 30.5752C57.4578 30.4261 57.7651 30.2603 58.063 30.0785C58.5295 29.7975 58.9259 29.4139 59.222 28.9568C59.3037 28.8181 59.3775 28.675 59.443 28.5279C59.568 28.2622 59.6972 27.9882 59.9141 27.7597C60.3818 27.263 60.7129 27.3764 60.8686 27.4857C60.9531 27.5453 61.0243 27.6217 61.0779 27.7102C61.1315 27.7987 61.1662 27.8973 61.1799 27.9998C61.2035 28.1813 61.1934 28.3658 61.1501 28.5437C61.6153 27.864 61.9349 27.3623 62.1278 27.0105L62.1327 26.9997C62.2437 26.7969 62.5806 26.1785 63.0914 26.1487C63.2155 26.1383 63.3398 26.1673 63.4466 26.2314C63.5379 26.2942 63.6134 26.3773 63.667 26.4743C63.7206 26.5713 63.7509 26.6795 63.7553 26.7903C63.8865 26.7573 64.0241 26.7598 64.154 26.7974C64.2839 26.8351 64.4014 26.9066 64.4946 27.0047C64.8051 27.3201 64.7107 27.6984 64.6354 28.0022C64.6088 28.1104 64.5748 28.2167 64.5335 28.3201C64.6554 28.4776 64.7417 28.6594 64.7867 28.8533C64.8317 29.0472 64.8343 29.2486 64.7943 29.4436C64.4632 31.4163 63.257 33.2029 61.3173 34.6044C60.4618 35.2242 59.5296 35.7303 58.544 36.1103L54.8848 47.2186C54.6296 48.0044 54.2183 48.7306 53.6756 49.3535C53.1329 49.9765 52.4699 50.4834 51.7265 50.8438C51.129 51.1415 50.4725 51.3016 49.805 51.3124ZM42.1357 40.0683L46.3065 48.693C46.6548 49.2939 47.1181 49.8203 47.67 50.2419C48.8447 51.1186 50.1618 51.2205 51.5849 50.5441C52.2877 50.203 52.9144 49.7234 53.4274 49.1342C53.9404 48.5449 54.3291 47.8582 54.5702 47.1151L58.284 35.8512L58.3626 35.8247C58.4156 35.8065 63.6949 33.9604 64.4714 29.3823C64.4991 29.2512 64.5016 29.1161 64.4789 28.9841C64.4431 28.7887 64.354 28.6071 64.2214 28.4592L64.1502 28.3764L64.1933 28.2788C64.2446 28.1627 64.2859 28.0425 64.3166 27.9195C64.3936 27.6074 64.4325 27.4078 64.2612 27.2332C64.1899 27.1542 64.091 27.1057 63.985 27.0977C63.879 27.0896 63.7739 27.1227 63.6916 27.1901L63.329 27.5213L63.4176 27.0394C63.4606 26.8035 63.4035 26.5907 63.2752 26.5121C63.2265 26.4835 63.17 26.4711 63.1138 26.4765C62.8969 26.4889 62.665 26.7182 62.4266 27.1562L62.4208 27.1661C62.0773 27.7936 61.3868 28.8218 60.1856 30.4867L60.1483 30.5388L59.8809 30.3434L59.9348 30.2689C60.2659 29.7971 60.958 28.6654 60.8578 28.0503C60.8511 27.9914 60.8321 27.9346 60.802 27.8835C60.7719 27.8325 60.7314 27.7883 60.6831 27.7539C60.5176 27.638 60.2618 27.8772 60.1591 27.9857C59.9786 28.1744 59.8669 28.4137 59.7452 28.667C59.6737 28.8249 59.5938 28.9788 59.5059 29.1281C59.1847 29.6276 58.7541 30.0474 58.2467 30.3559C57.9375 30.5443 57.6183 30.7159 57.2906 30.87C56.8088 31.1092 56.3534 31.3344 55.9469 31.6804C55.6417 31.9404 55.37 32.2374 55.1381 32.5646C55 32.7746 54.8862 32.9996 54.7987 33.2352C54.7194 33.4396 54.6248 33.6378 54.5156 33.8279L50.5617 40.2968L48.6733 36.2171L42.1357 40.0683Z" fill="black"/>
<path d="M35.9318 22.0678C35.9089 22.069 35.886 22.069 35.8631 22.0678C35.7294 22.0542 35.6027 22.0013 35.4991 21.9157C35.3955 21.8301 35.3196 21.7158 35.2809 21.5871C35.2423 21.4584 35.2426 21.3211 35.282 21.1926C35.3213 21.0641 35.3979 20.9502 35.502 20.8652C35.606 20.7802 35.733 20.7279 35.8667 20.715C36.0005 20.7022 36.1351 20.7292 36.2535 20.7928C36.3719 20.8564 36.4687 20.9536 36.5319 21.0723C36.595 21.1909 36.6216 21.3256 36.6082 21.4593C36.5912 21.6268 36.5127 21.782 36.3879 21.895C36.2632 22.008 36.101 22.0707 35.9326 22.0711L35.9318 22.0678ZM35.9318 21.0396C35.8644 21.0396 35.7984 21.0592 35.7418 21.096C35.6853 21.1327 35.6406 21.1851 35.6133 21.2468C35.5859 21.3084 35.5771 21.3767 35.5878 21.4433C35.5984 21.5099 35.6282 21.572 35.6735 21.622C35.7187 21.672 35.7775 21.7078 35.8427 21.725C35.9079 21.7423 35.9767 21.7403 36.0408 21.7192C36.1049 21.6981 36.1614 21.6589 36.2037 21.6063C36.2459 21.5537 36.2719 21.49 36.2787 21.4229C36.2877 21.3309 36.2599 21.2391 36.2014 21.1676C36.1429 21.0961 36.0585 21.0506 35.9666 21.0412L35.9318 21.0396Z" fill="black"/>
<path d="M30.4928 26.0724L33.8871 25.9896C33.9091 25.9887 33.9307 25.9959 33.948 26.0096C33.9652 26.0234 33.9769 26.043 33.9809 26.0647C33.985 26.0864 33.981 26.1088 33.9699 26.1278C33.9587 26.1469 33.9411 26.1613 33.9202 26.1684L30.4788 27.4102L30.4928 26.0724Z" fill="black"/>
<path d="M35.4234 21.6375C35.3822 21.6377 35.3424 21.6226 35.3118 21.595C35.2812 21.5675 35.262 21.5295 35.2578 21.4885C35.2391 21.3048 35.2692 21.1194 35.3449 20.9509C35.4206 20.7825 35.5393 20.637 35.6892 20.529C35.833 20.4309 35.9983 20.3686 36.1711 20.3474C36.3439 20.3263 36.5193 20.3468 36.6826 20.4073C36.7037 20.4146 36.7232 20.426 36.7398 20.441C36.7564 20.456 36.7698 20.4742 36.7791 20.4944C36.7885 20.5147 36.7937 20.5367 36.7943 20.559C36.795 20.5814 36.7911 20.6036 36.783 20.6244C36.7748 20.6452 36.7625 20.6642 36.7468 20.6801C36.7312 20.696 36.7124 20.7086 36.6918 20.7171C36.6711 20.7256 36.6489 20.7298 36.6266 20.7295C36.6042 20.7292 36.5822 20.7243 36.5617 20.7153C36.45 20.6752 36.3304 20.6618 36.2125 20.6762C36.0946 20.6906 35.9818 20.7323 35.8829 20.7981C35.7804 20.8719 35.6992 20.9715 35.6474 21.0868C35.5957 21.202 35.5752 21.3289 35.5882 21.4546C35.5903 21.4762 35.5882 21.4981 35.582 21.5189C35.5757 21.5397 35.5654 21.5591 35.5516 21.5759C35.5379 21.5927 35.5209 21.6067 35.5018 21.617C35.4826 21.6273 35.4616 21.6337 35.44 21.6359L35.4234 21.6375Z" fill="black"/>
<path d="M18.7503 35.4969L25.5727 39.5186L21.3357 48.2807C21.3357 48.2807 19.4225 51.9117 15.837 50.2097C15.1132 49.86 14.4678 49.3672 13.9399 48.7611C13.412 48.1549 13.0125 47.4479 12.7657 46.683L9.07835 35.4969C9.07835 35.4969 3.66248 33.6582 2.86028 28.9261C2.82925 28.7762 2.82672 28.6217 2.85283 28.4708C2.89332 28.2454 2.99564 28.0356 3.14837 27.8648C3.09335 27.7399 3.04904 27.6106 3.01592 27.4782C2.94141 27.1785 2.87021 26.8846 3.11443 26.6363C3.21564 26.5268 3.35514 26.4606 3.50392 26.4514C3.6527 26.4421 3.79933 26.4906 3.91332 26.5866C3.85702 26.2786 3.94229 26.0071 4.13105 25.8879C4.20916 25.8424 4.29914 25.8213 4.38934 25.8275C4.81734 25.8531 5.12862 26.4401 5.2172 26.604C5.58063 27.2663 6.34641 28.3872 7.47975 29.9568C7.47975 29.9568 5.84803 27.744 6.71646 27.1347C6.97558 26.9534 7.2852 27.2083 7.45657 27.388C7.77199 27.7191 7.89285 28.1778 8.12714 28.5578C8.43649 29.035 8.84931 29.4365 9.33499 29.7325C10.1008 30.2193 10.9485 30.4776 11.648 31.0711C11.9659 31.3388 12.2495 31.6447 12.4925 31.9818C12.7756 32.3808 12.8766 32.851 13.1216 33.2542L16.9132 39.459L18.7503 35.4969Z" fill="white"/>
<path d="M17.6879 50.8281C17.0201 50.8179 16.3632 50.6578 15.7656 50.3595C15.0223 49.999 14.3595 49.4921 13.8169 48.8691C13.2743 48.2462 12.8632 47.5201 12.6082 46.7343L8.94321 35.626C7.95739 35.2464 7.02513 34.7402 6.16988 34.1202C4.23102 32.7194 3.02897 30.9321 2.69285 28.9535C2.65361 28.7595 2.65667 28.5593 2.70181 28.3665C2.74696 28.1738 2.83313 27.9931 2.95446 27.8367C2.91407 27.7329 2.88006 27.6267 2.85263 27.5188C2.7773 27.2141 2.68706 26.8366 2.99337 26.5204C3.08665 26.4225 3.20421 26.3511 3.33407 26.3134C3.46394 26.2757 3.60147 26.2732 3.73265 26.306C3.73726 26.1953 3.76756 26.0871 3.82115 25.9901C3.87475 25.8932 3.95016 25.81 4.04144 25.7472C4.14825 25.6831 4.27246 25.6541 4.39659 25.6644C4.90739 25.695 5.24433 26.3126 5.35526 26.5154L5.36105 26.5262C5.55726 26.8846 5.87184 27.3805 6.33876 28.061C6.29496 27.8826 6.28485 27.6976 6.30896 27.5155C6.3223 27.4129 6.35687 27.3142 6.41046 27.2256C6.46405 27.1371 6.53549 27.0607 6.62023 27.0014C6.77587 26.8921 7.10702 26.7828 7.57476 27.2754C7.79083 27.5039 7.9208 27.7787 8.04581 28.0436C8.11097 28.1908 8.18478 28.334 8.26685 28.4725C8.56165 28.9294 8.95658 29.3133 9.42172 29.5951C9.71982 29.7764 10.0271 29.9422 10.3423 30.0918C10.8208 30.3285 11.3159 30.5744 11.7497 30.9461C12.0783 31.2235 12.3714 31.5405 12.6222 31.8899C12.7746 32.12 12.9005 32.3666 12.9973 32.625C13.0703 32.8137 13.1575 32.9967 13.258 33.1723L16.8882 39.113L18.6698 35.2626L25.7811 39.4549L21.4762 48.3536C21.4663 48.3875 20.1459 50.8281 17.6879 50.8281ZM3.55466 26.6131C3.43347 26.6154 3.31808 26.6654 3.23345 26.7522C3.06125 26.9269 3.10016 27.1272 3.17798 27.4385C3.20809 27.5616 3.24909 27.6819 3.3005 27.7978L3.34355 27.8955L3.27319 27.9782C3.13988 28.1256 3.05067 28.3075 3.01572 28.5031C2.99267 28.6331 2.99492 28.7664 3.02234 28.8955C3.80053 33.4835 9.07816 35.3255 9.13197 35.3437L9.20979 35.3702L12.9228 46.6341C13.1637 47.3774 13.5523 48.0644 14.0653 48.6537C14.5783 49.2431 15.2051 49.7228 15.908 50.064C17.3344 50.7412 18.6549 50.6377 19.8313 49.7543C20.3812 49.333 20.8426 48.8071 21.189 48.2071L25.3564 39.5874L18.8238 35.7361L16.9354 39.8109L12.9815 33.3411C12.8719 33.1512 12.7772 32.953 12.6984 32.7484C12.6106 32.5129 12.4967 32.288 12.359 32.0778C12.1238 31.753 11.8494 31.4585 11.5419 31.2011C11.1354 30.8551 10.6809 30.6299 10.1991 30.3906C9.87304 30.2364 9.55551 30.0648 9.24787 29.8765C8.74024 29.5681 8.30938 29.1483 7.98786 28.6488C7.89977 28.4997 7.82017 28.3458 7.74944 28.1877C7.63023 27.9344 7.51764 27.6959 7.33551 27.5064C7.23285 27.3979 6.97621 27.1587 6.81064 27.2746C6.7625 27.3091 6.72209 27.3533 6.69202 27.4043C6.66194 27.4553 6.64284 27.5121 6.63596 27.5709C6.53579 28.186 7.22209 29.3095 7.55737 29.7871L7.61284 29.8641L7.34544 30.0595L7.30819 30.0073C6.10447 28.3384 5.41404 27.3135 5.07296 26.6876L5.06716 26.6768C4.82791 26.2389 4.59694 26.0104 4.37921 25.9972C4.32302 25.9922 4.26666 26.0046 4.21778 26.0328C4.08946 26.1156 4.03233 26.3242 4.07621 26.5609L4.16396 27.0419L3.80219 26.7108C3.735 26.6481 3.64655 26.6132 3.55466 26.6131Z" fill="black"/>
<path d="M27.6629 20.9279C27.8481 20.9279 27.9982 20.7778 27.9982 20.5926C27.9982 20.4074 27.8481 20.2573 27.6629 20.2573C27.4777 20.2573 27.3276 20.4074 27.3276 20.5926C27.3276 20.7778 27.4777 20.9279 27.6629 20.9279Z" fill="black"/>
<path d="M31.2591 20.8734C31.4443 20.8734 31.5944 20.7233 31.5944 20.5382C31.5944 20.353 31.4443 20.2029 31.2591 20.2029C31.0739 20.2029 30.9238 20.353 30.9238 20.5382C30.9238 20.7233 31.0739 20.8734 31.2591 20.8734Z" fill="black"/>
<path d="M28.9892 22.0758C28.9703 22.0756 28.9515 22.0723 28.9337 22.0658C28.6854 21.983 28.437 21.8605 28.437 21.6436C28.4399 21.6031 28.4507 21.5635 28.4689 21.5271C28.487 21.4907 28.5122 21.4583 28.543 21.4317C28.5644 21.4099 28.5846 21.387 28.6034 21.363C28.6874 21.2542 28.7378 21.1233 28.7483 20.9863L28.8874 19.5334C28.8915 19.4895 28.913 19.449 28.947 19.4209C28.981 19.3928 29.0248 19.3794 29.0687 19.3836C29.1126 19.3877 29.153 19.4092 29.1811 19.4432C29.2092 19.4772 29.2227 19.5209 29.2185 19.5649L29.0778 21.0186C29.0612 21.2173 28.9876 21.407 28.8658 21.565C28.8402 21.5981 28.8178 21.6229 28.7988 21.6436C28.877 21.6899 28.9603 21.7269 29.0471 21.7537C29.0842 21.7665 29.1155 21.7921 29.1354 21.8258C29.1554 21.8595 29.1628 21.8992 29.1562 21.9379C29.1497 21.9765 29.1296 22.0116 29.0996 22.0368C29.0697 22.0621 29.0317 22.0759 28.9925 22.0758H28.9892Z" fill="black"/>
<path d="M29.4892 23.5226C29.2355 23.5155 28.9882 23.4416 28.7722 23.3082C28.7531 23.2968 28.7364 23.2816 28.7233 23.2636C28.7101 23.2456 28.7007 23.2251 28.6957 23.2034C28.6907 23.1817 28.69 23.1592 28.6939 23.1372C28.6978 23.1153 28.706 23.0943 28.7182 23.0756C28.7304 23.0569 28.7462 23.0409 28.7647 23.0285C28.7832 23.016 28.804 23.0075 28.8259 23.0033C28.8478 22.9991 28.8703 22.9994 28.8921 23.0041C28.9139 23.0089 28.9345 23.018 28.9527 23.0308C28.9585 23.035 29.2996 23.2494 29.6349 23.1757C29.7266 23.1525 29.8126 23.1108 29.8876 23.0531C29.9627 22.9955 30.0251 22.9231 30.0712 22.8404C30.0946 22.8033 30.1319 22.7771 30.1748 22.7675C30.2176 22.7578 30.2625 22.7656 30.2996 22.7891C30.3368 22.8126 30.363 22.8499 30.3726 22.8927C30.3823 22.9356 30.3745 22.9805 30.351 23.0176C30.2661 23.1715 30.1412 23.2997 29.9895 23.3886C29.8378 23.4775 29.665 23.5238 29.4892 23.5226Z" fill="black"/>
<path d="M23.9699 49.0552L22.5211 42.0184C22.2745 40.8218 22.3372 39.582 22.7032 38.4164L25.9402 28.1086H28.8269L29.4892 29.5789C30.9107 32.7356 35.4159 32.6677 36.7421 29.4705L37.3067 28.1086H39.8532L43.043 38.5886C43.4546 39.9394 43.475 41.3792 43.1018 42.7411L41.3732 49.0552H23.9699Z" fill="#6DC8C2"/>
<path d="M33.2411 17.8508H31.6417C31.1472 17.8508 30.673 17.6544 30.3234 17.3048C29.9738 16.9551 29.7773 16.4809 29.7773 15.9865V14.7877H33.2411V17.8508Z" fill="black"/>
<path d="M39.8533 28.1096L43.2533 39.4654L49.6477 35.6928C48.9412 34.3972 48.1563 33.1459 47.2974 31.9459C45.7816 29.8299 44.996 28.7611 43.6647 28.2205C42.2499 27.641 40.8285 27.8422 39.8533 28.1096Z" fill="black"/>
<path d="M37.6844 19.6573H34.8117C34.5347 19.6572 34.2604 19.6025 34.0045 19.4964C33.7486 19.3903 33.5162 19.2348 33.3204 19.0389C33.1246 18.8429 32.9693 18.6103 32.8634 18.3544C32.7575 18.0984 32.703 17.8241 32.7031 17.5471V16.5934H37.6852L37.6844 19.6573Z" fill="black"/>
<path d="M36.6694 14.7877H31.7188V17.8516H36.6694V14.7877Z" fill="black"/>
<path d="M39.0452 31.197C41.2206 31.197 42.9841 29.4335 42.9841 27.2581C42.9841 25.0826 41.2206 23.3191 39.0452 23.3191C36.8697 23.3191 35.1062 25.0826 35.1062 27.2581C35.1062 29.4335 36.8697 31.197 39.0452 31.197Z" fill="black"/>
<path d="M36.1661 33.943C37.7768 33.943 39.0826 32.6372 39.0826 31.0264C39.0826 29.4157 37.7768 28.1099 36.1661 28.1099C34.5553 28.1099 33.2495 29.4157 33.2495 31.0264C33.2495 32.6372 34.5553 33.943 36.1661 33.943Z" fill="black"/>
<path d="M41.4022 34.1083C43.0129 34.1083 44.3187 32.8025 44.3187 31.1917C44.3187 29.5809 43.0129 28.2751 41.4022 28.2751C39.7914 28.2751 38.4856 29.5809 38.4856 31.1917C38.4856 32.8025 39.7914 34.1083 41.4022 34.1083Z" fill="black"/>
<path d="M35.4581 43.9996H30.3344C29.5703 43.9988 28.8376 43.6948 28.2974 43.1543C27.7571 42.6139 27.4533 41.8812 27.4526 41.117V37.6516C27.4526 37.2805 27.5999 36.9246 27.862 36.662C28.1242 36.3994 28.4798 36.2515 28.8509 36.2509H36.9416C37.3125 36.2513 37.6681 36.3988 37.9304 36.6611C38.1927 36.9234 38.3402 37.279 38.3407 37.6499V41.1154C38.3402 41.8799 38.0365 42.613 37.496 43.1538C36.9556 43.6946 36.2226 43.9988 35.4581 43.9996ZM28.8509 36.582C28.5679 36.5824 28.2966 36.6951 28.0965 36.8953C27.8965 37.0955 27.784 37.3669 27.7838 37.6499V41.1154C27.7844 41.7917 28.0534 42.4402 28.5315 42.9185C29.0097 43.3968 29.6581 43.666 30.3344 43.6668H35.4581C36.1346 43.6662 36.7832 43.3972 37.2615 42.9188C37.7399 42.4405 38.0089 41.7919 38.0095 41.1154V37.6516C38.0095 37.3682 37.8971 37.0964 37.6968 36.8959C37.4966 36.6953 37.225 36.5824 36.9416 36.582H28.8509Z" fill="white"/>
<path d="M38.4856 37.9125C40.0964 37.9125 41.4022 36.6067 41.4022 34.9959C41.4022 33.3851 40.0964 32.0793 38.4856 32.0793C36.8749 32.0793 35.5691 33.3851 35.5691 34.9959C35.5691 36.6067 36.8749 37.9125 38.4856 37.9125Z" fill="black"/>
<path d="M48.718 42.8579C48.688 42.8578 48.6585 42.8495 48.6329 42.834C48.6072 42.8185 48.5862 42.7963 48.5722 42.7697C48.5582 42.7432 48.5516 42.7134 48.5532 42.6834C48.5548 42.6534 48.5646 42.6245 48.5814 42.5996L50.4399 39.8536C50.4521 39.8355 50.4677 39.8201 50.4859 39.808C50.504 39.796 50.5244 39.7877 50.5457 39.7836C50.5671 39.7794 50.5891 39.7795 50.6104 39.7838C50.6318 39.7882 50.652 39.7967 50.6701 39.8089C50.6881 39.821 50.7036 39.8367 50.7156 39.8548C50.7276 39.873 50.7359 39.8933 50.7401 39.9147C50.7442 39.9361 50.7441 39.958 50.7398 39.9794C50.7355 40.0007 50.727 40.021 50.7148 40.039L48.8554 42.785C48.8402 42.8075 48.8197 42.8259 48.7958 42.8386C48.7718 42.8513 48.7451 42.8579 48.718 42.8579Z" fill="black"/>
<path d="M62.5417 31.8634C62.5082 31.8635 62.4756 31.8534 62.4479 31.8346C62.4203 31.8157 62.399 31.7889 62.3869 31.7577C62.3748 31.7265 62.3725 31.6924 62.3801 31.6599C62.3878 31.6273 62.4052 31.5978 62.4299 31.5753C63.449 30.6465 64.1502 28.3864 64.1569 28.364C64.1632 28.3432 64.1736 28.3239 64.1875 28.3071C64.2013 28.2903 64.2183 28.2764 64.2375 28.2661C64.2568 28.2559 64.2778 28.2496 64.2995 28.2475C64.3211 28.2454 64.343 28.2476 64.3638 28.2539C64.3846 28.2603 64.404 28.2707 64.4208 28.2845C64.4376 28.2984 64.4515 28.3154 64.4617 28.3346C64.472 28.3538 64.4783 28.3749 64.4804 28.3965C64.4825 28.4182 64.4803 28.4401 64.4739 28.4609C64.4441 28.5569 63.7396 30.8294 62.6526 31.8204C62.6223 31.848 62.5827 31.8633 62.5417 31.8634Z" fill="black"/>
<path d="M61.5127 30.9676C61.4784 30.9677 61.4448 30.9572 61.4167 30.9374C61.3886 30.9177 61.3674 30.8896 61.3559 30.8573C61.3445 30.8249 61.3434 30.7897 61.3528 30.7567C61.3622 30.7237 61.3816 30.6944 61.4084 30.6729C62.3513 29.9079 63.411 27.0419 63.4218 27.0137C63.4386 26.9751 63.4696 26.9444 63.5083 26.9278C63.5471 26.9112 63.5907 26.91 63.6303 26.9245C63.6699 26.9389 63.7025 26.968 63.7214 27.0056C63.7403 27.0433 63.7442 27.0867 63.7322 27.1271C63.6875 27.2488 62.6303 30.1074 61.617 30.9303C61.5876 30.9544 61.5507 30.9675 61.5127 30.9676Z" fill="black"/>
<path d="M18.7741 42.3773C18.7472 42.3773 18.7207 42.3707 18.6969 42.3582C18.6731 42.3456 18.6528 42.3275 18.6376 42.3053L16.7782 39.5584C16.7649 39.5405 16.7555 39.52 16.7503 39.4983C16.7452 39.4766 16.7445 39.4541 16.7482 39.4321C16.752 39.4101 16.7602 39.3891 16.7723 39.3704C16.7844 39.3516 16.8002 39.3355 16.8186 39.323C16.8371 39.3105 16.8579 39.3019 16.8798 39.2976C16.9017 39.2933 16.9242 39.2936 16.9461 39.2982C16.9679 39.3029 16.9885 39.3119 17.0068 39.3248C17.025 39.3376 17.0405 39.354 17.0522 39.373L18.9116 42.119C18.9284 42.1439 18.9382 42.1729 18.9397 42.203C18.9413 42.233 18.9347 42.2629 18.9206 42.2895C18.9064 42.316 18.8853 42.3382 18.8596 42.3537C18.8338 42.3692 18.8042 42.3773 18.7741 42.3773Z" fill="black"/>
<path d="M4.95061 31.3799C4.90958 31.3798 4.87004 31.3645 4.83968 31.3369C3.75352 30.3434 3.04818 28.0734 3.01838 27.9774C3.01077 27.9563 3.00752 27.9339 3.00883 27.9115C3.01014 27.8891 3.01599 27.8672 3.02602 27.8472C3.03605 27.8271 3.05005 27.8093 3.06717 27.7948C3.0843 27.7803 3.10418 27.7694 3.12563 27.7629C3.14707 27.7563 3.16963 27.7542 3.19193 27.7566C3.21423 27.759 3.2358 27.7659 3.25535 27.7769C3.27489 27.7879 3.292 27.8028 3.30562 27.8206C3.31925 27.8384 3.32912 27.8588 3.33462 27.8805C3.34207 27.9029 4.04327 30.163 5.06154 31.0927C5.086 31.1152 5.10309 31.1446 5.11059 31.177C5.11809 31.2094 5.11565 31.2434 5.10358 31.2744C5.09152 31.3054 5.07039 31.332 5.04296 31.3509C5.01552 31.3697 4.98306 31.3798 4.94978 31.3799H4.95061Z" fill="black"/>
<path d="M5.97877 30.4833C5.94075 30.4832 5.90392 30.4701 5.87446 30.4461C4.86033 29.624 3.8048 26.7646 3.75844 26.6437C3.75094 26.6233 3.74754 26.6015 3.74843 26.5798C3.74932 26.558 3.75449 26.5367 3.76364 26.5169C3.77278 26.4971 3.78573 26.4794 3.80175 26.4646C3.81776 26.4499 3.83652 26.4384 3.85696 26.4309C3.8774 26.4234 3.89911 26.42 3.92087 26.4209C3.94262 26.4218 3.96398 26.427 3.98374 26.4361C4.0035 26.4453 4.02126 26.4582 4.03601 26.4742C4.05076 26.4902 4.06222 26.509 4.06972 26.5294C4.08048 26.5584 5.13932 29.427 6.08308 30.1894C6.10955 30.211 6.12869 30.2402 6.13789 30.2731C6.1471 30.306 6.1459 30.3409 6.13448 30.3731C6.12306 30.4053 6.10196 30.4332 6.07409 30.4529C6.04621 30.4726 6.01292 30.4832 5.97877 30.4833Z" fill="black"/>
<path d="M32.4754 66.0788C32.4315 66.0788 32.3894 66.0613 32.3583 66.0303C32.3273 65.9992 32.3098 65.9571 32.3098 65.9132V57.9003C32.3098 57.8564 32.3273 57.8143 32.3583 57.7832C32.3894 57.7522 32.4315 57.7347 32.4754 57.7347C32.5193 57.7347 32.5614 57.7522 32.5925 57.7832C32.6235 57.8143 32.641 57.8564 32.641 57.9003V65.9132C32.641 65.9571 32.6235 65.9992 32.5925 66.0303C32.5614 66.0613 32.5193 66.0788 32.4754 66.0788Z" fill="white"/>
<path d="M32.4754 53.0565C32.4315 53.0565 32.3894 53.0391 32.3583 53.008C32.3273 52.977 32.3098 52.9349 32.3098 52.891V49.0555C32.3098 49.0116 32.3273 48.9694 32.3583 48.9384C32.3894 48.9073 32.4315 48.8899 32.4754 48.8899C32.5193 48.8899 32.5614 48.9073 32.5925 48.9384C32.6235 48.9694 32.641 49.0116 32.641 49.0555V52.891C32.641 52.9349 32.6235 52.977 32.5925 53.008C32.5614 53.0391 32.5193 53.0565 32.4754 53.0565Z" fill="white"/>
<path d="M42.7864 53.3237C42.7768 53.3245 42.7671 53.3245 42.7574 53.3237C40.7118 52.9644 39.6447 51.8336 39.1107 50.942C38.7606 50.372 38.5307 49.7364 38.4352 49.0743C38.433 49.0526 38.4351 49.0306 38.4414 49.0097C38.4477 48.9888 38.4581 48.9693 38.4719 48.9524C38.4858 48.9355 38.5028 48.9215 38.5221 48.9111C38.5413 48.9008 38.5624 48.8944 38.5842 48.8922C38.6059 48.89 38.6279 48.8921 38.6488 48.8984C38.6697 48.9048 38.6892 48.9151 38.7061 48.929C38.723 48.9428 38.737 48.9598 38.7474 48.9791C38.7577 48.9984 38.7641 49.0195 38.7663 49.0412C38.8619 49.6571 39.0785 50.248 39.4038 50.7797C40.1306 51.9785 41.2789 52.7235 42.817 52.9942C42.8609 52.998 42.9016 53.019 42.93 53.0527C42.9584 53.0864 42.9723 53.13 42.9685 53.1739C42.9648 53.2178 42.9438 53.2584 42.9101 53.2868C42.8764 53.3153 42.8328 53.3291 42.7889 53.3254L42.7864 53.3237Z" fill="white"/>
<path d="M22.8629 53.5442C22.6157 53.5434 22.3687 53.5271 22.1236 53.4954C22.0797 53.4898 22.0398 53.467 22.0127 53.432C21.9856 53.397 21.9735 53.3526 21.9791 53.3087C21.9847 53.2648 22.0075 53.2249 22.0425 53.1978C22.0776 53.1707 22.1219 53.1586 22.1658 53.1642C23.3977 53.3224 24.3894 53.0757 25.1138 52.4332C26.4525 51.2453 26.4517 49.0763 26.4517 49.0547C26.4517 49.0108 26.4691 48.9687 26.5001 48.9377C26.5312 48.9066 26.5733 48.8892 26.6172 48.8892C26.6611 48.8892 26.7032 48.9066 26.7343 48.9377C26.7654 48.9687 26.7828 49.0108 26.7828 49.0547C26.7828 49.1491 26.7828 51.3926 25.3349 52.6816C24.6891 53.2553 23.8596 53.5442 22.8629 53.5442Z" fill="white"/>
<path d="M17.7617 35.3675L22.757 38.2451L25.9402 28.1096C25.9402 28.1096 21.5268 26.8794 17.7617 35.3675Z" fill="black"/>
<path d="M19.8206 25.2114H6.98878C6.34588 25.2107 5.7295 24.955 5.2749 24.5004C4.82031 24.0458 4.56462 23.4294 4.56397 22.7866V12.5211C4.56353 12.2021 4.62597 11.8862 4.7477 11.5913C4.86944 11.2965 5.04809 11.0286 5.27344 10.8029C5.49879 10.5771 5.76642 10.398 6.06104 10.2758C6.35565 10.1535 6.67147 10.0906 6.99043 10.0905H19.8223C20.4652 10.0911 21.0816 10.3468 21.5362 10.8014C21.9908 11.256 22.2465 11.8724 22.2471 12.5153V22.7808C22.2475 23.0997 22.1851 23.4156 22.0634 23.7105C21.9416 24.0053 21.763 24.2732 21.5376 24.499C21.3123 24.7247 21.0447 24.9038 20.75 25.026C20.4554 25.1483 20.1396 25.2113 19.8206 25.2114ZM6.99043 10.4216C6.43536 10.4223 5.90321 10.643 5.51071 11.0355C5.11822 11.428 4.89743 11.9602 4.89677 12.5153V22.7808C4.89743 23.3358 5.11822 23.868 5.51071 24.2605C5.90321 24.653 6.43536 24.8738 6.99043 24.8744H19.8223C20.3774 24.874 20.9097 24.6533 21.3023 24.2607C21.6948 23.8682 21.9155 23.3359 21.916 22.7808V12.5153C21.9155 11.9598 21.6946 11.4273 21.3017 11.0347C20.9088 10.6421 20.3761 10.4216 19.8206 10.4216H6.99043Z" fill="black"/>
<path d="M20.7817 15.9526H16.4371C16.3931 15.9526 16.351 15.9352 16.32 15.9041C16.2889 15.8731 16.2715 15.8309 16.2715 15.787C16.2715 15.7431 16.2889 15.701 16.32 15.67C16.351 15.6389 16.3931 15.6215 16.4371 15.6215H20.7817C20.8256 15.6215 20.8677 15.6389 20.8988 15.67C20.9298 15.701 20.9473 15.7431 20.9473 15.787C20.9473 15.8309 20.9298 15.8731 20.8988 15.9041C20.8677 15.9352 20.8256 15.9526 20.7817 15.9526Z" fill="black"/>
<path d="M20.7817 17.6628H16.4371C16.3931 17.6628 16.351 17.6454 16.32 17.6143C16.2889 17.5833 16.2715 17.5412 16.2715 17.4972C16.2715 17.4533 16.2889 17.4112 16.32 17.3802C16.351 17.3491 16.3931 17.3317 16.4371 17.3317H20.7817C20.8256 17.3317 20.8677 17.3491 20.8988 17.3802C20.9298 17.4112 20.9473 17.4533 20.9473 17.4972C20.9473 17.5412 20.9298 17.5833 20.8988 17.6143C20.8677 17.6454 20.8256 17.6628 20.7817 17.6628Z" fill="black"/>
<path d="M19.6483 19.3726H16.4371C16.3931 19.3726 16.351 19.3552 16.32 19.3242C16.2889 19.2931 16.2715 19.251 16.2715 19.2071C16.2715 19.1632 16.2889 19.121 16.32 19.09C16.351 19.0589 16.3931 19.0415 16.4371 19.0415H19.6483C19.6922 19.0415 19.7344 19.0589 19.7654 19.09C19.7965 19.121 19.8139 19.1632 19.8139 19.2071C19.8139 19.251 19.7965 19.2931 19.7654 19.3242C19.7344 19.3552 19.6922 19.3726 19.6483 19.3726Z" fill="black"/>
<path d="M13.9528 20.999H8.28109L7.76367 19.1777H14.3038L13.9528 20.999ZM8.52779 20.6679H13.6796L13.9006 19.5089H8.1983L8.52779 20.6679Z" fill="black"/>
<path d="M11.1736 20.999C11.1297 20.999 11.0876 20.9816 11.0566 20.9505C11.0255 20.9195 11.0081 20.8774 11.0081 20.8335V19.3433C11.0081 19.2994 11.0255 19.2573 11.0566 19.2262C11.0876 19.1952 11.1297 19.1777 11.1736 19.1777C11.2175 19.1777 11.2597 19.1952 11.2907 19.2262C11.3218 19.2573 11.3392 19.2994 11.3392 19.3433V20.8335C11.3392 20.8774 11.3218 20.9195 11.2907 20.9505C11.2597 20.9816 11.2175 20.999 11.1736 20.999Z" fill="black"/>
<path d="M13.6515 21.2881C13.9003 21.2881 14.1019 21.0847 14.1019 20.8336C14.1019 20.5826 13.9003 20.3792 13.6515 20.3792C13.4028 20.3792 13.2012 20.5826 13.2012 20.8336C13.2012 21.0847 13.4028 21.2881 13.6515 21.2881Z" fill="black"/>
<path d="M11.1703 21.2881C11.4213 21.2881 11.6248 21.0847 11.6248 20.8336C11.6248 20.5826 11.4213 20.3792 11.1703 20.3792C10.9193 20.3792 10.7158 20.5826 10.7158 20.8336C10.7158 21.0847 10.9193 21.2881 11.1703 21.2881Z" fill="black"/>
<path d="M8.57502 21.2881C8.82329 21.2881 9.02455 21.0847 9.02455 20.8336C9.02455 20.5826 8.82329 20.3792 8.57502 20.3792C8.32675 20.3792 8.12549 20.5826 8.12549 20.8336C8.12549 21.0847 8.32675 21.2881 8.57502 21.2881Z" fill="black"/>
<path d="M7.10565 16.2215C7.08002 16.2216 7.05471 16.2157 7.03172 16.2044C7.00874 16.193 6.9887 16.1765 6.97319 16.1561L6.04599 14.93C6.00313 14.8729 5.97702 14.805 5.97057 14.7338C5.96412 14.6627 5.97758 14.5912 6.00945 14.5273C6.04132 14.4633 6.09035 14.4096 6.15104 14.3719C6.21173 14.3343 6.2817 14.3142 6.35312 14.3141H9.18524C9.29454 14.3141 9.40226 14.3401 9.49955 14.3899C9.59684 14.4397 9.68092 14.5119 9.74488 14.6005L11.0248 15.9375C11.0513 15.9698 11.0648 16.0109 11.0623 16.0526C11.0599 16.0943 11.0418 16.1335 11.0116 16.1624C10.9814 16.1914 10.9414 16.2078 10.8997 16.2085C10.8579 16.2091 10.8174 16.194 10.7863 16.166L9.47748 14.8009C9.44455 14.7529 9.40043 14.7136 9.34894 14.6865C9.29745 14.6594 9.24013 14.6452 9.18193 14.6452H6.34981C6.33979 14.6451 6.32993 14.6478 6.32142 14.6531C6.3129 14.6584 6.30609 14.666 6.3018 14.675C6.29739 14.6838 6.29553 14.6937 6.2964 14.7035C6.29728 14.7133 6.30087 14.7226 6.30676 14.7305L7.23728 15.9557C7.25054 15.9731 7.26025 15.9928 7.26585 16.0139C7.27145 16.035 7.27283 16.057 7.2699 16.0786C7.26698 16.1002 7.25981 16.121 7.24882 16.1399C7.23782 16.1587 7.22321 16.1752 7.20582 16.1884C7.17694 16.21 7.14176 16.2217 7.10565 16.2215Z" fill="black"/>
<path d="M11.1736 19.5456H14.2648L15.0364 16.0834C15.0483 16.0285 15.0477 15.9716 15.0347 15.917C15.0216 15.8623 14.9964 15.8113 14.961 15.7678C14.9255 15.7242 14.8807 15.6891 14.8298 15.6653C14.7789 15.6414 14.7234 15.6292 14.6672 15.6298H11.1736V19.5456Z" fill="#C7B8F8"/>
<path d="M7.82586 19.5456H11.1737V15.6298H7.03939C6.97793 15.6296 6.91732 15.644 6.86257 15.672C6.80783 15.6999 6.76052 15.7405 6.72459 15.7903C6.68866 15.8402 6.66512 15.8979 6.65595 15.9586C6.64677 16.0194 6.65221 16.0815 6.67182 16.1397L7.82586 19.5456Z" fill="#C7B8F8"/>
<path d="M11.1736 19.0842C11.1297 19.0842 11.0876 19.0668 11.0566 19.0357C11.0255 19.0047 11.0081 18.9626 11.0081 18.9187V16.0509C11.0081 16.007 11.0255 15.9649 11.0566 15.9339C11.0876 15.9028 11.1297 15.8854 11.1736 15.8854C11.2175 15.8854 11.2597 15.9028 11.2907 15.9339C11.3218 15.9649 11.3392 16.007 11.3392 16.0509V18.9154C11.3396 18.9374 11.3357 18.9593 11.3276 18.9797C11.3194 19.0002 11.3073 19.0188 11.2919 19.0346C11.2765 19.0503 11.2581 19.0628 11.2378 19.0713C11.2175 19.0799 11.1957 19.0842 11.1736 19.0842Z" fill="black"/>
<path d="M9.87215 52.7618H4.55562C4.28957 52.7616 4.03449 52.6558 3.84637 52.4677C3.65825 52.2796 3.55247 52.0245 3.55225 51.7584V46.4427C3.55268 46.1768 3.65856 45.922 3.84666 45.734C4.03476 45.5461 4.28972 45.4404 4.55562 45.4402H9.87049C10.1365 45.4404 10.3916 45.5462 10.5797 45.7343C10.7679 45.9224 10.8736 46.1775 10.8739 46.4436V51.7593C10.8734 52.0249 10.7678 52.2795 10.58 52.4674C10.3923 52.6553 10.1378 52.7611 9.87215 52.7618ZM4.55562 45.7713C4.3774 45.7715 4.20654 45.8424 4.08052 45.9685C3.9545 46.0945 3.88361 46.2653 3.88339 46.4436V51.7593C3.88361 51.9375 3.9545 52.1083 4.08052 52.2344C4.20654 52.3604 4.3774 52.4313 4.55562 52.4315H9.87049C10.0487 52.4313 10.2196 52.3604 10.3456 52.2344C10.4716 52.1083 10.5425 51.9375 10.5427 51.7593V46.4427C10.5425 46.2645 10.4716 46.0937 10.3456 45.9676C10.2196 45.8416 10.0487 45.7707 9.87049 45.7705L4.55562 45.7713Z" fill="black"/>
<path d="M6.01451 48.5208C5.8494 48.5209 5.68794 48.4721 5.55059 48.3805C5.41323 48.2889 5.30614 48.1585 5.24288 48.006C5.17962 47.8535 5.16302 47.6856 5.19519 47.5237C5.22737 47.3617 5.30686 47.213 5.42362 47.0962C5.54037 46.9795 5.68914 46.9 5.85109 46.8678C6.01304 46.8356 6.1809 46.8522 6.33341 46.9155C6.48593 46.9787 6.61625 47.0858 6.70788 47.2232C6.79951 47.3605 6.84833 47.522 6.84817 47.6871C6.84795 47.9082 6.76005 48.1201 6.60375 48.2764C6.44746 48.4327 6.23554 48.5206 6.01451 48.5208ZM6.01451 47.1838C5.91493 47.1836 5.81753 47.213 5.73465 47.2682C5.65176 47.3234 5.58712 47.402 5.5489 47.4939C5.51067 47.5859 5.50059 47.6871 5.51992 47.7848C5.53924 47.8825 5.58712 47.9723 5.65748 48.0427C5.72784 48.1132 5.81752 48.1612 5.91518 48.1807C6.01284 48.2002 6.11409 48.1903 6.20611 48.1522C6.29813 48.1141 6.37679 48.0496 6.43214 47.9668C6.48748 47.8841 6.51702 47.7867 6.51702 47.6871C6.51703 47.5538 6.46411 47.4259 6.36989 47.3315C6.27568 47.2371 6.14786 47.184 6.01451 47.1838Z" fill="black"/>
<path d="M8.4152 51.0831C8.25032 51.0831 8.08914 51.0342 7.95205 50.9426C7.81495 50.851 7.7081 50.7208 7.645 50.5685C7.5819 50.4161 7.5654 50.2485 7.59756 50.0868C7.62973 49.9251 7.70913 49.7765 7.82572 49.6599C7.9423 49.5434 8.09085 49.464 8.25256 49.4318C8.41428 49.3996 8.5819 49.4161 8.73423 49.4792C8.88656 49.5423 9.01676 49.6492 9.10836 49.7863C9.19997 49.9234 9.24886 50.0845 9.24886 50.2494C9.24864 50.4705 9.16074 50.6824 9.00444 50.8387C8.84815 50.995 8.63623 51.0829 8.4152 51.0831ZM8.4152 49.7469C8.31581 49.7469 8.21866 49.7764 8.13602 49.8316C8.05338 49.8868 7.98897 49.9653 7.95094 50.0571C7.91291 50.1489 7.90295 50.25 7.92234 50.3475C7.94173 50.4449 7.98959 50.5345 8.05987 50.6048C8.13015 50.675 8.21969 50.7229 8.31717 50.7423C8.41464 50.7617 8.51568 50.7517 8.6075 50.7137C8.69933 50.6757 8.77781 50.6112 8.83302 50.5286C8.88824 50.446 8.91771 50.3488 8.91771 50.2494C8.91793 50.1833 8.90509 50.1178 8.87994 50.0566C8.85478 49.9955 8.8178 49.9399 8.77112 49.893C8.72443 49.8462 8.66896 49.809 8.60789 49.7837C8.54681 49.7583 8.48133 49.7453 8.4152 49.7453V49.7469Z" fill="black"/>
<path d="M5.6319 51.5738C5.60267 51.5732 5.57411 51.5649 5.54912 51.5498C5.51163 51.5271 5.48466 51.4905 5.47411 51.448C5.46356 51.4054 5.47029 51.3605 5.49282 51.3229L8.27278 46.7076C8.29551 46.6699 8.33226 46.6428 8.37496 46.6323C8.41765 46.6217 8.46279 46.6286 8.50045 46.6513C8.5381 46.674 8.56519 46.7108 8.57574 46.7535C8.5863 46.7962 8.57947 46.8413 8.55674 46.879L5.77678 51.4935C5.76181 51.5184 5.74054 51.5389 5.7151 51.553C5.68967 51.5671 5.66098 51.5743 5.6319 51.5738Z" fill="black"/>
<path d="M68.8738 54.2829H61.6714C61.1812 54.2824 60.7113 54.0875 60.3647 53.7409C60.0181 53.3944 59.8232 52.9244 59.8228 52.4342V38.1809C59.8236 37.6917 60.0183 37.2226 60.3641 36.8765C60.7099 36.5304 61.1788 36.3353 61.6681 36.334H68.8705C69.3606 36.3344 69.8306 36.5293 70.1771 36.8759C70.5237 37.2225 70.7186 37.6925 70.7191 38.1826V52.4342C70.7184 52.9238 70.5239 53.3931 70.1781 53.7395C69.8323 54.086 69.3633 54.2813 68.8738 54.2829ZM61.6681 36.6651C61.2657 36.6656 60.88 36.8256 60.5955 37.1101C60.311 37.3946 60.151 37.7803 60.1506 38.1826V52.4342C60.151 52.8366 60.311 53.2223 60.5955 53.5068C60.88 53.7913 61.2657 53.9513 61.6681 53.9517H68.8705C69.2728 53.9513 69.6585 53.7913 69.943 53.5068C70.2275 53.2223 70.3875 52.8366 70.3879 52.4342V38.1809C70.3871 37.7795 70.2273 37.3947 69.9436 37.1107C69.6599 36.8266 69.2752 36.6664 68.8738 36.6651H61.6681Z" fill="black"/>
<path d="M67.4708 46.9613H63.0715C62.6482 46.9613 62.3049 47.3045 62.3049 47.7279V50.3845C62.3049 50.8079 62.6482 51.1511 63.0715 51.1511H67.4708C67.8942 51.1511 68.2374 50.8079 68.2374 50.3845V47.7279C68.2374 47.3045 67.8942 46.9613 67.4708 46.9613Z" fill="#C7B8F8"/>
<path d="M68.0824 48.6292H62.472C62.4281 48.6292 62.3859 48.6118 62.3549 48.5807C62.3238 48.5497 62.3064 48.5076 62.3064 48.4637C62.3064 48.4198 62.3238 48.3776 62.3549 48.3466C62.3859 48.3155 62.4281 48.2981 62.472 48.2981H68.0824C68.1263 48.2981 68.1684 48.3155 68.1995 48.3466C68.2305 48.3776 68.248 48.4198 68.248 48.4637C68.248 48.5076 68.2305 48.5497 68.1995 48.5807C68.1684 48.6118 68.1263 48.6292 68.0824 48.6292Z" fill="black"/>
<path d="M64.2014 50.6342H63.482C63.3294 50.6285 63.1849 50.5638 63.079 50.4538C62.973 50.3438 62.9138 50.197 62.9138 50.0443C62.9138 49.8916 62.973 49.7448 63.079 49.6348C63.1849 49.5248 63.3294 49.4602 63.482 49.4545H64.2014C64.354 49.4602 64.4985 49.5248 64.6044 49.6348C64.7104 49.7448 64.7696 49.8916 64.7696 50.0443C64.7696 50.197 64.7104 50.3438 64.6044 50.4538C64.4985 50.5638 64.354 50.6285 64.2014 50.6342ZM63.482 49.7856C63.4159 49.7894 63.3538 49.8182 63.3083 49.8663C63.2628 49.9145 63.2375 49.9781 63.2375 50.0443C63.2375 50.1105 63.2628 50.1742 63.3083 50.2223C63.3538 50.2704 63.4159 50.2993 63.482 50.303H64.2014C64.2675 50.2993 64.3296 50.2704 64.3751 50.2223C64.4205 50.1742 64.4459 50.1105 64.4459 50.0443C64.4459 49.9781 64.4205 49.9145 64.3751 49.8663C64.3296 49.8182 64.2675 49.7894 64.2014 49.7856H63.482Z" fill="black"/>
<path d="M67.7201 39.53H62.8125C62.3891 39.53 62.0459 39.8732 62.0459 40.2966V42.9532C62.0459 43.3766 62.3891 43.7198 62.8125 43.7198H67.7201C68.1434 43.7198 68.4867 43.3766 68.4867 42.9532V40.2966C68.4867 39.8732 68.1434 39.53 67.7201 39.53Z" fill="#6DC8C2"/>
<path d="M65.2662 42.6837C65.0562 42.6837 64.851 42.6214 64.6765 42.5048C64.502 42.3882 64.3659 42.2224 64.2856 42.0285C64.2053 41.8346 64.1843 41.6212 64.2252 41.4153C64.2662 41.2094 64.3673 41.0203 64.5157 40.8719C64.6641 40.7235 64.8532 40.6224 65.0591 40.5814C65.265 40.5405 65.4784 40.5615 65.6723 40.6418C65.8662 40.7222 66.032 40.8582 66.1486 41.0327C66.2652 41.2072 66.3275 41.4124 66.3275 41.6224C66.3273 41.9038 66.2154 42.1736 66.0164 42.3726C65.8174 42.5716 65.5476 42.6835 65.2662 42.6837ZM65.2662 40.8922C65.1217 40.8922 64.9806 40.935 64.8605 41.0152C64.7404 41.0955 64.6468 41.2095 64.5916 41.3429C64.5363 41.4764 64.5218 41.6232 64.55 41.7648C64.5782 41.9064 64.6477 42.0366 64.7498 42.1387C64.852 42.2408 64.9821 42.3103 65.1237 42.3385C65.2653 42.3667 65.4122 42.3522 65.5456 42.2969C65.679 42.2417 65.793 42.1481 65.8733 42.028C65.9535 41.9079 65.9963 41.7668 65.9963 41.6224C65.9961 41.4288 65.9191 41.2432 65.7822 41.1063C65.6453 40.9694 65.4597 40.8924 65.2662 40.8922Z" fill="black"/>
<path d="M62.6527 42.6837H62.0459V42.3525H62.6527C62.8146 42.3343 62.964 42.2572 63.0725 42.1358C63.1811 42.0144 63.2411 41.8572 63.2411 41.6944C63.2411 41.5315 63.1811 41.3744 63.0725 41.253C62.964 41.1316 62.8146 41.0544 62.6527 41.0362H62.0459V40.7051H62.6527C62.8995 40.7277 63.1289 40.8417 63.2959 41.0247C63.463 41.2077 63.5556 41.4466 63.5556 41.6944C63.5556 41.9422 63.463 42.181 63.2959 42.364C63.1289 42.5471 62.8995 42.6611 62.6527 42.6837Z" fill="black"/>
<path d="M68.4965 42.6885H67.8872C67.6396 42.667 67.409 42.5534 67.2409 42.3702C67.0729 42.187 66.9797 41.9474 66.9797 41.6988C66.9797 41.4502 67.0729 41.2107 67.2409 41.0274C67.409 40.8442 67.6396 40.7306 67.8872 40.7091H68.494V41.0403H67.8872C67.7246 41.0576 67.5742 41.1344 67.4649 41.256C67.3556 41.3776 67.2951 41.5353 67.2951 41.6988C67.2951 41.8623 67.3556 42.02 67.4649 42.1416C67.5742 42.2632 67.7246 42.3401 67.8872 42.3574H68.494L68.4965 42.6885Z" fill="black"/>
<path d="M69.6059 25.8042H49.3158C48.6815 25.8025 48.0737 25.5498 47.6251 25.1014C47.1765 24.6529 46.9236 24.0452 46.9216 23.4109V10.978C46.9234 10.3436 47.1762 9.73565 47.6248 9.28703C48.0734 8.83841 48.6814 8.58561 49.3158 8.58386H69.6059C70.2403 8.58561 70.8483 8.83841 71.2969 9.28703C71.7455 9.73565 71.9983 10.3436 72.0001 10.978V23.4109C71.9981 24.0452 71.7452 24.6529 71.2966 25.1014C70.848 25.5498 70.2402 25.8025 69.6059 25.8042ZM49.3158 8.91583C48.7692 8.91758 48.2455 9.1355 47.859 9.52201C47.4724 9.90853 47.2545 10.4323 47.2528 10.9789V23.4109C47.2534 23.9577 47.471 24.482 47.8578 24.8686C48.2446 25.2553 48.7689 25.4726 49.3158 25.4731H69.6059C70.1528 25.4726 70.6771 25.2553 71.0639 24.8686C71.4507 24.482 71.6683 23.9577 71.6689 23.4109V10.978C71.6672 10.4314 71.4493 9.9077 71.0627 9.52119C70.6762 9.13467 70.1525 8.91675 69.6059 8.91501L49.3158 8.91583Z" fill="black"/>
<path d="M57.4809 11.915H51.1113C50.4552 11.915 49.9233 12.4469 49.9233 13.103V20.5819C49.9233 21.238 50.4552 21.7699 51.1113 21.7699H57.4809C58.137 21.7699 58.6689 21.238 58.6689 20.5819V13.103C58.6689 12.4469 58.137 11.915 57.4809 11.915Z" fill="#C7B8F8"/>
<path d="M54.4618 17.1943H54.1306V21.7708H54.4618V17.1943Z" fill="black"/>
<path d="M62.5076 12.1222H60.9662C60.7353 12.1222 60.5481 12.3094 60.5481 12.5403V14.0817C60.5481 14.3126 60.7353 14.4998 60.9662 14.4998H62.5076C62.7385 14.4998 62.9257 14.3126 62.9257 14.0817V12.5403C62.9257 12.3094 62.7385 12.1222 62.5076 12.1222Z" fill="#6DC8C2"/>
<path d="M65.8424 12.1222H64.3009C64.07 12.1222 63.8828 12.3094 63.8828 12.5403V14.0817C63.8828 14.3126 64.07 14.4998 64.3009 14.4998H65.8424C66.0733 14.4998 66.2604 14.3126 66.2604 14.0817V12.5403C66.2604 12.3094 66.0733 12.1222 65.8424 12.1222Z" fill="#6DC8C2"/>
<path d="M69.1778 12.1222H67.6363C67.4054 12.1222 67.2183 12.3094 67.2183 12.5403V14.0817C67.2183 14.3126 67.4054 14.4998 67.6363 14.4998H69.1778C69.4087 14.4998 69.5959 14.3126 69.5959 14.0817V12.5403C69.5959 12.3094 69.4087 12.1222 69.1778 12.1222Z" fill="#6DC8C2"/>
<path d="M69.5967 16.8309H60.7129C60.669 16.8309 60.6269 16.8135 60.5959 16.7824C60.5648 16.7514 60.5474 16.7092 60.5474 16.6653C60.5474 16.6214 60.5648 16.5793 60.5959 16.5483C60.6269 16.5172 60.669 16.4998 60.7129 16.4998H69.5967C69.6406 16.4998 69.6828 16.5172 69.7138 16.5483C69.7449 16.5793 69.7623 16.6214 69.7623 16.6653C69.7623 16.7092 69.7449 16.7514 69.7138 16.7824C69.6828 16.8135 69.6406 16.8309 69.5967 16.8309Z" fill="black"/>
<path d="M69.5967 18.5836H60.7129C60.669 18.5836 60.6269 18.5661 60.5959 18.5351C60.5648 18.504 60.5474 18.4619 60.5474 18.418C60.5474 18.3741 60.5648 18.332 60.5959 18.3009C60.6269 18.2699 60.669 18.2524 60.7129 18.2524H69.5967C69.6406 18.2524 69.6828 18.2699 69.7138 18.3009C69.7449 18.332 69.7623 18.3741 69.7623 18.418C69.7623 18.4619 69.7449 18.504 69.7138 18.5351C69.6828 18.5661 69.6406 18.5836 69.5967 18.5836Z" fill="black"/>
<path d="M66.5046 20.3359H60.7095C60.6656 20.3359 60.6235 20.3185 60.5924 20.2874C60.5614 20.2564 60.5439 20.2142 60.5439 20.1703C60.5439 20.1264 60.5614 20.0843 60.5924 20.0533C60.6235 20.0222 60.6656 20.0048 60.7095 20.0048H66.5046C66.5485 20.0048 66.5906 20.0222 66.6216 20.0533C66.6527 20.0843 66.6701 20.1264 66.6701 20.1703C66.6701 20.2142 66.6527 20.2564 66.6216 20.2874C66.5906 20.3185 66.5485 20.3359 66.5046 20.3359Z" fill="black"/>
<path d="M55.9452 17.1943H52.6271C52.5924 17.1943 52.558 17.1874 52.5259 17.1741C52.4938 17.1608 52.4646 17.1412 52.4401 17.1166C52.4156 17.092 52.3961 17.0628 52.3829 17.0307C52.3697 16.9985 52.3629 16.9641 52.363 16.9294V15.2513C52.363 15.2115 52.3788 15.1734 52.4069 15.1453C52.435 15.1172 52.4731 15.1014 52.5129 15.1014H56.0586C56.0784 15.1013 56.0979 15.1051 56.1162 15.1126C56.1345 15.1201 56.1511 15.1311 56.1651 15.145C56.1791 15.159 56.1902 15.1755 56.1978 15.1938C56.2054 15.212 56.2093 15.2315 56.2093 15.2513V16.9294C56.2094 16.9641 56.2026 16.9985 56.1894 17.0307C56.1762 17.0628 56.1568 17.092 56.1322 17.1166C56.1077 17.1412 56.0786 17.1608 56.0465 17.1741C56.0144 17.1874 55.98 17.1943 55.9452 17.1943Z" fill="#FFBB45"/>
<path d="M54.2862 15.7025C55.3483 15.7025 56.2093 15.4335 56.2093 15.1015C56.2093 14.7696 55.3483 14.5005 54.2862 14.5005C53.2241 14.5005 52.363 14.7696 52.363 15.1015C52.363 15.4335 53.2241 15.7025 54.2862 15.7025Z" fill="black"/>
<path d="M41.1133 49.221H24.2249C24.181 49.221 24.1389 49.2036 24.1078 49.1725C24.0768 49.1415 24.0593 49.0994 24.0593 49.0555C24.0593 49.0116 24.0768 48.9694 24.1078 48.9384C24.1389 48.9073 24.181 48.8899 24.2249 48.8899H41.1133C41.1572 48.8899 41.1993 48.9073 41.2304 48.9384C41.2614 48.9694 41.2789 49.0116 41.2789 49.0555C41.2789 49.0994 41.2614 49.1415 41.2304 49.1725C41.1993 49.2036 41.1572 49.221 41.1133 49.221Z" fill="white"/>
</svg>
